<svg width="835" height="439" viewBox="0 0 835 439" fill="none" xmlns="http://www.w3.org/2000/svg">
<path d="M849.615 392.318C840.12 386.694 828.059 387.369 817.515 390.627C812.05 392.315 806.694 394.699 802.414 398.494C796.945 403.344 793.586 410.211 791.76 417.289C789.934 424.367 789.527 431.722 789.127 439.02C791.816 439.041 794.503 439.062 797.191 439.083C797.373 432.688 797.561 426.244 799.002 420.01C800.444 413.777 803.243 407.694 807.933 403.346C815.495 396.338 826.841 394.877 837.009 396.58C840.624 397.186 844.275 398.188 847.226 400.362C850.523 402.792 852.662 406.471 854.368 410.195C858.234 418.635 860.342 427.874 860.523 437.155L867.411 437.752C867.432 429.227 867.021 420.582 864.455 412.451C861.891 404.32 856.952 396.664 849.615 392.318Z" fill="#4F9834"/>
<path d="M878.23 407.531C875.432 397.907 870.042 388.682 861.634 383.226C853.649 378.044 843.801 376.728 834.296 376.204C826.231 375.76 817.934 375.826 810.365 378.648C798.83 382.95 790.345 393.279 785.573 404.628C780.801 415.976 779.272 428.389 778 440.634L784.07 440.036C784.363 432.408 784.662 424.732 786.309 417.278C787.957 409.825 791.045 402.529 796.273 396.967C801.83 391.053 809.451 387.459 817.229 385.145C824.366 383.023 831.866 381.866 839.277 382.591C846.686 383.316 854.013 386.015 859.614 390.918C865.913 396.433 869.675 404.385 871.57 412.541C873.466 420.695 873.646 429.137 873.818 437.507C876.531 437.435 879.242 437.361 881.955 437.289C881.5 427.277 881.027 417.153 878.23 407.531Z" fill="#4F9834"/>
<path d="M-1.20943 24.5444C-7.6886 24.9097 -14.3917 24.659 -20.9068 24.6724C-24.6235 24.6804 -28.2901 24.907 -32 24.9097C-32 27.2083 -31.8391 29.5057 -31.8391 31.8043C-24.2729 31.8923 -16.7084 31.4977 -9.06672 31.4977C-2.41412 31.4977 4.18171 31.7283 10.8494 31.727C20.002 31.7257 29.2072 31.4977 38.4233 31.4977L38.5843 24.4497C32.7285 24.4497 26.8724 24.4497 21.0167 24.4497C13.701 24.4497 6.03797 24.135 -1.20943 24.5444Z" fill="#FBC815"/>
<path d="M-9.06672 19.331C-2.41412 19.331 4.18171 19.5617 10.8494 19.5603C20.002 19.559 29.2072 19.331 38.4233 19.331L38.5843 12.283C32.7285 12.283 26.8724 12.283 21.0167 12.283C13.701 12.283 6.03797 11.9683 -1.20943 12.3763C-7.6886 12.743 -14.3917 12.4924 -20.9068 12.5057C-24.6235 12.5137 -28.2901 12.7403 -32 12.743C-32 15.0403 -31.8391 17.339 -31.8391 19.6377C-24.2729 19.7243 -16.7084 19.331 -9.06672 19.331Z" fill="#FBC815"/>
<path d="M-9.06672 7.16437C-2.41412 7.16437 4.18171 7.395 10.8494 7.39367C20.002 7.39233 29.2072 7.16437 38.4233 7.16437L38.5843 0.116388C32.7285 0.116388 26.8724 0.116388 21.0167 0.116388C13.701 0.116388 6.03797 -0.199651 -1.20943 0.209682C-7.6886 0.575016 -14.3917 0.325711 -20.9068 0.339044C-24.6235 0.345711 -28.2901 0.573714 -32 0.575047C-32 2.87371 -31.8391 5.17238 -31.8391 7.46971C-24.2729 7.55771 -16.7084 7.16437 -9.06672 7.16437Z" fill="#FBC815"/>
<path d="M794.94 130.141C795.745 130.301 796.586 130.343 797.382 130.144C799.824 129.537 800.923 125.153 797.76 125.345C795.914 125.458 791.536 129.463 794.94 130.141Z" fill="#FBC815"/>
<path d="M818.782 129.195C819.586 129.356 820.427 129.397 821.224 129.2C823.666 128.591 824.764 124.208 821.601 124.4C819.756 124.512 815.378 128.517 818.782 129.195Z" fill="#FBC815"/>
<path d="M803.168 124.195C802.986 124.813 802.852 125.5 803.122 126.084C803.463 126.819 804.339 127.149 805.148 127.205C806.614 127.304 808.081 126.725 809.21 125.783C810.339 124.843 811.15 123.562 811.705 122.201C812.141 121.132 812.416 119.878 811.884 118.854C810.786 116.743 807.395 117.113 805.861 118.492C804.543 119.676 803.644 122.581 803.168 124.195Z" fill="#FBC815"/>
<path d="M814.873 126.247C815.31 126.175 815.674 125.834 815.847 125.426C816.201 124.596 815.456 123.89 814.619 124.076C813.985 124.217 813.577 125.168 813.848 125.74C814.023 126.112 814.476 126.311 814.873 126.247Z" fill="#FBC815"/>
<path d="M801.656 134.133C801.123 134.577 800.6 135.066 800.302 135.692C800.006 136.32 799.983 137.121 800.413 137.666C801.006 138.418 802.153 138.397 803.077 138.141C804.547 137.734 805.898 136.905 806.926 135.778C807.891 134.721 808.897 131.891 806.698 131.514C804.952 131.216 802.864 133.123 801.656 134.133Z" fill="#FBC815"/>
<path d="M794.376 133.512C793.77 134.056 793.404 134.954 793.722 135.703C794.011 136.387 794.81 136.763 795.552 136.714C796.295 136.665 796.974 136.261 797.519 135.755C797.91 135.392 798.253 134.963 798.426 134.458C798.753 133.505 798.228 132.223 797.09 132.201C796.285 132.185 794.945 133.002 794.376 133.512Z" fill="#FBC815"/>
<path d="M818.165 120.385C818.677 120.543 819.238 120.454 819.73 120.245C820.529 119.907 821.271 119.142 821.08 118.205C820.927 117.454 820.283 116.917 819.519 117.011C818.047 117.191 815.85 119.671 818.165 120.385Z" fill="#FBC815"/>
<path d="M796.332 121.897C796.842 122.055 797.405 121.967 797.897 121.758C798.695 121.419 799.436 120.654 799.246 119.717C799.094 118.966 798.449 118.429 797.685 118.523C796.214 118.704 794.016 121.184 796.332 121.897Z" fill="#FBC815"/>
<path d="M808.581 141.686C809.091 141.844 809.653 141.754 810.146 141.547C810.945 141.208 811.685 140.443 811.496 139.506C811.342 138.755 810.699 138.218 809.935 138.312C808.463 138.493 806.266 140.971 808.581 141.686Z" fill="#FBC815"/>
<path d="M813.277 131.74C812.685 132.11 812.11 132.585 811.872 133.242C811.637 133.899 811.87 134.765 812.52 135.022C812.893 135.17 813.318 135.094 813.695 134.954C814.581 134.627 815.331 133.952 815.749 133.106C815.925 132.751 816.045 132.35 815.97 131.96C815.886 131.527 815.547 131.153 815.124 131.027C814.7 130.902 814.211 131.031 813.905 131.35" fill="#FBC815"/>
<path d="M14.6052 406.793C15.5726 406.986 16.5831 407.037 17.5396 406.798C20.4755 406.068 21.7955 400.798 17.994 401.03C15.7759 401.165 10.5141 405.979 14.6052 406.793Z" fill="#92D230"/>
<path d="M43.26 405.657C44.2274 405.851 45.2378 405.9 46.1959 405.663C49.1302 404.931 50.4503 399.663 46.6487 399.894C44.4307 400.028 39.1689 404.842 43.26 405.657Z" fill="#92D230"/>
<path d="M24.4942 399.648C24.2755 400.39 24.1138 401.216 24.4388 401.918C24.8485 402.801 25.9021 403.198 26.874 403.265C28.6361 403.385 30.3983 402.688 31.7554 401.556C33.1124 400.426 34.0874 398.887 34.7543 397.251C35.278 395.966 35.6092 394.459 34.97 393.228C33.6499 390.691 29.5742 391.136 27.7304 392.793C26.147 394.217 25.0657 397.707 24.4942 399.648Z" fill="#92D230"/>
<path d="M38.5621 402.114C39.0873 402.028 39.5247 401.618 39.7327 401.127C40.1578 400.13 39.2629 399.281 38.2571 399.505C37.4946 399.674 37.0048 400.817 37.3298 401.504C37.5408 401.952 38.0846 402.191 38.5621 402.114Z" fill="#92D230"/>
<path d="M22.6767 411.591C22.036 412.126 21.4076 412.713 21.0502 413.466C20.6944 414.221 20.6667 415.184 21.1827 415.838C21.8958 416.742 23.2744 416.716 24.385 416.41C26.1518 415.92 27.7752 414.923 29.0106 413.569C30.1704 412.298 31.3796 408.897 28.7364 408.445C26.6385 408.086 24.1293 410.378 22.6767 411.591Z" fill="#92D230"/>
<path d="M13.9277 410.846C13.1992 411.499 12.7586 412.579 13.1406 413.478C13.4888 414.301 14.4484 414.752 15.3402 414.694C16.2336 414.635 17.05 414.15 17.7046 413.542C18.1744 413.106 18.5872 412.59 18.7952 411.983C19.188 410.837 18.5564 409.296 17.1886 409.27C16.2213 409.25 14.6116 410.233 13.9277 410.846Z" fill="#92D230"/>
<path d="M42.5192 395.069C43.1337 395.258 43.8084 395.152 44.3999 394.901C45.3595 394.494 46.2513 393.574 46.0218 392.448C45.8385 391.546 45.0638 390.9 44.1457 391.013C42.3775 391.23 39.7358 394.211 42.5192 395.069Z" fill="#92D230"/>
<path d="M16.2782 396.886C16.8912 397.076 17.5675 396.969 18.159 396.718C19.1186 396.312 20.0089 395.392 19.7809 394.266C19.5976 393.364 18.8228 392.718 17.9048 392.831C16.1365 393.048 13.4948 396.028 16.2782 396.886Z" fill="#92D230"/>
<path d="M31.0006 420.67C31.6136 420.86 32.2883 420.752 32.8813 420.502C33.841 420.096 34.7313 419.176 34.5033 418.05C34.3185 417.148 33.5452 416.502 32.6272 416.615C30.8589 416.832 28.2172 419.811 31.0006 420.67Z" fill="#92D230"/>
<path d="M36.6442 408.716C35.9326 409.161 35.241 409.731 34.956 410.521C34.6726 411.311 34.9529 412.351 35.7339 412.661C36.1821 412.838 36.6936 412.747 37.1464 412.579C38.2108 412.186 39.1134 411.374 39.6155 410.358C39.8265 409.931 39.9714 409.449 39.8805 408.981C39.7804 408.46 39.3722 408.01 38.8639 407.859C38.354 407.708 37.7671 407.864 37.399 408.248" fill="#92D230"/>
<path d="M529.319 298.137L529.317 298.144C529.595 305.948 528.729 313.913 526.596 321.892C513.13 372.245 454.51 403.723 395.66 392.202C336.807 380.681 300.01 330.523 313.476 280.171C315.625 272.134 319.411 264.85 323.674 257.882L323.73 257.724" stroke="#100F0D" stroke-opacity="0.2" stroke-width="1.33333" stroke-miterlimit="10" stroke-linecap="round" stroke-linejoin="round"/>
<path d="M323.674 257.882C325.005 252.908 372.118 257.887 428.907 269.004C485.696 280.121 530.654 293.167 529.323 298.141" stroke="#100F0D" stroke-opacity="0.2" stroke-width="1.33333" stroke-miterlimit="10" stroke-linecap="round" stroke-linejoin="round"/>
<path d="M474.598 311.576C444.23 318.742 459.397 361.136 497.813 331.212C536.231 301.288 488.662 284.489 474.598 311.576Z" fill="#EF3244" fill-opacity="0.2"/>
<path d="M456.279 310.297L474.589 314.054C477.257 313.239 479.03 310.778 479.03 310.778L472.26 295.25L467.179 297.156L475.608 310.003L460.679 297.992L455.816 303.195L474.277 311.417L458.492 306.119L456.279 310.297Z" fill="#92D230" fill-opacity="0.2"/>
<path d="M471.958 316.773C475.948 316.045 479.616 314.083 482.13 311.332" stroke="#100F0D" stroke-opacity="0.2" stroke-width="0.666667" stroke-miterlimit="10" stroke-linecap="round" stroke-linejoin="round"/>
<path d="M435.581 211.949C440.856 194.085 406.282 187.485 414.1 217.126C421.919 246.768 449.651 228.247 435.581 211.949Z" fill="#EF3244" fill-opacity="0.2"/>
<path d="M442.655 203.062L433.862 211.108C433.528 212.74 434.638 214.472 434.638 214.472L447.712 216.272L448.104 213.044L436.333 212.993L449.717 209.457L447.744 205.227L435.799 211.839L444.81 205.6L442.655 203.062Z" fill="#92D230" fill-opacity="0.2"/>
<path d="M432.861 208.851C432.021 211.127 432.145 213.654 433.207 215.861" stroke="#100F0D" stroke-opacity="0.2" stroke-width="0.666667" stroke-miterlimit="10" stroke-linecap="round" stroke-linejoin="round"/>
<path d="M358.246 315.934C336.971 313.087 332.477 343.151 366.252 333.756C400.028 324.363 375.918 302.445 358.246 315.934Z" fill="#EF3244" fill-opacity="0.2"/>
<path d="M347.253 310.727L357.427 317.475C359.356 317.61 361.27 316.504 361.27 316.504L362.16 305.2L358.368 305.164L359.392 315.196L354.043 304.119L349.303 306.191L358.1 315.757L350.007 308.657L347.253 310.727Z" fill="#92D230" fill-opacity="0.2"/>
<path d="M354.892 318.536C357.62 319.043 360.549 318.704 363.021 317.595" stroke="#100F0D" stroke-opacity="0.2" stroke-width="0.666667" stroke-miterlimit="10" stroke-linecap="round" stroke-linejoin="round"/>
<path d="M334.82 199.609C340.003 205.701 399.678 219.361 406.484 210.438C410.849 204.718 364.582 169.791 351.33 169.393C343.427 169.157 328.597 192.296 334.82 199.609Z" fill="#F68A11" fill-opacity="0.2"/>
<path d="M345.122 206.454L356.573 186.981" stroke="#100F0D" stroke-opacity="0.2" stroke-width="0.666667" stroke-miterlimit="10" stroke-linecap="round" stroke-linejoin="round"/>
<path d="M374.427 178.775L362.584 196.164" stroke="#100F0D" stroke-opacity="0.2" stroke-width="0.666667" stroke-miterlimit="10" stroke-linecap="round" stroke-linejoin="round"/>
<path d="M371.271 212.99L377.719 197.809" stroke="#100F0D" stroke-opacity="0.2" stroke-width="0.666667" stroke-miterlimit="10" stroke-linecap="round" stroke-linejoin="round"/>
<path d="M397.472 192.003L391.785 203.978" stroke="#100F0D" stroke-opacity="0.2" stroke-width="0.666667" stroke-miterlimit="10" stroke-linecap="round" stroke-linejoin="round"/>
<path d="M337.384 184.353L315.289 187.748C313.288 184.92 315.457 179.002 315.457 179.002L337.446 182.603L337.384 184.353Z" fill="#92D230" fill-opacity="0.2"/>
<path d="M309.071 179.453L338.851 185.615C341.026 183.572 342.663 180.091 342.663 180.091L328.483 164.269C324.877 165.224 322.507 168.988 322.507 168.988L338.387 181.403L311.749 170.168C308.061 175.227 309.071 179.453 309.071 179.453Z" fill="#4F9834" fill-opacity="0.2"/>
<path d="M411.355 322.156C394.941 318.942 363.721 360.509 399.24 367.462C434.756 374.416 427.768 325.37 411.355 322.156Z" fill="#92D230" fill-opacity="0.2"/>
<path d="M410.478 340.988C409.124 340.369 407.521 339.992 405.66 339.934C391.405 339.49 385.504 354.677 395.031 361.408" stroke="#100F0D" stroke-opacity="0.2" stroke-width="0.666667" stroke-miterlimit="10" stroke-linecap="round" stroke-linejoin="round"/>
<path d="M405.207 342.328C391.973 341.915 387.751 358.366 401.401 361.489C415.051 364.61 418.863 342.754 405.207 342.328Z" fill="#F25B19" fill-opacity="0.2"/>
<path d="M409.84 322.471C411.029 317.417 409.015 312.903 409.015 312.903C411.029 310.847 415.005 312.768 415.005 312.768C415.313 316.112 412.467 322.986 412.467 322.986C411.419 323.253 409.84 322.471 409.84 322.471Z" fill="#F25B19" fill-opacity="0.2"/>
<path d="M407.611 322.728C408.919 323.64 410.652 324.096 412.335 323.967" stroke="#100F0D" stroke-opacity="0.2" stroke-width="0.666667" stroke-miterlimit="10" stroke-linecap="round" stroke-linejoin="round"/>
<path d="M447.644 278.212C447.226 282.793 440.534 291.85 440.534 291.85C444.304 295.007 450.463 295.274 450.463 295.274L452.309 288.379C454.232 292.408 455.346 297.514 455.346 297.514C459.831 297.355 463.223 294.81 463.223 294.81C462.993 287.903 455.296 278.055 455.296 278.055C450.764 279.486 447.644 278.212 447.644 278.212Z" fill="#F68A11" fill-opacity="0.2"/>
<path d="M423.584 242.499C411.201 240.594 405.825 260.429 419.283 262.463C432.565 264.472 445.943 268.819 447.742 278.699C447.936 280.243 454.992 280.931 455.186 279.341C455.78 274.492 456.899 247.627 423.584 242.499Z" fill="#F25B19" fill-opacity="0.2"/>
<path d="M438.563 246.028C437.104 253.642 431.769 260.652 424.222 264.874" stroke="#100F0D" stroke-opacity="0.2" stroke-width="0.666667" stroke-miterlimit="10" stroke-linecap="round" stroke-linejoin="round"/>
<path d="M432.623 267.028C437.66 265.542 441.996 262.385 444.518 258.368" stroke="#100F0D" stroke-opacity="0.2" stroke-width="0.666667" stroke-miterlimit="10" stroke-linecap="round" stroke-linejoin="round"/>
<path d="M454.49 257.96C452.863 261.9 449.713 265.367 445.651 267.686" stroke="#100F0D" stroke-opacity="0.2" stroke-width="0.666667" stroke-miterlimit="10" stroke-linecap="round" stroke-linejoin="round"/>
<path d="M442.441 275.617C447.272 274.524 451.604 271.889 454.398 268.345" stroke="#100F0D" stroke-opacity="0.2" stroke-width="0.666667" stroke-miterlimit="10" stroke-linecap="round" stroke-linejoin="round"/>
<path d="M424.67 161.266C420.68 163.04 414.711 170.416 414.711 170.416C410.632 168.96 408.377 164.986 408.377 164.986L413.986 161.514C409.726 161.565 404.763 162.498 404.763 162.498C403.438 159.49 404.621 156.42 404.621 156.42C410.918 154.312 422.309 156.167 422.309 156.167C422.501 159.625 424.67 161.266 424.67 161.266Z" fill="#F68A11" fill-opacity="0.2"/>
<path d="M464.714 165.448C470.483 172.994 454.37 183.028 448.134 174.816C441.981 166.714 433.69 159.314 424.2 161.358C422.745 161.736 419.816 157.309 421.186 156.66C425.361 154.682 449.197 145.155 464.714 165.448Z" fill="#F25B19" fill-opacity="0.2"/>
<path d="M456.635 156.725C450.253 160.178 445.683 165.99 444.346 172.347" stroke="#100F0D" stroke-opacity="0.2" stroke-width="0.666667" stroke-miterlimit="10" stroke-linecap="round" stroke-linejoin="round"/>
<path d="M439.659 167.512C439.351 163.704 440.776 159.812 443.57 156.836" stroke="#100F0D" stroke-opacity="0.2" stroke-width="0.666667" stroke-miterlimit="10" stroke-linecap="round" stroke-linejoin="round"/>
<path d="M440.676 150.126C437.658 152.487 435.565 155.699 434.807 159.136" stroke="#100F0D" stroke-opacity="0.2" stroke-width="0.666667" stroke-miterlimit="10" stroke-linecap="round" stroke-linejoin="round"/>
<path d="M428.711 163.848C428.114 160.303 429.071 156.584 431.35 153.583" stroke="#100F0D" stroke-opacity="0.2" stroke-width="0.666667" stroke-miterlimit="10" stroke-linecap="round" stroke-linejoin="round"/>
<path d="M446.141 343.935C448.969 344.861 455.979 344.135 455.979 344.135C456.945 346.543 455.614 349.291 455.614 349.291L451.064 348.426C452.999 350.239 455.766 351.96 455.766 351.96C454.588 353.876 452.252 354.739 452.252 354.739C448.198 352.969 444.198 347.231 444.198 347.231C446.145 345.603 446.141 343.935 446.141 343.935Z" fill="#F68A11" fill-opacity="0.2"/>
<path d="M430.702 324.815C432.563 318.958 445.671 321.413 443.625 327.77C441.61 334.042 440.962 340.922 446.407 344.096C447.279 344.553 445.983 347.796 444.988 347.495C441.958 346.581 425.697 340.572 430.702 324.815Z" fill="#F25B19" fill-opacity="0.2"/>
<path d="M429.181 332.196C434.066 333.4 439.527 332.772 443.868 330.505" stroke="#100F0D" stroke-opacity="0.2" stroke-width="0.666667" stroke-miterlimit="10" stroke-linecap="round" stroke-linejoin="round"/>
<path d="M443.117 334.686C441.014 336.521 438.086 337.646 435.087 337.775" stroke="#100F0D" stroke-opacity="0.2" stroke-width="0.666667" stroke-miterlimit="10" stroke-linecap="round" stroke-linejoin="round"/>
<path d="M432.431 342.021C435.171 342.266 437.994 341.73 440.358 340.521" stroke="#100F0D" stroke-opacity="0.2" stroke-width="0.666667" stroke-miterlimit="10" stroke-linecap="round" stroke-linejoin="round"/>
<path d="M445.855 341.041C444.036 342.882 441.42 344.132 438.635 344.492" stroke="#100F0D" stroke-opacity="0.2" stroke-width="0.666667" stroke-miterlimit="10" stroke-linecap="round" stroke-linejoin="round"/>
<path d="M362.184 223.188C366.781 223.643 371.171 225.783 374.541 229.062C379.346 233.738 381.862 239.808 386.148 244.878C390.685 250.245 396.722 253.512 402.928 257.283C408.953 260.943 413.414 265.975 413.386 272.665C413.36 278.457 410.172 284.096 405.707 288.479C398.483 295.569 387.811 300.091 376.993 299.745C359.749 299.192 345.787 287.318 339.179 274.567C334.362 265.273 334.006 254.382 337.526 244.431C339.793 238.022 343.501 230.99 349.747 226.538C353.655 223.753 358.006 222.773 362.184 223.188Z" fill="#EF3244" fill-opacity="0.2"/>
<path d="M362.348 227.846C366.141 228.221 369.763 229.988 372.544 232.693C376.511 236.551 378.586 241.561 382.124 245.746C385.866 250.175 390.849 252.87 395.97 255.981C400.943 259.001 404.623 263.154 404.599 268.675C404.579 273.454 401.947 278.108 398.263 281.724C392.302 287.575 383.497 291.307 374.568 291.021C360.339 290.564 348.817 280.767 343.363 270.245C339.389 262.575 339.095 253.587 342.001 245.376C343.872 240.087 346.931 234.286 352.086 230.611C355.31 228.314 358.9 227.504 362.348 227.846Z" fill="#F25B19" fill-opacity="0.2"/>
<path d="M382.824 278.82C386.739 281.784 392.72 281.474 396.184 278.125C399.65 274.778 399.286 269.66 395.374 266.694C391.459 263.731 385.478 264.041 382.014 267.39C378.548 270.737 378.912 275.855 382.824 278.82Z" fill="#FDFEF3" fill-opacity="0.2"/>
<path d="M380.563 279.127C385.66 282.988 393.452 282.584 397.965 278.223C402.48 273.86 402.007 267.194 396.908 263.332C391.811 259.471 384.019 259.875 379.506 264.236C374.992 268.598 375.466 275.264 380.563 279.127Z" stroke="#100F0D" stroke-opacity="0.2" stroke-width="0.666667" stroke-miterlimit="10" stroke-linecap="round" stroke-linejoin="round"/>
<path d="M483.059 264.95C483.059 264.95 469.849 245.828 475.904 241.215C481.96 236.604 490.291 247.086 490.291 247.086C490.291 247.086 487.747 223.484 493.323 220.674C498.896 217.864 504.509 238.842 504.509 238.842C504.509 238.842 519.964 223.34 524.887 227.228C529.808 231.118 512.83 259.525 512.83 259.525C512.83 259.525 522.019 251.723 525.741 254.851C529.464 257.981 511.013 272.223 511.013 272.223L483.059 264.95Z" fill="#4F9834" fill-opacity="0.2"/>
<path d="M524.941 264.075C522.837 260.135 513.974 262.676 513.974 262.676C513.974 262.676 530.774 242.26 526.522 238.926C522.269 235.592 513.872 242.951 513.872 242.951C513.872 242.951 524.965 210.214 514.925 208.85C504.885 207.485 496.35 237.221 496.35 237.221C496.35 237.221 490.675 231.1 486.386 233.385C481.537 235.969 487.335 257.161 487.335 257.161C487.335 257.161 480.403 251.603 476.394 254.57C471.516 258.185 476.497 272.442 489.98 283.984L499.83 285.912C499.83 285.912 527.702 269.249 524.941 264.075Z" fill="#92D230" fill-opacity="0.2"/>
<path d="M515.901 266.629C514.481 263.969 508.493 265.684 508.493 265.684C508.493 265.684 519.844 251.891 516.97 249.639C514.098 247.386 508.423 252.358 508.423 252.358C508.423 252.358 515.917 230.24 509.136 229.317C502.352 228.394 496.584 248.485 496.584 248.485C496.584 248.485 492.752 244.35 489.852 245.895C486.576 247.641 490.493 261.958 490.493 261.958C490.493 261.958 485.81 258.204 483.102 260.209C479.804 262.65 483.17 272.283 492.282 280.082L498.936 281.385C498.936 281.385 517.769 270.126 515.901 266.629Z" stroke="#100F0D" stroke-opacity="0.2" stroke-width="0.666667" stroke-miterlimit="10" stroke-linecap="round" stroke-linejoin="round"/>
<path d="M503.71 248.821C503.742 248.829 503.772 248.836 503.804 248.845C504.819 249.105 505.455 249.963 505.313 250.86L498.948 291.559C498.818 292.383 498.063 293.05 497.099 293.146C493.891 293.466 490.915 292.355 489.222 291.538C488.355 291.117 487.933 290.247 488.201 289.426L501.057 250.107C501.377 249.127 502.568 248.537 503.71 248.821Z" fill="#FEEFC3" fill-opacity="0.2"/>
<path d="M466.569 227.651L471.988 218.725L469.383 217.582L461.824 224.992C455.647 221.28 453.003 230.274 461.8 228.702C464.636 236.885 471.268 232.425 466.569 227.651Z" fill="#FEEFC3" fill-opacity="0.2"/>
<path d="M501.779 184.6C471.48 167.608 472.122 208.481 472.122 208.481C472.122 208.481 458.334 211.937 470.133 218.808C484.011 226.891 481.794 214.041 481.794 214.041C481.794 214.041 529.572 200.186 501.779 184.6Z" fill="#F25B19" fill-opacity="0.2"/>
<path d="M482.69 185.334C481.852 184.848 481.063 186.413 481.638 186.902C482.21 187.392 483.675 185.904 482.69 185.334Z" stroke="#100F0D" stroke-opacity="0.2" stroke-width="0.666667" stroke-miterlimit="10" stroke-linecap="round" stroke-linejoin="round"/>
<path d="M480.399 187.973C479.869 187.666 479.368 188.658 479.733 188.967C480.097 189.277 481.023 188.336 480.399 187.973Z" stroke="#100F0D" stroke-opacity="0.2" stroke-width="0.666667" stroke-miterlimit="10" stroke-linecap="round" stroke-linejoin="round"/>
<path d="M485.994 185.731C484.863 185.077 483.803 187.187 484.575 187.846C485.35 188.505 487.321 186.5 485.994 185.731Z" stroke="#100F0D" stroke-opacity="0.2" stroke-width="0.666667" stroke-miterlimit="10" stroke-linecap="round" stroke-linejoin="round"/>
<path d="M483.579 188.402C482.352 187.692 481.199 189.983 482.038 190.698C482.878 191.414 485.022 189.238 483.579 188.402Z" stroke="#100F0D" stroke-opacity="0.2" stroke-width="0.666667" stroke-miterlimit="10" stroke-linecap="round" stroke-linejoin="round"/>
<path d="M529.323 298.141C527.993 303.116 480.877 298.137 424.09 287.02C367.301 275.903 322.343 262.857 323.674 257.882" stroke="#100F0D" stroke-opacity="0.2" stroke-width="1.33333" stroke-miterlimit="10" stroke-linecap="round" stroke-linejoin="round"/>
<path d="M317.51 220.006L315.361 220.035L317.282 220.859C320.514 222.247 322.575 225.059 322.631 228.153L322.665 229.992L323.628 228.348C325.251 225.583 328.536 223.819 332.153 223.771L334.302 223.742L332.381 222.917C329.149 221.528 327.088 218.719 327.032 215.625L326.998 213.786L326.033 215.429C324.41 218.195 321.126 219.958 317.51 220.006Z" fill="#FBC815" fill-opacity="0.2"/>
<path d="M296.11 234.873L293 234.914L295.78 236.109C300.46 238.119 303.444 242.189 303.526 246.668L303.574 249.331L304.971 246.953C307.32 242.948 312.077 240.393 317.312 240.325L320.424 240.284L317.642 239.089C312.964 237.078 309.978 233.009 309.896 228.528L309.848 225.867L308.453 228.245C306.104 232.25 301.347 234.805 296.11 234.873Z" fill="#FBC815" fill-opacity="0.2"/>
<path d="M302.151 209.334L300.648 209.353L301.991 209.931C304.255 210.902 305.695 212.87 305.735 215.036L305.759 216.321L306.434 215.171C307.568 213.236 309.868 212.002 312.399 211.969L313.902 211.948L312.559 211.371C310.296 210.399 308.853 208.432 308.815 206.267L308.791 204.98L308.117 206.13C306.98 208.065 304.683 209.3 302.151 209.334Z" fill="#FBC815" fill-opacity="0.2"/>
<path d="M548.965 285.798L551 285.77L549.181 284.989C546.123 283.676 544.17 281.015 544.118 278.088L544.086 276.346L543.173 277.903C541.639 280.519 538.529 282.188 535.107 282.234L533.073 282.262L534.891 283.043C537.948 284.356 539.901 287.017 539.954 289.945L539.986 291.684L540.898 290.129C542.433 287.513 545.543 285.842 548.965 285.798Z" fill="#FBC815" fill-opacity="0.2"/>
<path d="M487.477 158.209L489.51 158.182L487.693 157.401C484.635 156.086 482.684 153.427 482.63 150.498L482.598 148.758L481.686 150.313C480.151 152.931 477.041 154.6 473.619 154.646L471.586 154.672L473.403 155.453C476.461 156.768 478.414 159.429 478.466 162.356L478.498 164.096L479.41 162.541C480.945 159.923 484.055 158.254 487.477 158.209Z" fill="#FBC815" fill-opacity="0.2"/>
<path d="M466.797 138.019L468.832 137.992L467.013 137.211C463.955 135.898 462.004 133.237 461.95 130.309L461.918 128.569L461.006 130.124C459.471 132.742 456.361 134.411 452.939 134.456L450.906 134.483L452.723 135.264C455.781 136.577 457.734 139.238 457.786 142.166L457.818 143.907L458.73 142.351C460.265 139.735 463.375 138.065 466.797 138.019Z" fill="#FBC815" fill-opacity="0.2"/>
</svg>
