<svg width="258" height="268" viewBox="0 0 258 268" fill="none" xmlns="http://www.w3.org/2000/svg">
<path d="M236.319 170.137L236.317 170.144C236.595 177.948 235.729 185.913 233.596 193.892C220.13 244.245 161.51 275.723 102.66 264.202C43.8074 252.681 7.01004 202.523 20.4759 152.171C22.6251 144.134 26.4113 136.85 30.6738 129.882L30.7298 129.724" stroke="#100F0D" stroke-opacity="0.2" stroke-width="1.33333" stroke-miterlimit="10" stroke-linecap="round" stroke-linejoin="round"/>
<path d="M30.6738 129.882C32.0046 124.908 79.118 129.887 135.907 141.004C192.696 152.121 237.654 165.167 236.323 170.141" stroke="#100F0D" stroke-opacity="0.2" stroke-width="1.33333" stroke-miterlimit="10" stroke-linecap="round" stroke-linejoin="round"/>
<path d="M181.598 183.576C151.23 190.742 166.397 233.136 204.813 203.212C243.231 173.288 195.662 156.489 181.598 183.576Z" fill="#EF3244" fill-opacity="0.2"/>
<path d="M163.279 182.297L181.589 186.054C184.257 185.239 186.03 182.778 186.03 182.778L179.26 167.25L174.179 169.156L182.608 182.003L167.679 169.992L162.816 175.195L181.277 183.417L165.492 178.119L163.279 182.297Z" fill="#92D230" fill-opacity="0.2"/>
<path d="M178.958 188.773C182.948 188.045 186.616 186.083 189.13 183.332" stroke="#100F0D" stroke-opacity="0.2" stroke-width="0.666667" stroke-miterlimit="10" stroke-linecap="round" stroke-linejoin="round"/>
<path d="M142.581 83.9485C147.856 66.0851 113.282 59.4846 121.1 89.1262C128.919 118.768 156.651 100.247 142.581 83.9485Z" fill="#EF3244" fill-opacity="0.2"/>
<path d="M149.655 75.0624L140.862 83.108C140.528 84.7397 141.638 86.4724 141.638 86.4724L154.712 88.272L155.104 85.0445L143.333 84.9931L156.717 81.4574L154.744 77.2266L142.799 83.8391L151.81 77.5998L149.655 75.0624Z" fill="#92D230" fill-opacity="0.2"/>
<path d="M139.861 80.8511C139.021 83.1266 139.145 85.6538 140.207 87.8608" stroke="#100F0D" stroke-opacity="0.2" stroke-width="0.666667" stroke-miterlimit="10" stroke-linecap="round" stroke-linejoin="round"/>
<path d="M65.2457 187.934C43.9714 185.087 39.4768 215.151 73.2524 205.756C107.028 196.363 82.918 174.445 65.2457 187.934Z" fill="#EF3244" fill-opacity="0.2"/>
<path d="M54.2534 182.727L64.4273 189.475C66.3564 189.61 68.2695 188.504 68.2695 188.504L69.1601 177.2L65.3678 177.164L66.3925 187.196L61.0434 176.119L56.3026 178.191L65.0997 187.757L57.007 180.657L54.2534 182.727Z" fill="#92D230" fill-opacity="0.2"/>
<path d="M61.8921 190.536C64.6197 191.043 67.5494 190.704 70.0208 189.595" stroke="#100F0D" stroke-opacity="0.2" stroke-width="0.666667" stroke-miterlimit="10" stroke-linecap="round" stroke-linejoin="round"/>
<path d="M41.8203 71.6087C47.0034 77.7007 106.678 91.3606 113.484 82.4383C117.849 76.7179 71.5817 41.7907 58.3299 41.3935C50.4274 41.1572 35.5967 64.2959 41.8203 71.6087Z" fill="#F68A11" fill-opacity="0.2"/>
<path d="M52.1223 78.4541L63.573 58.9813" stroke="#100F0D" stroke-opacity="0.2" stroke-width="0.666667" stroke-miterlimit="10" stroke-linecap="round" stroke-linejoin="round"/>
<path d="M81.4273 50.7746L69.5845 68.1637" stroke="#100F0D" stroke-opacity="0.2" stroke-width="0.666667" stroke-miterlimit="10" stroke-linecap="round" stroke-linejoin="round"/>
<path d="M78.2715 84.9896L84.7193 69.8092" stroke="#100F0D" stroke-opacity="0.2" stroke-width="0.666667" stroke-miterlimit="10" stroke-linecap="round" stroke-linejoin="round"/>
<path d="M104.473 64.003L98.7854 75.9781" stroke="#100F0D" stroke-opacity="0.2" stroke-width="0.666667" stroke-miterlimit="10" stroke-linecap="round" stroke-linejoin="round"/>
<path d="M44.3839 56.3529L22.289 59.7482C20.2878 56.9196 22.4571 51.0023 22.4571 51.0023L44.4459 54.603L44.3839 56.3529Z" fill="#92D230" fill-opacity="0.2"/>
<path d="M16.0715 51.4528L45.8508 57.615C48.0261 55.5723 49.663 52.0914 49.663 52.0914L35.4828 36.269C31.8767 37.2244 29.5073 40.9878 29.5073 40.9878L45.3865 53.403L18.749 42.1675C15.0609 47.2271 16.0715 51.4528 16.0715 51.4528Z" fill="#4F9834" fill-opacity="0.2"/>
<path d="M118.355 194.156C101.941 190.942 70.7209 232.509 106.24 239.462C141.756 246.416 134.768 197.37 118.355 194.156Z" fill="#92D230" fill-opacity="0.2"/>
<path d="M117.478 212.988C116.124 212.369 114.521 211.992 112.66 211.934C98.4053 211.49 92.5039 226.677 102.031 233.408" stroke="#100F0D" stroke-opacity="0.2" stroke-width="0.666667" stroke-miterlimit="10" stroke-linecap="round" stroke-linejoin="round"/>
<path d="M112.207 214.328C98.9735 213.915 94.751 230.366 108.401 233.489C122.051 236.61 125.863 214.754 112.207 214.328Z" fill="#F25B19" fill-opacity="0.2"/>
<path d="M116.84 194.471C118.029 189.417 116.015 184.903 116.015 184.903C118.029 182.847 122.005 184.768 122.005 184.768C122.313 188.112 119.467 194.986 119.467 194.986C118.419 195.253 116.84 194.471 116.84 194.471Z" fill="#F25B19" fill-opacity="0.2"/>
<path d="M114.611 194.728C115.919 195.64 117.652 196.096 119.335 195.967" stroke="#100F0D" stroke-opacity="0.2" stroke-width="0.666667" stroke-miterlimit="10" stroke-linecap="round" stroke-linejoin="round"/>
<path d="M154.644 150.212C154.226 154.793 147.534 163.85 147.534 163.85C151.304 167.007 157.463 167.274 157.463 167.274L159.309 160.379C161.232 164.408 162.346 169.514 162.346 169.514C166.831 169.355 170.223 166.81 170.223 166.81C169.993 159.903 162.296 150.055 162.296 150.055C157.764 151.486 154.644 150.212 154.644 150.212Z" fill="#F68A11" fill-opacity="0.2"/>
<path d="M130.584 114.499C118.201 112.594 112.825 132.429 126.283 134.463C139.565 136.472 152.943 140.819 154.742 150.699C154.936 152.243 161.992 152.931 162.186 151.341C162.78 146.492 163.899 119.627 130.584 114.499Z" fill="#F25B19" fill-opacity="0.2"/>
<path d="M145.563 118.028C144.104 125.642 138.769 132.652 131.222 136.874" stroke="#100F0D" stroke-opacity="0.2" stroke-width="0.666667" stroke-miterlimit="10" stroke-linecap="round" stroke-linejoin="round"/>
<path d="M139.623 139.028C144.66 137.542 148.996 134.385 151.518 130.368" stroke="#100F0D" stroke-opacity="0.2" stroke-width="0.666667" stroke-miterlimit="10" stroke-linecap="round" stroke-linejoin="round"/>
<path d="M161.49 129.96C159.863 133.9 156.713 137.367 152.651 139.686" stroke="#100F0D" stroke-opacity="0.2" stroke-width="0.666667" stroke-miterlimit="10" stroke-linecap="round" stroke-linejoin="round"/>
<path d="M149.441 147.617C154.272 146.524 158.604 143.889 161.398 140.345" stroke="#100F0D" stroke-opacity="0.2" stroke-width="0.666667" stroke-miterlimit="10" stroke-linecap="round" stroke-linejoin="round"/>
<path d="M131.67 33.2657C127.68 35.0395 121.711 42.4156 121.711 42.4156C117.632 40.9603 115.377 36.9863 115.377 36.9863L120.986 33.5139C116.726 33.5653 111.763 34.4984 111.763 34.4984C110.438 31.4901 111.621 28.4201 111.621 28.4201C117.918 26.3124 129.309 28.1667 129.309 28.1667C129.501 31.6254 131.67 33.2657 131.67 33.2657Z" fill="#F68A11" fill-opacity="0.2"/>
<path d="M171.714 37.4484C177.483 44.9941 161.37 55.0276 155.134 46.8159C148.981 38.7138 140.69 31.3136 131.2 33.358C129.745 33.7364 126.816 29.3087 128.186 28.6597C132.361 26.6821 156.197 17.1554 171.714 37.4484Z" fill="#F25B19" fill-opacity="0.2"/>
<path d="M163.635 28.7249C157.253 32.1784 152.683 37.9896 151.346 44.347" stroke="#100F0D" stroke-opacity="0.2" stroke-width="0.666667" stroke-miterlimit="10" stroke-linecap="round" stroke-linejoin="round"/>
<path d="M146.659 39.512C146.351 35.704 147.776 31.8122 150.57 28.8364" stroke="#100F0D" stroke-opacity="0.2" stroke-width="0.666667" stroke-miterlimit="10" stroke-linecap="round" stroke-linejoin="round"/>
<path d="M147.676 22.126C144.658 24.4871 142.565 27.6992 141.807 31.1356" stroke="#100F0D" stroke-opacity="0.2" stroke-width="0.666667" stroke-miterlimit="10" stroke-linecap="round" stroke-linejoin="round"/>
<path d="M135.711 35.8475C135.114 32.3033 136.071 28.5844 138.35 25.5829" stroke="#100F0D" stroke-opacity="0.2" stroke-width="0.666667" stroke-miterlimit="10" stroke-linecap="round" stroke-linejoin="round"/>
<path d="M153.141 215.935C155.969 216.861 162.979 216.135 162.979 216.135C163.945 218.543 162.614 221.291 162.614 221.291L158.064 220.426C159.999 222.239 162.766 223.96 162.766 223.96C161.588 225.876 159.252 226.739 159.252 226.739C155.198 224.969 151.198 219.231 151.198 219.231C153.145 217.603 153.141 215.935 153.141 215.935Z" fill="#F68A11" fill-opacity="0.2"/>
<path d="M137.702 196.815C139.563 190.958 152.671 193.413 150.625 199.77C148.61 206.042 147.962 212.922 153.407 216.096C154.279 216.553 152.983 219.796 151.988 219.495C148.958 218.58 132.697 212.572 137.702 196.815Z" fill="#F25B19" fill-opacity="0.2"/>
<path d="M136.181 204.196C141.066 205.4 146.527 204.772 150.868 202.505" stroke="#100F0D" stroke-opacity="0.2" stroke-width="0.666667" stroke-miterlimit="10" stroke-linecap="round" stroke-linejoin="round"/>
<path d="M150.117 206.686C148.014 208.521 145.086 209.646 142.087 209.775" stroke="#100F0D" stroke-opacity="0.2" stroke-width="0.666667" stroke-miterlimit="10" stroke-linecap="round" stroke-linejoin="round"/>
<path d="M139.431 214.021C142.171 214.266 144.994 213.73 147.358 212.521" stroke="#100F0D" stroke-opacity="0.2" stroke-width="0.666667" stroke-miterlimit="10" stroke-linecap="round" stroke-linejoin="round"/>
<path d="M152.855 213.041C151.036 214.882 148.42 216.132 145.635 216.492" stroke="#100F0D" stroke-opacity="0.2" stroke-width="0.666667" stroke-miterlimit="10" stroke-linecap="round" stroke-linejoin="round"/>
<path d="M69.1841 95.1876C73.7808 95.643 78.1713 97.7832 81.5413 101.062C86.3461 105.738 88.8616 111.808 93.148 116.878C97.6847 122.245 103.722 125.512 109.928 129.283C115.953 132.943 120.414 137.975 120.386 144.665C120.36 150.457 117.172 156.096 112.707 160.479C105.483 167.569 94.811 172.091 83.9927 171.745C66.7487 171.192 52.7866 159.318 46.1787 146.567C41.3619 137.273 41.0057 126.382 44.5258 116.431C46.7931 110.022 50.5013 102.99 56.7469 98.5383C60.6552 95.7526 65.0057 94.7732 69.1841 95.1876Z" fill="#EF3244" fill-opacity="0.2"/>
<path d="M69.3484 99.8463C73.1406 100.221 76.7627 101.988 79.5443 104.693C83.5106 108.551 85.5859 113.561 89.1239 117.746C92.8661 122.175 97.849 124.87 102.97 127.981C107.943 131.001 111.623 135.154 111.599 140.675C111.579 145.454 108.947 150.108 105.263 153.724C99.3018 159.575 90.4967 163.307 81.5675 163.021C67.3392 162.564 55.8165 152.767 50.3633 142.245C46.389 134.575 46.0949 125.587 49.0006 117.376C50.8717 112.087 53.9314 106.286 59.0864 102.611C62.3103 100.314 65.9004 99.5038 69.3484 99.8463Z" fill="#F25B19" fill-opacity="0.2"/>
<path d="M89.8244 150.82C93.7387 153.784 99.7201 153.474 103.184 150.125C106.65 146.778 106.286 141.66 102.374 138.694C98.4594 135.731 92.4779 136.041 89.0139 139.39C85.5479 142.737 85.9121 147.855 89.8244 150.82Z" fill="#FDFEF3" fill-opacity="0.2"/>
<path d="M87.563 151.127C92.6599 154.988 100.452 154.583 104.965 150.222C109.48 145.86 109.007 139.194 103.908 135.331C98.8115 131.47 91.019 131.875 86.5063 136.236C81.9917 140.598 82.466 147.264 87.563 151.127Z" stroke="#100F0D" stroke-opacity="0.2" stroke-width="0.666667" stroke-miterlimit="10" stroke-linecap="round" stroke-linejoin="round"/>
<path d="M190.059 136.95C190.059 136.95 176.849 117.828 182.904 113.215C188.96 108.604 197.291 119.086 197.291 119.086C197.291 119.086 194.747 95.4837 200.323 92.6739C205.896 89.8642 211.509 110.842 211.509 110.842C211.509 110.842 226.964 95.3398 231.887 99.2282C236.808 103.118 219.83 131.525 219.83 131.525C219.83 131.525 229.019 123.723 232.741 126.851C236.464 129.981 218.013 144.223 218.013 144.223L190.059 136.95Z" fill="#4F9834" fill-opacity="0.2"/>
<path d="M231.941 136.075C229.837 132.135 220.974 134.676 220.974 134.676C220.974 134.676 237.774 114.26 233.522 110.926C229.269 107.592 220.872 114.951 220.872 114.951C220.872 114.951 231.965 82.2142 221.925 80.8495C211.885 79.4849 203.35 109.221 203.35 109.221C203.35 109.221 197.675 103.1 193.386 105.385C188.537 107.969 194.335 129.161 194.335 129.161C194.335 129.161 187.403 123.603 183.394 126.57C178.516 130.185 183.497 144.442 196.98 155.984L206.83 157.912C206.83 157.912 234.702 141.249 231.941 136.075Z" fill="#92D230" fill-opacity="0.2"/>
<path d="M222.901 138.629C221.481 135.969 215.493 137.684 215.493 137.684C215.493 137.684 226.844 123.891 223.97 121.639C221.098 119.386 215.423 124.358 215.423 124.358C215.423 124.358 222.917 102.24 216.136 101.317C209.352 100.394 203.584 120.485 203.584 120.485C203.584 120.485 199.752 116.35 196.852 117.895C193.576 119.641 197.493 133.958 197.493 133.958C197.493 133.958 192.81 130.204 190.102 132.209C186.804 134.65 190.17 144.283 199.282 152.082L205.936 153.385C205.936 153.385 224.769 142.126 222.901 138.629Z" stroke="#100F0D" stroke-opacity="0.2" stroke-width="0.666667" stroke-miterlimit="10" stroke-linecap="round" stroke-linejoin="round"/>
<path d="M210.71 120.821C210.742 120.83 210.772 120.836 210.804 120.845C211.819 121.105 212.455 121.963 212.313 122.86L205.948 163.559C205.818 164.383 205.063 165.05 204.099 165.146C200.891 165.467 197.915 164.355 196.222 163.539C195.355 163.117 194.933 162.248 195.201 161.426L208.057 122.107C208.377 121.127 209.568 120.537 210.71 120.821Z" fill="#FEEFC3" fill-opacity="0.2"/>
<path d="M173.569 99.6511L178.988 90.7254L176.382 89.5816L168.824 96.992C162.646 93.28 160.003 102.274 168.8 100.702C171.636 108.885 178.268 104.425 173.569 99.6511Z" fill="#FEEFC3" fill-opacity="0.2"/>
<path d="M208.779 56.5996C178.48 39.6078 179.122 80.4814 179.122 80.4814C179.122 80.4814 165.334 83.9366 177.133 90.8077C191.011 98.891 188.794 86.0409 188.794 86.0409C188.794 86.0409 236.572 72.1858 208.779 56.5996Z" fill="#F25B19" fill-opacity="0.2"/>
<path d="M189.69 57.334C188.852 56.8478 188.063 58.4127 188.638 58.9024C189.21 59.3921 190.675 57.9042 189.69 57.334Z" stroke="#100F0D" stroke-opacity="0.2" stroke-width="0.666667" stroke-miterlimit="10" stroke-linecap="round" stroke-linejoin="round"/>
<path d="M187.399 59.9727C186.869 59.6662 186.368 60.6575 186.733 60.9674C187.097 61.2774 188.023 60.3356 187.399 59.9727Z" stroke="#100F0D" stroke-opacity="0.2" stroke-width="0.666667" stroke-miterlimit="10" stroke-linecap="round" stroke-linejoin="round"/>
<path d="M192.994 57.7314C191.863 57.0774 190.803 59.1868 191.575 59.846C192.35 60.5052 194.321 58.5002 192.994 57.7314Z" stroke="#100F0D" stroke-opacity="0.2" stroke-width="0.666667" stroke-miterlimit="10" stroke-linecap="round" stroke-linejoin="round"/>
<path d="M190.579 60.4024C189.352 59.6918 188.199 61.9828 189.038 62.6985C189.878 63.4142 192.022 61.238 190.579 60.4024Z" stroke="#100F0D" stroke-opacity="0.2" stroke-width="0.666667" stroke-miterlimit="10" stroke-linecap="round" stroke-linejoin="round"/>
<path d="M236.323 170.141C234.993 175.116 187.877 170.137 131.09 159.02C74.3012 147.903 29.343 134.857 30.6738 129.882" stroke="#100F0D" stroke-opacity="0.2" stroke-width="1.33333" stroke-miterlimit="10" stroke-linecap="round" stroke-linejoin="round"/>
<path d="M24.5101 92.0061L22.3608 92.0352L24.282 92.8588C27.5139 94.2474 29.5751 97.0589 29.6311 100.153L29.6651 101.992L30.6277 100.348C32.2506 97.5828 35.5365 95.8192 39.1526 95.7713L41.3018 95.7422L39.3807 94.9169C36.1489 93.5283 34.0877 90.7186 34.0316 87.6246L33.9976 85.7857L33.0331 87.4294C31.4101 90.1946 28.1262 91.9582 24.5101 92.0061Z" fill="#FBC815" fill-opacity="0.2"/>
<path d="M3.10982 106.873L0 106.914L2.77959 108.109C7.46032 110.119 10.4441 114.189 10.5261 118.668L10.5742 121.331L11.971 118.953C14.3203 114.948 19.0771 112.393 24.3121 112.325L27.424 112.284L24.6423 111.089C19.9636 109.078 16.9779 105.009 16.8958 100.528L16.8478 97.8669L15.453 100.245C13.1036 104.25 8.34686 106.805 3.10982 106.873Z" fill="#FBC815" fill-opacity="0.2"/>
<path d="M9.15131 81.3339L7.64844 81.3528L8.99121 81.9315C11.2545 82.9023 12.6954 84.8696 12.7354 87.0355L12.7594 88.3214L13.4338 87.1708C14.5684 85.236 16.8678 84.0015 19.3993 83.969L20.9021 83.9484L19.5594 83.3715C17.296 82.3989 15.8532 80.4316 15.8152 78.2674L15.7912 76.9798L15.1168 78.1304C13.9801 80.0652 11.6828 81.2997 9.15131 81.3339Z" fill="#FBC815" fill-opacity="0.2"/>
<path d="M255.965 157.798L258 157.77L256.181 156.989C253.123 155.676 251.17 153.015 251.118 150.088L251.086 148.346L250.173 149.903C248.639 152.519 245.529 154.188 242.107 154.234L240.073 154.262L241.891 155.043C244.948 156.356 246.901 159.017 246.954 161.945L246.986 163.684L247.898 162.129C249.433 159.513 252.543 157.842 255.965 157.798Z" fill="#FBC815" fill-opacity="0.2"/>
<path d="M194.477 30.2094L196.51 30.182L194.693 29.4012C191.635 28.0863 189.684 25.4272 189.63 22.4977L189.598 20.758L188.686 22.3127C187.151 24.9307 184.041 26.6001 180.619 26.6463L178.586 26.672L180.403 27.4528C183.461 28.7677 185.414 31.4285 185.466 34.3564L185.498 36.0959L186.41 34.5413C187.945 31.9233 191.055 30.2539 194.477 30.2094Z" fill="#FBC815" fill-opacity="0.2"/>
<path d="M173.797 10.0191L175.832 9.99169L174.013 9.21092C170.955 7.89766 169.004 5.23689 168.95 2.30903L168.918 0.56945L168.006 2.12414C166.471 4.74209 163.361 6.41146 159.939 6.45597L157.906 6.48339L159.723 7.26417C162.781 8.57742 164.734 11.2382 164.786 14.166L164.818 15.9073L165.73 14.3509C167.265 11.7347 170.375 10.0653 173.797 10.0191Z" fill="#FBC815" fill-opacity="0.2"/>
</svg>
