<svg width="679" height="871" viewBox="0 0 679 871" fill="none" xmlns="http://www.w3.org/2000/svg">
<path d="M204.265 648.888L95.4941 599.088L112.181 562.644C118.061 549.798 133.243 544.152 146.089 550.032L208.34 578.532C221.186 584.414 226.832 599.596 220.952 612.442L204.265 648.888Z" fill="black"/>
<path d="M179 132.783L173 132.036L167 133V-1H179V132.783Z" fill="#219BCC"/>
<path d="M73.6718 351.186L99.6094 389.439L91.9313 406.211C80.428 394.43 71.5036 376.905 73.6718 351.186ZM157.191 168.243C159.192 156.967 169.992 149.424 181.265 151.426C192.539 153.427 200.083 164.227 198.082 175.503C196.081 186.777 185.279 194.32 174.006 192.319C162.732 190.318 155.19 179.515 157.191 168.243ZM651.962 555.16L238.289 365.756C241.404 347.873 238.409 329.738 229.396 313.44C217.041 291.1 194.601 274.037 168.457 266.779L178.944 207.705C195.464 207.106 209.947 195.063 212.951 178.141C216.406 158.668 203.378 140.014 183.905 136.556C164.433 133.098 145.78 146.128 142.322 165.601C139.319 182.523 148.772 198.814 164.075 205.065L151.058 278.387L158.274 279.855C183.174 284.923 204.822 300.212 216.18 320.751C221.214 329.852 225.901 343.116 224.043 359.234L174.704 336.644C151.453 325.997 123.972 336.218 113.328 359.472L100.199 388.147L72.9642 309.488L44.3139 363.199L58.6164 349.794C55.5912 384.029 69.2666 406.335 85.3639 420.554L9.21365 586.893C-1.43109 610.146 8.78748 637.625 32.0397 648.272L509.296 866.785C532.546 877.432 560.027 867.212 570.672 843.96L674.786 616.541C685.432 593.285 675.212 565.805 651.962 555.16Z" fill="#219BCC"/>
<path d="M151.466 150.14C153.472 138.901 164.3 131.382 175.604 133.377C186.909 135.374 194.472 146.138 192.465 157.379C190.457 168.618 179.629 176.137 168.325 174.142C157.022 172.147 149.459 161.381 151.466 150.14ZM223.862 294.884C211.473 272.613 188.975 255.601 162.761 248.368L173.276 189.48C189.84 188.88 204.362 176.878 207.373 160.011C210.84 140.598 197.775 121.999 178.251 118.554C158.727 115.107 140.022 128.098 136.557 147.51C133.544 164.377 143.022 180.619 158.368 186.848L145.316 259.94L152.552 261.403C177.518 266.455 199.224 281.696 210.612 302.17C217.276 314.148 223.356 333.344 214.495 356.788C207.111 376.316 190.287 394.895 169.393 404.439L168.812 421C175.16 418.729 181.373 415.719 187.345 411.988C206.305 400.137 220.981 382.416 228.668 362.085C237.168 339.6 235.461 315.733 223.862 294.884Z" fill="#040606"/>
<path d="M504.296 847.799L27.0395 629.921C3.78783 619.307 -6.43154 591.905 4.214 568.719L108.328 341.963C118.974 318.777 146.453 308.586 169.703 319.202L646.962 537.081C670.212 547.697 680.432 575.095 669.786 598.281L565.671 825.038C555.027 848.222 527.548 858.413 504.296 847.799Z" fill="#3857AF"/>
<path d="M219.762 655.577L79.1669 591.455C71.2843 587.86 67.8204 578.58 71.4277 570.728L154.432 390.131C158.041 382.28 167.356 378.828 175.239 382.423L315.834 446.545C323.717 450.139 327.18 459.42 323.571 467.27L240.567 647.868C236.96 655.72 227.645 659.172 219.762 655.577Z" fill="#F9B12C"/>
<path d="M202.996 645L100 597.752L115.801 563.172C121.37 550.986 135.745 545.629 147.908 551.209L206.856 578.249C219.018 583.829 224.365 598.232 218.795 610.42L202.996 645Z" fill="white"/>
<path d="M219.762 655.577L79.1669 591.455C71.2843 587.86 67.8204 578.58 71.4277 570.728L154.432 390.131C158.041 382.28 167.356 378.828 175.239 382.423L315.834 446.545C323.717 450.139 327.18 459.42 323.571 467.27L240.567 647.868C236.96 655.72 227.645 659.172 219.762 655.577Z" stroke="#040606" stroke-width="1.33333" stroke-miterlimit="10"/>
<path d="M173.222 571.873L170.57 570.712C164.06 567.864 161.2 560.512 164.179 554.295L176.776 528L203 539.471L190.403 565.766C187.423 571.987 179.73 574.72 173.222 571.873Z" fill="white"/>
<path d="M173.222 571.873L170.57 570.712C164.06 567.864 161.2 560.512 164.179 554.295L176.776 528L203 539.471L190.403 565.766C187.423 571.987 179.73 574.72 173.222 571.873Z" stroke="#040606" stroke-width="1.33333" stroke-miterlimit="10"/>
<path d="M122 586L112 607" stroke="#040606" stroke-width="1.33333" stroke-miterlimit="10"/>
<path d="M195 619L186 641" stroke="#040606" stroke-width="1.33333" stroke-miterlimit="10"/>
<path d="M191.601 442L181.291 464.613C174.076 461.398 165.608 464.598 162.314 471.826C159.017 479.054 162.138 487.582 169.278 490.968L164.836 500.71C156.063 519.956 164.486 542.7 183.651 551.512C202.813 560.323 225.462 551.865 234.237 532.619L261 473.909L191.601 442Z" fill="white"/>
<path d="M191.601 442L181.291 464.613C174.076 461.398 165.608 464.598 162.314 471.826C159.017 479.054 162.138 487.582 169.278 490.968L164.836 500.71C156.063 519.956 164.486 542.7 183.651 551.512C202.813 560.323 225.462 551.865 234.237 532.619L261 473.909L191.601 442Z" stroke="#040606" stroke-width="1.33333" stroke-miterlimit="10"/>
<path d="M217.878 427.091C226.622 426.308 234.916 430.716 242.395 435.283C249.873 439.852 257.585 444.871 266.339 445.515C272.943 446.002 280.753 444.317 285.286 449.114C289.185 453.242 288.185 459.821 286.592 465.256C284.262 473.213 280.927 481.348 274.386 486.486C266.067 493.021 254.09 493.255 244.087 489.756C234.086 486.253 225.595 479.555 217.313 472.973C208.786 466.197 199.041 457.477 200.076 445.415C200.823 436.708 209.03 427.882 217.878 427.091Z" fill="#040606"/>
<path d="M176.244 465.91C175.925 463.889 174.79 462.108 174.009 460.22C170.557 451.884 175.18 441.107 183.563 437.946C191.945 434.785 202.43 439.865 205.234 448.448C206.367 451.917 206.313 455.872 204.6 459.09C202.889 462.308 199.385 464.618 195.773 464.413C194.365 464.333 192.933 463.899 191.573 464.28C189.963 464.731 188.876 466.203 187.913 467.582C184.875 471.938 181.836 476.295 178.796 480.651C178.048 481.723 177.265 482.83 176.141 483.492C175.018 484.152 173.452 484.238 172.51 483.334C170.142 481.057 176.822 469.581 176.244 465.91Z" fill="#040606"/>
<path d="M197.637 488.248C196.718 489.754 194.344 490.416 192.336 489.727C190.328 489.037 189.445 487.256 190.363 485.752C191.284 484.244 193.656 483.584 195.664 484.273C197.672 484.962 198.555 486.742 197.637 488.248Z" fill="#040606"/>
<path d="M232.727 504.956C232.037 506.715 230.258 507.486 228.752 506.682C227.246 505.878 226.584 503.8 227.273 502.043C227.962 500.286 229.742 499.513 231.248 500.319C232.754 501.123 233.416 503.201 232.727 504.956Z" fill="#040606"/>
<path d="M214 495L210.649 518L200 513.05" stroke="#040606" stroke-width="1.33333" stroke-miterlimit="10"/>
<path d="M186.002 516L204 529.542C204 529.542 185.805 537.557 186.002 516Z" stroke="#040606" stroke-width="1.33333" stroke-miterlimit="10"/>
<path d="M587.431 651L344 538.819L362.565 498L606 610.181L587.431 651Z" fill="#4E6BBD"/>
<path d="M562.504 703L320 591.554L338.498 551L581 662.448L562.504 703Z" fill="#4E6BBD"/>
<path d="M585.504 644L343 533.288L361.496 493L604 603.714L585.504 644Z" fill="white"/>
<path d="M561.433 698L318 586.552L336.567 546L580 657.448L561.433 698Z" fill="white"/>
<path d="M395.272 596.622C393.434 600.386 388.686 602.041 384.67 600.318C380.655 598.593 378.889 594.142 380.728 590.38C382.566 586.614 387.314 584.959 391.331 586.682C395.345 588.407 397.111 592.858 395.272 596.622Z" fill="#040606"/>
<path d="M419.271 608.037C417.433 612.305 412.686 614.18 408.671 612.227C404.654 610.272 402.889 605.229 404.729 600.963C406.567 596.695 411.312 594.82 415.329 596.773C419.346 598.728 421.111 603.771 419.271 608.037Z" fill="#040606"/>
<path d="M445.182 619.621C443.114 623.387 437.774 625.042 433.255 623.317C428.735 621.594 426.75 617.144 428.82 613.379C430.888 609.613 436.228 607.959 440.745 609.682C445.264 611.405 447.249 615.855 445.182 619.621Z" fill="#040606"/>
<path d="M469.227 630.33C467.274 634.346 462.23 636.111 457.962 634.272C453.695 632.434 451.82 627.687 453.773 623.672C455.726 619.654 460.77 617.889 465.038 619.728C469.305 621.566 471.18 626.313 469.227 630.33Z" fill="#040606"/>
<path d="M493.317 641.33C491.594 645.345 487.144 647.111 483.379 645.272C479.613 643.434 477.959 638.686 479.682 634.67C481.405 630.655 485.855 628.889 489.621 630.728C493.387 632.566 495.042 637.314 493.317 641.33Z" fill="#040606"/>
<path d="M520.226 653.33C518.273 657.346 513.231 659.111 508.963 657.272C504.695 655.434 502.819 650.687 504.774 646.67C506.727 642.654 511.771 640.889 516.037 642.728C520.305 644.566 522.181 649.313 520.226 653.33Z" fill="#040606"/>
<path d="M474.719 745L340 684.006L355.281 651L490 711.994L474.719 745Z" fill="#4E6BBD"/>
<path d="M474.719 740L340 677.061L355.281 643L490 705.941L474.719 740Z" fill="#F9B12C"/>
<path d="M474.719 740L340 677.061L355.281 643L490 705.941L474.719 740Z" stroke="#040606" stroke-width="1.33333" stroke-miterlimit="10"/>
<path d="M389.229 679.166L393.471 669.901L394.45 670.349L390.596 678.767L395.785 681.143L395.397 681.99L389.229 679.166ZM399.523 683.959C398.853 683.652 398.317 683.225 397.916 682.679C397.528 682.128 397.301 681.517 397.234 680.846C397.172 680.166 397.298 679.482 397.613 678.794C397.933 678.097 398.368 677.554 398.919 677.166C399.47 676.778 400.079 676.555 400.746 676.498C401.413 676.44 402.086 676.567 402.765 676.878C403.454 677.193 403.994 677.622 404.386 678.164C404.787 678.711 405.016 679.317 405.074 679.984C405.14 680.655 405.014 681.339 404.695 682.036C404.379 682.724 403.944 683.267 403.389 683.663C402.847 684.056 402.236 684.283 401.556 684.345C400.88 684.399 400.203 684.27 399.523 683.959ZM399.905 683.125C400.408 683.355 400.904 683.449 401.393 683.406C401.887 683.355 402.337 683.176 402.743 682.871C403.162 682.562 403.495 682.138 403.742 681.6C403.992 681.052 404.095 680.523 404.052 680.013C404.017 679.506 403.856 679.053 403.569 678.655C403.286 678.247 402.897 677.931 402.403 677.705C401.909 677.478 401.415 677.391 400.922 677.443C400.432 677.486 399.98 677.657 399.565 677.958C399.15 678.259 398.817 678.683 398.566 679.23C398.32 679.768 398.217 680.297 398.256 680.817C398.3 681.328 398.463 681.787 398.746 682.194C399.034 682.593 399.42 682.903 399.905 683.125ZM406.778 690.386C406.143 690.096 405.577 689.724 405.079 689.272C404.581 688.82 404.231 688.339 404.026 687.83L404.83 687.333C405.023 687.774 405.32 688.187 405.719 688.573C406.124 688.972 406.595 689.294 407.134 689.54C408.016 689.944 408.759 690.034 409.364 689.809C409.965 689.593 410.463 689.053 410.859 688.188L411.653 686.454L412.33 685.324L412.783 684.09L413.746 681.985L414.647 682.398L411.853 688.499C411.304 689.699 410.606 690.442 409.76 690.727C408.919 691.025 407.925 690.912 406.778 690.386ZM407.933 687.409C407.271 687.106 406.741 686.692 406.34 686.167C405.944 685.634 405.709 685.041 405.634 684.387C405.569 683.738 405.687 683.083 405.99 682.421C406.293 681.759 406.71 681.245 407.24 680.88C407.783 680.509 408.384 680.304 409.043 680.264C409.702 680.224 410.362 680.356 411.024 680.659C411.641 680.942 412.139 681.324 412.516 681.806C412.893 682.288 413.112 682.848 413.173 683.484C413.233 684.12 413.098 684.8 412.767 685.524C412.436 686.247 412.009 686.794 411.488 687.163C410.966 687.533 410.398 687.737 409.783 687.776C409.167 687.814 408.551 687.692 407.933 687.409ZM408.408 686.618C408.919 686.852 409.422 686.954 409.916 686.924C410.414 686.885 410.865 686.729 411.268 686.454C411.675 686.171 411.994 685.778 412.224 685.275C412.455 684.772 412.542 684.278 412.486 683.794C412.431 683.31 412.253 682.871 411.952 682.477C411.656 682.075 411.252 681.756 410.741 681.522C410.238 681.292 409.733 681.194 409.226 681.229C408.732 681.259 408.283 681.411 407.88 681.685C407.486 681.964 407.174 682.354 406.943 682.857C406.713 683.36 406.619 683.856 406.662 684.346C406.718 684.83 406.894 685.273 407.19 685.676C407.499 686.073 407.905 686.387 408.408 686.618ZM414.08 690.544L417.261 683.595L418.201 684.025L415.02 690.974L414.08 690.544ZM418.441 682.278C418.247 682.189 418.114 682.048 418.042 681.855C417.97 681.662 417.977 681.473 418.062 681.287C418.147 681.102 418.283 680.978 418.472 680.915C418.665 680.843 418.859 680.852 419.053 680.941C419.247 681.03 419.382 681.166 419.458 681.35C419.534 681.534 419.529 681.719 419.444 681.904C419.355 682.099 419.214 682.231 419.022 682.303C418.837 682.379 418.644 682.37 418.441 682.278ZM424.393 686.78C424.958 687.039 425.402 687.375 425.724 687.79C426.06 688.199 426.246 688.679 426.282 689.23C426.327 689.784 426.196 690.396 425.889 691.067L424.041 695.104L423.101 694.674L424.907 690.729C425.242 689.997 425.309 689.361 425.108 688.82C424.92 688.275 424.495 687.851 423.834 687.548C423.339 687.322 422.861 687.226 422.397 687.259C421.946 687.287 421.533 687.445 421.156 687.731C420.792 688.013 420.489 688.419 420.247 688.948L418.574 692.601L417.635 692.171L420.816 685.222L421.716 685.634L420.843 687.54L420.861 687.116C421.312 686.714 421.845 686.483 422.46 686.423C423.078 686.354 423.723 686.473 424.393 686.78Z" fill="#040606"/>
<path d="M350.912 722.294L353.877 715.697L356.347 716.807C356.906 717.058 357.345 717.365 357.666 717.728C357.989 718.085 358.181 718.481 358.242 718.916C358.312 719.348 358.24 719.803 358.025 720.28C357.816 720.745 357.526 721.098 357.153 721.338C356.79 721.575 356.366 721.695 355.882 721.696C355.401 721.691 354.881 721.563 354.322 721.312L352.239 720.376L352.694 720.195L351.609 722.608L350.912 722.294ZM355.417 724.319L354.796 721.163L355.55 721.502L356.18 724.662L355.417 724.319ZM352.668 720.252L352.506 719.782L354.57 720.71C355.229 721.006 355.794 721.086 356.263 720.95C356.739 720.816 357.093 720.488 357.328 719.967C357.565 719.439 357.576 718.953 357.36 718.509C357.151 718.067 356.716 717.698 356.057 717.402L353.993 716.474L354.452 716.284L352.668 720.252ZM359.662 726.284C359.147 726.052 358.742 725.742 358.449 725.353C358.158 724.958 357.987 724.523 357.937 724.047C357.889 723.565 357.976 723.079 358.196 722.589C358.416 722.099 358.715 721.712 359.092 721.428C359.475 721.147 359.896 720.982 360.357 720.932C360.826 720.879 361.29 720.955 361.749 721.161C362.214 721.37 362.578 721.662 362.84 722.036C363.111 722.408 363.264 722.831 363.299 723.308C363.337 723.778 363.244 724.261 363.021 724.758C363.007 724.789 362.989 724.822 362.965 724.857C362.951 724.889 362.936 724.923 362.919 724.961L358.612 723.025L358.836 722.525L362.785 724.3L362.432 724.38C362.593 724.021 362.657 723.669 362.624 723.322C362.601 722.971 362.492 722.658 362.299 722.383C362.106 722.107 361.836 721.891 361.491 721.736C361.151 721.583 360.811 721.525 360.471 721.561C360.13 721.596 359.82 721.722 359.543 721.937C359.265 722.152 359.044 722.441 358.88 722.806L358.834 722.909C358.664 723.286 358.596 723.656 358.63 724.018C358.672 724.377 358.804 724.705 359.026 725.001C359.257 725.294 359.564 725.526 359.948 725.698C360.249 725.834 360.553 725.906 360.858 725.915C361.17 725.927 361.47 725.865 361.757 725.73L361.939 726.333C361.601 726.498 361.234 726.575 360.839 726.564C360.45 726.555 360.058 726.462 359.662 726.284ZM371.697 725.632C372.099 725.813 372.412 726.048 372.637 726.338C372.871 726.625 372.999 726.962 373.021 727.349C373.049 727.74 372.956 728.173 372.742 728.651L371.45 731.525L370.781 731.225L372.043 728.416C372.277 727.895 372.328 727.446 372.195 727.069C372.072 726.688 371.784 726.397 371.332 726.193C370.992 726.041 370.664 725.98 370.348 726.012C370.041 726.04 369.758 726.158 369.498 726.366C369.247 726.571 369.037 726.861 368.868 727.238L367.699 729.84L367.03 729.539L368.292 726.73C368.526 726.209 368.577 725.76 368.445 725.383C368.315 725 368.023 724.706 367.571 724.503C367.238 724.353 366.913 724.294 366.597 724.326C366.284 724.351 365.997 724.468 365.738 724.676C365.487 724.88 365.277 725.171 365.108 725.548L363.938 728.149L363.269 727.849L365.493 722.901L366.134 723.189L365.533 724.527L365.535 724.245C365.847 723.954 366.214 723.784 366.637 723.732C367.07 723.677 367.516 723.753 367.974 723.959C368.458 724.177 368.814 724.484 369.044 724.882C369.276 725.273 369.333 725.733 369.216 726.262L368.999 726.04C369.324 725.703 369.724 725.493 370.199 725.412C370.682 725.327 371.182 725.401 371.697 725.632ZM375.345 733.333C374.83 733.101 374.425 732.791 374.132 732.402C373.841 732.007 373.67 731.572 373.62 731.096C373.572 730.614 373.659 730.128 373.879 729.638C374.099 729.148 374.398 728.761 374.775 728.477C375.158 728.196 375.579 728.031 376.04 727.981C376.509 727.928 376.973 728.004 377.432 728.21C377.897 728.419 378.261 728.711 378.523 729.086C378.794 729.457 378.947 729.881 378.982 730.357C379.02 730.827 378.927 731.311 378.704 731.807C378.69 731.838 378.672 731.871 378.648 731.906C378.634 731.938 378.619 731.972 378.602 732.01L374.295 730.074L374.519 729.575L378.468 731.35L378.115 731.429C378.276 731.071 378.34 730.718 378.308 730.371C378.284 730.021 378.175 729.707 377.982 729.432C377.789 729.156 377.519 728.941 377.174 728.785C376.834 728.633 376.494 728.574 376.154 728.61C375.813 728.646 375.504 728.771 375.226 728.986C374.948 729.201 374.727 729.49 374.563 729.855L374.517 729.959C374.347 730.336 374.279 730.705 374.313 731.068C374.355 731.427 374.487 731.754 374.709 732.05C374.94 732.343 375.247 732.575 375.631 732.748C375.932 732.883 376.236 732.955 376.541 732.964C376.853 732.976 377.153 732.915 377.44 732.779L377.622 733.382C377.284 733.547 376.917 733.624 376.522 733.613C376.133 733.604 375.741 733.511 375.345 733.333ZM387.38 732.682C387.782 732.862 388.095 733.098 388.32 733.387C388.554 733.674 388.682 734.011 388.704 734.398C388.733 734.789 388.639 735.223 388.425 735.7L387.133 738.575L386.464 738.274L387.726 735.465C387.96 734.944 388.011 734.495 387.879 734.118C387.755 733.738 387.467 733.446 387.015 733.242C386.675 733.09 386.348 733.029 386.031 733.061C385.724 733.089 385.441 733.207 385.181 733.415C384.93 733.62 384.72 733.911 384.551 734.288L383.382 736.889L382.713 736.588L383.975 733.779C384.209 733.258 384.26 732.809 384.128 732.432C383.998 732.049 383.707 731.756 383.254 731.552C382.921 731.403 382.597 731.343 382.28 731.375C381.967 731.4 381.68 731.517 381.421 731.725C381.17 731.93 380.96 732.22 380.791 732.597L379.621 735.198L378.952 734.898L381.176 729.95L381.817 730.238L381.216 731.576L381.218 731.294C381.53 731.004 381.897 730.833 382.321 730.781C382.753 730.727 383.199 730.802 383.657 731.008C384.141 731.226 384.497 731.533 384.727 731.931C384.959 732.322 385.016 732.782 384.899 733.311L384.682 733.089C385.007 732.752 385.407 732.543 385.882 732.461C386.365 732.377 386.865 732.45 387.38 732.682ZM391.48 740.585C391.047 740.391 390.701 740.118 390.443 739.768C390.188 739.412 390.044 739 390.013 738.532C389.981 738.065 390.085 737.564 390.325 737.03C390.568 736.49 390.874 736.08 391.241 735.799C391.618 735.516 392.023 735.354 392.456 735.314C392.889 735.275 393.319 735.351 393.747 735.543C394.218 735.755 394.591 736.051 394.866 736.431C395.149 736.808 395.313 737.233 395.357 737.706C395.402 738.179 395.311 738.667 395.085 739.17C394.862 739.666 394.557 740.058 394.171 740.345C393.788 740.626 393.36 740.789 392.887 740.833C392.421 740.88 391.952 740.797 391.48 740.585ZM388.947 739.39L392.091 732.397L392.76 732.698L391.184 736.204L390.641 737.161L390.258 738.189L389.588 739.678L388.947 739.39ZM391.7 739.971C392.052 740.129 392.401 740.191 392.748 740.159C393.098 740.119 393.42 739.992 393.713 739.777C394.009 739.555 394.243 739.252 394.416 738.869C394.591 738.479 394.662 738.103 394.628 737.741C394.595 737.378 394.475 737.056 394.269 736.775C394.066 736.488 393.789 736.265 393.437 736.106C393.085 735.948 392.731 735.887 392.375 735.924C392.028 735.956 391.708 736.081 391.414 736.296C391.127 736.515 390.896 736.819 390.721 737.208C390.549 737.591 390.475 737.966 390.499 738.332C390.533 738.694 390.651 739.019 390.854 739.307C391.066 739.591 391.348 739.812 391.7 739.971ZM397.415 743.253C396.9 743.022 396.496 742.711 396.202 742.323C395.912 741.928 395.741 741.492 395.69 741.016C395.643 740.534 395.729 740.048 395.949 739.558C396.17 739.068 396.468 738.681 396.845 738.397C397.228 738.116 397.65 737.951 398.11 737.901C398.58 737.848 399.044 737.924 399.503 738.13C399.968 738.339 400.331 738.631 400.593 739.006C400.864 739.377 401.018 739.801 401.053 740.277C401.091 740.747 400.998 741.231 400.775 741.727C400.761 741.758 400.742 741.792 400.719 741.827C400.705 741.858 400.689 741.892 400.672 741.93L396.365 739.994L396.59 739.495L400.539 741.27L400.186 741.349C400.347 740.991 400.411 740.638 400.378 740.291C400.354 739.941 400.246 739.628 400.052 739.352C399.859 739.076 399.59 738.861 399.244 738.705C398.905 738.553 398.565 738.494 398.224 738.53C397.883 738.566 397.574 738.691 397.296 738.906C397.018 739.121 396.797 739.411 396.634 739.775L396.587 739.879C396.418 740.256 396.35 740.625 396.383 740.988C396.426 741.347 396.558 741.674 396.78 741.97C397.011 742.263 397.318 742.496 397.701 742.668C398.003 742.803 398.306 742.876 398.612 742.885C398.924 742.896 399.223 742.835 399.511 742.7L399.693 743.303C399.354 743.468 398.987 743.544 398.592 743.533C398.203 743.524 397.811 743.431 397.415 743.253ZM401.023 744.818L403.247 739.87L403.888 740.158L403.282 741.506L403.322 741.241C403.629 740.926 403.99 740.744 404.405 740.696C404.822 740.642 405.272 740.724 405.756 740.941L405.464 741.592C405.439 741.58 405.413 741.569 405.388 741.558C405.366 741.54 405.342 741.526 405.317 741.514C404.796 741.28 404.315 741.257 403.876 741.444C403.439 741.626 403.09 742.009 402.827 742.593L401.692 745.119L401.023 744.818ZM415.7 745.411C416.102 745.591 416.415 745.827 416.64 746.117C416.874 746.403 417.002 746.74 417.024 747.127C417.052 747.518 416.959 747.952 416.745 748.429L415.453 751.304L414.783 751.003L416.046 748.195C416.28 747.673 416.331 747.224 416.198 746.847C416.075 746.467 415.787 746.175 415.334 745.972C414.995 745.819 414.667 745.759 414.351 745.79C414.044 745.818 413.76 745.936 413.501 746.144C413.25 746.349 413.04 746.64 412.871 747.017L411.702 749.618L411.032 749.317L412.295 746.509C412.529 745.987 412.58 745.538 412.447 745.161C412.317 744.778 412.026 744.485 411.574 744.281C411.241 744.132 410.916 744.073 410.6 744.104C410.287 744.129 410 744.246 409.74 744.454C409.49 744.659 409.28 744.949 409.11 745.326L407.941 747.928L407.272 747.627L409.496 742.679L410.137 742.967L409.535 744.305L409.538 744.023C409.849 743.733 410.217 743.562 410.64 743.51C411.073 743.456 411.518 743.531 411.977 743.737C412.461 743.955 412.817 744.262 413.046 744.66C413.278 745.051 413.336 745.511 413.219 746.04L413.002 745.818C413.327 745.481 413.727 745.272 414.201 745.19C414.685 745.106 415.184 745.179 415.7 745.411ZM419.348 753.111C418.832 752.88 418.428 752.57 418.135 752.181C417.844 751.786 417.673 751.35 417.623 750.875C417.575 750.392 417.662 749.906 417.882 749.416C418.102 748.926 418.401 748.539 418.777 748.255C419.16 747.975 419.582 747.809 420.043 747.759C420.512 747.706 420.976 747.782 421.435 747.989C421.9 748.198 422.263 748.489 422.526 748.864C422.797 749.235 422.95 749.659 422.985 750.135C423.023 750.606 422.93 751.089 422.707 751.585C422.693 751.617 422.674 751.65 422.651 751.685C422.637 751.716 422.621 751.751 422.605 751.788L418.298 749.852L418.522 749.353L422.471 751.128L422.118 751.207C422.279 750.849 422.343 750.496 422.31 750.149C422.287 749.799 422.178 749.486 421.985 749.21C421.792 748.934 421.522 748.719 421.177 748.564C420.837 748.411 420.497 748.353 420.156 748.388C419.816 748.424 419.506 748.549 419.228 748.764C418.951 748.979 418.73 749.269 418.566 749.633L418.519 749.737C418.35 750.114 418.282 750.484 418.315 750.846C418.358 751.205 418.49 751.533 418.712 751.829C418.943 752.121 419.25 752.354 419.633 752.526C419.935 752.662 420.239 752.734 420.544 752.743C420.856 752.755 421.156 752.693 421.443 752.558L421.625 753.161C421.287 753.326 420.92 753.403 420.525 753.391C420.136 753.382 419.744 753.289 419.348 753.111Z" fill="white"/>
<path d="M340.176 726L325 719.178L331.821 704L347 710.82L340.176 726Z" fill="white"/>
<path d="M333.011 719L331 712.802L332.076 712.446L333.612 717.178L342.35 711L343 711.938L333.011 719Z" fill="#F9B12C"/>
<path d="M401.041 545.052L416.228 531.821L417.969 532.609L418.038 552.751L416.179 551.909L416.265 533.072L416.98 533.396L402.877 545.883L401.041 545.052ZM406.064 541.955L407.237 540.762L416.939 545.157L416.815 546.825L406.064 541.955ZM428.284 557.392L429.536 554.627L429.67 554.142L431.765 549.517C432.247 548.452 432.316 547.497 431.971 546.651C431.642 545.813 430.89 545.127 429.714 544.595C428.903 544.227 428.071 544.013 427.218 543.952C426.364 543.891 425.583 543.968 424.873 544.183L424.682 542.574C425.563 542.321 426.513 542.254 427.532 542.371C428.559 542.472 429.565 542.746 430.55 543.192C432.171 543.926 433.235 544.897 433.742 546.103C434.272 547.301 434.166 548.718 433.425 550.355L429.905 558.126L428.284 557.392ZM423.915 555.557C422.977 555.132 422.227 554.61 421.665 553.992C421.125 553.364 420.795 552.698 420.675 551.992C420.561 551.27 420.666 550.552 420.99 549.836C421.285 549.185 421.703 548.665 422.242 548.278C422.805 547.881 423.508 547.682 424.351 547.681C425.217 547.672 426.246 547.937 427.438 548.477L431.753 550.431L431.181 551.694L426.914 549.762C425.706 549.214 424.766 549.047 424.095 549.261C423.44 549.481 422.968 549.909 422.68 550.545C422.356 551.26 422.375 551.958 422.737 552.639C423.099 553.32 423.781 553.887 424.782 554.341C425.735 554.773 426.651 554.929 427.529 554.809C428.43 554.681 429.226 554.276 429.918 553.593L429.771 554.934C429.078 555.617 428.223 556.024 427.206 556.157C426.204 556.297 425.107 556.097 423.915 555.557ZM439.43 562.585C438.238 562.045 437.288 561.289 436.579 560.317C435.886 559.352 435.485 558.27 435.377 557.072C435.276 555.857 435.51 554.623 436.078 553.367C436.654 552.096 437.428 551.106 438.4 550.397C439.373 549.688 440.446 549.284 441.622 549.184C442.82 549.076 444.015 549.291 445.207 549.831C446.304 550.328 447.169 551.017 447.804 551.899C448.455 552.787 448.819 553.823 448.896 555.007C448.995 556.183 448.736 557.453 448.117 558.82C447.505 560.171 446.729 561.208 445.788 561.931C444.848 562.654 443.825 563.072 442.721 563.185C441.639 563.289 440.542 563.089 439.43 562.585ZM440.229 561.137C441.119 561.54 442.004 561.702 442.883 561.621C443.786 561.532 444.601 561.212 445.329 560.66C446.081 560.101 446.676 559.336 447.115 558.367C447.562 557.381 447.744 556.43 447.662 555.511C447.596 554.6 447.295 553.784 446.76 553.063C446.248 552.333 445.547 551.766 444.657 551.363C443.783 550.967 442.902 550.818 442.016 550.914C441.137 550.995 440.325 551.307 439.581 551.851C438.836 552.395 438.241 553.159 437.795 554.145C437.355 555.114 437.173 556.066 437.248 557C437.33 557.918 437.627 558.742 438.139 559.472C438.659 560.186 439.355 560.741 440.229 561.137ZM444.323 564.658L446.029 560.891L447.341 558.44L448.247 555.805L452.264 546.937L453.956 547.704L445.944 565.392L444.323 564.658ZM462.77 557.787C463.787 558.248 464.587 558.849 465.169 559.592C465.775 560.326 466.113 561.188 466.182 562.177C466.267 563.173 466.036 564.275 465.489 565.483L462.196 572.754L460.503 571.987L463.721 564.883C464.318 563.564 464.435 562.42 464.069 561.45C463.727 560.471 462.96 559.712 461.769 559.172C460.879 558.769 460.017 558.599 459.184 558.662C458.374 558.717 457.632 559.003 456.956 559.521C456.305 560.03 455.763 560.761 455.331 561.715L452.35 568.294L450.658 567.527L458.67 549.839L460.363 550.606L456.464 559.211L456.422 558.417C457.23 557.691 458.186 557.272 459.29 557.159C460.402 557.03 461.562 557.24 462.77 557.787ZM474.61 578.377L475.863 575.612L475.996 575.127L478.091 570.502C478.574 569.437 478.642 568.482 478.298 567.636C477.969 566.798 477.216 566.112 476.04 565.579C475.23 565.212 474.398 564.998 473.544 564.937C472.691 564.876 471.909 564.953 471.199 565.168L471.009 563.559C471.889 563.306 472.839 563.239 473.859 563.356C474.885 563.457 475.891 563.731 476.877 564.177C478.498 564.911 479.562 565.882 480.069 567.088C480.599 568.286 480.493 569.703 479.751 571.34L476.231 579.111L474.61 578.377ZM470.241 576.542C469.304 576.117 468.554 575.595 467.991 574.977C467.452 574.349 467.122 573.683 467.001 572.977C466.887 572.255 466.993 571.536 467.317 570.821C467.612 570.17 468.029 569.65 468.569 569.262C469.131 568.866 469.834 568.667 470.677 568.666C471.544 568.656 472.573 568.922 473.765 569.461L478.079 571.416L477.507 572.679L473.24 570.746C472.032 570.199 471.093 570.032 470.422 570.245C469.766 570.466 469.295 570.894 469.007 571.529C468.683 572.245 468.702 572.943 469.064 573.624C469.426 574.305 470.107 574.872 471.108 575.326C472.062 575.758 472.977 575.914 473.855 575.794C474.756 575.666 475.553 575.261 476.245 574.578L476.097 575.919C475.405 576.602 474.55 577.009 473.532 577.142C472.53 577.282 471.433 577.082 470.241 576.542ZM488.671 584.746L489.924 581.981L490.057 581.496L492.152 576.871C492.634 575.806 492.703 574.851 492.358 574.006C492.03 573.167 491.277 572.481 490.101 571.949C489.291 571.582 488.459 571.368 487.605 571.307C486.752 571.246 485.97 571.322 485.26 571.537L485.069 569.928C485.95 569.676 486.9 569.608 487.919 569.725C488.946 569.826 489.952 570.1 490.938 570.546C492.559 571.281 493.622 572.251 494.129 573.457C494.659 574.655 494.554 576.072 493.812 577.709L490.292 585.481L488.671 584.746ZM484.302 582.911C483.365 582.486 482.615 581.965 482.052 581.346C481.513 580.719 481.183 580.052 481.062 579.346C480.948 578.624 481.053 577.906 481.377 577.191C481.673 576.539 482.09 576.019 482.629 575.632C483.192 575.235 483.895 575.037 484.738 575.036C485.605 575.026 486.634 575.291 487.826 575.831L492.14 577.785L491.568 579.049L487.301 577.116C486.093 576.569 485.154 576.402 484.483 576.615C483.827 576.835 483.356 577.263 483.068 577.899C482.744 578.614 482.763 579.312 483.125 579.993C483.486 580.674 484.168 581.241 485.169 581.695C486.123 582.127 487.038 582.283 487.916 582.164C488.817 582.035 489.613 581.63 490.306 580.948L490.158 582.288C489.466 582.971 488.611 583.378 487.593 583.511C486.591 583.651 485.494 583.451 484.302 582.911ZM494.889 587.563L500.558 575.048L502.179 575.782L500.635 579.191L500.738 578.52C501.52 577.724 502.435 577.268 503.485 577.149C504.542 577.015 505.682 577.225 506.905 577.779L506.16 579.424C506.097 579.396 506.033 579.367 505.97 579.338C505.913 579.293 505.853 579.257 505.79 579.228C504.471 578.63 503.254 578.568 502.14 579.04C501.033 579.496 500.145 580.463 499.476 581.941L496.582 588.33L494.889 587.563ZM522.808 584.983C523.825 585.444 524.625 586.045 525.208 586.788C525.814 587.522 526.151 588.384 526.22 589.373C526.305 590.369 526.074 591.471 525.527 592.679L522.234 599.95L520.541 599.183L523.759 592.079C524.357 590.76 524.473 589.616 524.108 588.646C523.766 587.667 522.999 586.908 521.807 586.368C520.917 585.965 520.055 585.795 519.222 585.858C518.412 585.913 517.67 586.199 516.995 586.717C516.343 587.226 515.801 587.957 515.369 588.911L512.388 595.49L510.696 594.723L516.365 582.208L517.986 582.942L516.431 586.375L516.46 585.613C517.268 584.887 518.224 584.468 519.329 584.355C520.44 584.226 521.6 584.436 522.808 584.983ZM531.853 604.451C530.645 603.903 529.679 603.14 528.954 602.161C528.253 601.173 527.84 600.076 527.715 598.87C527.598 597.649 527.82 596.418 528.382 595.179C528.951 593.923 529.729 592.945 530.717 592.243C531.705 591.542 532.799 591.137 533.997 591.028C535.195 590.92 536.406 591.143 537.63 591.697C538.87 592.259 539.844 593.025 540.552 593.998C541.277 594.977 541.694 596.066 541.802 597.264C541.926 598.47 541.704 599.7 541.135 600.956C540.574 602.195 539.796 603.174 538.8 603.891C537.828 604.6 536.731 605.013 535.51 605.13C534.296 605.231 533.077 605.005 531.853 604.451ZM532.533 602.949C533.439 603.359 534.332 603.524 535.211 603.443C536.097 603.347 536.905 603.023 537.633 602.472C538.385 601.912 538.98 601.148 539.419 600.178C539.865 599.193 540.048 598.241 539.966 597.323C539.899 596.412 539.607 595.599 539.087 594.885C538.575 594.155 537.874 593.589 536.984 593.186C536.094 592.783 535.206 592.629 534.32 592.726C533.44 592.806 532.629 593.119 531.884 593.662C531.14 594.206 530.545 594.971 530.098 595.956C529.659 596.926 529.477 597.877 529.552 598.811C529.634 599.73 529.931 600.554 530.443 601.284C530.962 601.998 531.659 602.553 532.533 602.949Z" fill="black"/>
<path d="M131.672 426.005C130.998 425.884 130.323 425.755 129.647 425.612C126.884 425.021 65.9565 411.199 71.2432 348.511L99.192 389.704L70.5382 307L42 360.469L56.2466 347.125C49.5188 423.223 125.727 440.152 126.538 440.322C127.352 440.495 128.169 440.651 128.989 440.798C142.605 443.213 156.746 441.958 170.325 437.315C171.238 431.864 172.052 425.902 171.997 420.452C159.607 426.088 145.791 428.51 131.672 426.005Z" fill="#040606"/>
</svg>
