<svg width="304" height="705" viewBox="0 0 304 705" fill="none" xmlns="http://www.w3.org/2000/svg">
<g filter="url(#filter0_d_525_10134)">
<path d="M65 36C65 28.268 71.268 22 79 22H225C232.732 22 239 28.268 239 36V78C239 85.732 232.732 92 225 92H79C71.268 92 65 85.732 65 78V36Z" fill="white"/>
</g>
<rect x="90" y="37.5" width="39" height="39" rx="19.5" fill="url(#paint0_linear_525_10134)"/>
<g filter="url(#filter1_d_525_10134)">
<path d="M114.694 53.6205C114.632 53.6205 114.58 53.6078 114.537 53.5823C114.494 53.5569 114.46 53.5123 114.435 53.4487L113.9 52.1504L112.554 51.5394C112.492 51.5139 112.449 51.4789 112.424 51.4344C112.4 51.3898 112.387 51.3357 112.387 51.2721C112.387 51.2084 112.4 51.1543 112.424 51.1098C112.449 51.0652 112.492 51.0302 112.554 51.0048L113.9 50.4129L114.435 49.1718C114.46 49.1082 114.494 49.0636 114.537 49.0382C114.58 49.0127 114.632 49 114.694 49C114.755 49 114.808 49.0127 114.851 49.0382C114.894 49.0636 114.927 49.1082 114.952 49.1718L115.487 50.4129L116.834 51.0048C116.895 51.0302 116.938 51.0652 116.963 51.1098C116.988 51.1543 117 51.2084 117 51.2721C117 51.3357 116.988 51.3898 116.963 51.4344C116.938 51.4789 116.895 51.5139 116.834 51.5394L115.487 52.1504L114.952 53.4487C114.927 53.5123 114.894 53.5569 114.851 53.5823C114.808 53.6078 114.755 53.6205 114.694 53.6205ZM114.694 65C114.645 65 114.595 64.9873 114.546 64.9618C114.497 64.9364 114.46 64.8918 114.435 64.8282L113.9 63.5871L112.572 62.9952C112.51 62.9698 112.467 62.9348 112.443 62.8902C112.418 62.8457 112.406 62.7916 112.406 62.7279C112.406 62.6643 112.418 62.6102 112.443 62.5656C112.467 62.5211 112.51 62.4861 112.572 62.4606L113.9 61.8687L114.435 60.5513C114.46 60.4877 114.494 60.4431 114.537 60.4177C114.58 60.3922 114.632 60.3795 114.694 60.3795C114.755 60.3795 114.808 60.3922 114.851 60.4177C114.894 60.4431 114.927 60.4877 114.952 60.5513L115.487 61.8687L116.815 62.4606C116.877 62.4861 116.92 62.5211 116.945 62.5656C116.969 62.6102 116.982 62.6643 116.982 62.7279C116.982 62.7916 116.969 62.8457 116.945 62.8902C116.92 62.9348 116.877 62.9698 116.815 62.9952L115.487 63.5871L114.952 64.8282C114.927 64.8918 114.891 64.9364 114.841 64.9618C114.792 64.9873 114.743 65 114.694 65ZM106.594 61.6969C106.496 61.6969 106.4 61.6683 106.308 61.611C106.216 61.5537 106.145 61.4741 106.096 61.3723L104.897 58.7184L102.314 57.5155C102.215 57.4646 102.138 57.3914 102.083 57.2959C102.028 57.2005 102 57.1018 102 57C102 56.8982 102.028 56.7995 102.083 56.7041C102.138 56.6086 102.215 56.5354 102.314 56.4845L104.897 55.2816L106.096 52.6468C106.145 52.5322 106.216 52.4463 106.308 52.389C106.4 52.3317 106.496 52.3031 106.594 52.3031C106.692 52.3031 106.788 52.3317 106.88 52.389C106.972 52.4463 107.043 52.5259 107.092 52.6277L108.31 55.2816L110.875 56.4845C110.985 56.5354 111.068 56.6086 111.124 56.7041C111.179 56.7995 111.207 56.8982 111.207 57C111.207 57.1018 111.179 57.2005 111.124 57.2959C111.068 57.3914 110.985 57.4646 110.875 57.5155L108.31 58.7184L107.092 61.3723C107.043 61.4869 106.972 61.5696 106.88 61.6205C106.788 61.6714 106.692 61.6969 106.594 61.6969Z" fill="#FD7702"/>
</g>
<path d="M146.65 64.216C145.69 64.216 144.802 64.042 143.986 63.694C143.17 63.346 142.456 62.86 141.844 62.236C141.232 61.612 140.752 60.88 140.404 60.04C140.068 59.2 139.9 58.282 139.9 57.286C139.9 56.29 140.062 55.372 140.386 54.532C140.722 53.68 141.19 52.948 141.79 52.336C142.402 51.712 143.116 51.232 143.932 50.896C144.748 50.548 145.636 50.374 146.596 50.374C147.556 50.374 148.414 50.536 149.17 50.86C149.938 51.184 150.586 51.616 151.114 52.156C151.642 52.684 152.02 53.266 152.248 53.902L150.07 54.946C149.818 54.25 149.392 53.686 148.792 53.254C148.192 52.822 147.46 52.606 146.596 52.606C145.756 52.606 145.012 52.804 144.364 53.2C143.728 53.596 143.23 54.142 142.87 54.838C142.522 55.534 142.348 56.35 142.348 57.286C142.348 58.222 142.528 59.044 142.888 59.752C143.26 60.448 143.77 60.994 144.418 61.39C145.066 61.786 145.81 61.984 146.65 61.984C147.334 61.984 147.964 61.852 148.54 61.588C149.116 61.312 149.578 60.928 149.926 60.436C150.274 59.932 150.448 59.338 150.448 58.654V57.628L151.564 58.6H146.596V56.53H152.896V57.88C152.896 58.912 152.722 59.824 152.374 60.616C152.026 61.408 151.552 62.074 150.952 62.614C150.364 63.142 149.698 63.544 148.954 63.82C148.21 64.084 147.442 64.216 146.65 64.216ZM159.279 64.216C158.271 64.216 157.389 63.988 156.633 63.532C155.877 63.076 155.289 62.458 154.869 61.678C154.449 60.898 154.239 60.034 154.239 59.086C154.239 58.102 154.449 57.232 154.869 56.476C155.301 55.708 155.883 55.102 156.615 54.658C157.359 54.214 158.187 53.992 159.099 53.992C159.867 53.992 160.539 54.118 161.115 54.37C161.703 54.622 162.201 54.97 162.609 55.414C163.017 55.858 163.329 56.368 163.545 56.944C163.761 57.508 163.869 58.12 163.869 58.78C163.869 58.948 163.857 59.122 163.833 59.302C163.821 59.482 163.791 59.638 163.743 59.77H156.183V57.97H162.411L161.295 58.816C161.403 58.264 161.373 57.772 161.205 57.34C161.049 56.908 160.785 56.566 160.413 56.314C160.053 56.062 159.615 55.936 159.099 55.936C158.607 55.936 158.169 56.062 157.785 56.314C157.401 56.554 157.107 56.914 156.903 57.394C156.711 57.862 156.639 58.432 156.687 59.104C156.639 59.704 156.717 60.238 156.921 60.706C157.137 61.162 157.449 61.516 157.857 61.768C158.277 62.02 158.757 62.146 159.297 62.146C159.837 62.146 160.293 62.032 160.665 61.804C161.049 61.576 161.349 61.27 161.565 60.886L163.473 61.822C163.281 62.29 162.981 62.704 162.573 63.064C162.165 63.424 161.679 63.706 161.115 63.91C160.563 64.114 159.951 64.216 159.279 64.216ZM165.657 64V54.208H167.871V56.134L167.691 55.792C167.919 55.204 168.291 54.76 168.807 54.46C169.335 54.148 169.947 53.992 170.643 53.992C171.363 53.992 171.999 54.148 172.551 54.46C173.115 54.772 173.553 55.21 173.865 55.774C174.177 56.326 174.333 56.968 174.333 57.7V64H171.975V58.258C171.975 57.826 171.891 57.454 171.723 57.142C171.555 56.83 171.321 56.59 171.021 56.422C170.733 56.242 170.391 56.152 169.995 56.152C169.611 56.152 169.269 56.242 168.969 56.422C168.669 56.59 168.435 56.83 168.267 57.142C168.099 57.454 168.015 57.826 168.015 58.258V64H165.657ZM178.626 64L183.252 50.59H186.42L191.046 64H188.382L187.428 61.12H182.244L181.272 64H178.626ZM182.946 58.96H186.726L184.494 52.282H185.178L182.946 58.96ZM192.538 64V50.59H194.986V64H192.538ZM204.743 64.216C204.011 64.216 203.315 64.084 202.655 63.82C202.007 63.544 201.449 63.16 200.981 62.668C200.525 62.164 200.213 61.57 200.045 60.886L202.187 60.13C202.403 60.742 202.733 61.21 203.177 61.534C203.621 61.846 204.143 62.002 204.743 62.002C205.223 62.002 205.637 61.912 205.985 61.732C206.345 61.552 206.627 61.294 206.831 60.958C207.035 60.61 207.137 60.202 207.137 59.734C207.137 59.266 207.035 58.87 206.831 58.546C206.639 58.21 206.363 57.952 206.003 57.772C205.643 57.592 205.217 57.502 204.725 57.502C204.497 57.502 204.257 57.526 204.005 57.574C203.765 57.622 203.549 57.694 203.357 57.79L202.799 56.62L206.273 52.66H200.801V50.59H209.027V52.516L205.535 56.602L205.571 55.684C206.375 55.696 207.077 55.87 207.677 56.206C208.277 56.542 208.745 57.004 209.081 57.592C209.417 58.18 209.585 58.87 209.585 59.662C209.585 60.526 209.375 61.306 208.955 62.002C208.535 62.686 207.959 63.226 207.227 63.622C206.495 64.018 205.667 64.216 204.743 64.216ZM212.687 64V61.48H215.063V64H212.687ZM222.621 64.216C221.913 64.216 221.235 64.084 220.587 63.82C219.951 63.556 219.399 63.184 218.931 62.704C218.475 62.212 218.163 61.63 217.995 60.958L220.119 60.202C220.323 60.814 220.653 61.27 221.109 61.57C221.565 61.858 222.069 62.002 222.621 62.002C223.077 62.002 223.479 61.906 223.827 61.714C224.187 61.51 224.463 61.234 224.655 60.886C224.847 60.526 224.943 60.112 224.943 59.644C224.943 59.176 224.841 58.768 224.637 58.42C224.445 58.072 224.175 57.802 223.827 57.61C223.479 57.406 223.077 57.304 222.621 57.304C222.153 57.304 221.727 57.406 221.343 57.61C220.971 57.814 220.701 58.108 220.533 58.492L218.535 58.042L219.597 50.59H226.905V52.66H220.569L221.487 51.598L220.731 57.214L220.029 56.638C220.365 56.146 220.773 55.786 221.253 55.558C221.745 55.33 222.339 55.216 223.035 55.216C223.923 55.216 224.691 55.408 225.339 55.792C225.999 56.176 226.509 56.698 226.869 57.358C227.229 58.018 227.409 58.78 227.409 59.644C227.409 60.508 227.199 61.288 226.779 61.984C226.359 62.68 225.789 63.226 225.069 63.622C224.349 64.018 223.533 64.216 222.621 64.216Z" fill="#120F43"/>
<path d="M53.982 134V124.83H51.154V123.57H58.154V124.83H55.368V134H53.982ZM58.4885 134V126.454H59.7625V127.84L59.6225 127.644C59.7998 127.215 60.0705 126.897 60.4345 126.692C60.7985 126.477 61.2418 126.37 61.7645 126.37H62.2265V127.602H61.5685C61.0365 127.602 60.6071 127.77 60.2805 128.106C59.9538 128.433 59.7905 128.899 59.7905 129.506V134H58.4885ZM65.595 134.168C65.1003 134.168 64.6617 134.079 64.279 133.902C63.9057 133.715 63.6117 133.463 63.397 133.146C63.1823 132.819 63.075 132.446 63.075 132.026C63.075 131.625 63.159 131.265 63.327 130.948C63.5043 130.621 63.775 130.346 64.139 130.122C64.5123 129.898 64.979 129.739 65.539 129.646L68.339 129.184V130.276L65.833 130.696C65.3477 130.78 64.993 130.934 64.769 131.158C64.5543 131.382 64.447 131.657 64.447 131.984C64.447 132.292 64.5683 132.549 64.811 132.754C65.063 132.959 65.3757 133.062 65.749 133.062C66.225 133.062 66.6357 132.964 66.981 132.768C67.3357 132.563 67.611 132.287 67.807 131.942C68.0123 131.597 68.115 131.214 68.115 130.794V128.876C68.115 128.465 67.961 128.134 67.653 127.882C67.3543 127.621 66.9577 127.49 66.463 127.49C66.0337 127.49 65.651 127.602 65.315 127.826C64.9883 128.041 64.7457 128.33 64.587 128.694L63.453 128.106C63.593 127.761 63.817 127.453 64.125 127.182C64.433 126.902 64.7923 126.683 65.203 126.524C65.6137 126.365 66.043 126.286 66.491 126.286C67.0697 126.286 67.5783 126.398 68.017 126.622C68.4557 126.837 68.7963 127.14 69.039 127.532C69.291 127.915 69.417 128.363 69.417 128.876V134H68.143V132.572L68.381 132.656C68.2223 132.955 68.0077 133.216 67.737 133.44C67.4663 133.664 67.149 133.841 66.785 133.972C66.421 134.103 66.0243 134.168 65.595 134.168ZM71.4357 134V126.454H72.7377V134H71.4357ZM71.4357 125.25V123.57H72.7377V125.25H71.4357ZM74.758 134V126.454H76.032V127.924L75.822 127.798C76.0087 127.322 76.3073 126.953 76.718 126.692C77.138 126.421 77.628 126.286 78.188 126.286C78.7293 126.286 79.21 126.407 79.63 126.65C80.0593 126.893 80.3953 127.229 80.638 127.658C80.89 128.087 81.016 128.573 81.016 129.114V134H79.7V129.534C79.7 129.114 79.6253 128.759 79.476 128.47C79.3267 128.181 79.112 127.957 78.832 127.798C78.5613 127.63 78.2487 127.546 77.894 127.546C77.5393 127.546 77.222 127.63 76.942 127.798C76.6713 127.957 76.4567 128.185 76.298 128.484C76.1393 128.773 76.06 129.123 76.06 129.534V134H74.758ZM86.3511 134.168C85.6231 134.168 84.9744 133.995 84.4051 133.65C83.8358 133.305 83.3878 132.833 83.0611 132.236C82.7344 131.629 82.5711 130.953 82.5711 130.206C82.5711 129.45 82.7298 128.778 83.0471 128.19C83.3738 127.602 83.8124 127.14 84.3631 126.804C84.9231 126.459 85.5484 126.286 86.2391 126.286C86.7991 126.286 87.2938 126.389 87.7231 126.594C88.1618 126.79 88.5304 127.061 88.8291 127.406C89.1371 127.742 89.3704 128.129 89.5291 128.568C89.6971 128.997 89.7811 129.445 89.7811 129.912C89.7811 130.015 89.7718 130.131 89.7531 130.262C89.7438 130.383 89.7298 130.5 89.7111 130.612H83.5231V129.492H88.9551L88.3391 129.996C88.4231 129.511 88.3764 129.077 88.1991 128.694C88.0218 128.311 87.7604 128.008 87.4151 127.784C87.0698 127.56 86.6778 127.448 86.2391 127.448C85.8004 127.448 85.3991 127.56 85.0351 127.784C84.6711 128.008 84.3864 128.33 84.1811 128.75C83.9851 129.161 83.9058 129.651 83.9431 130.22C83.9058 130.771 83.9898 131.256 84.1951 131.676C84.4098 132.087 84.7084 132.409 85.0911 132.642C85.4831 132.866 85.9078 132.978 86.3651 132.978C86.8691 132.978 87.2938 132.861 87.6391 132.628C87.9844 132.395 88.2644 132.096 88.4791 131.732L89.5711 132.292C89.4218 132.637 89.1884 132.955 88.8711 133.244C88.5631 133.524 88.1944 133.748 87.7651 133.916C87.3451 134.084 86.8738 134.168 86.3511 134.168ZM94.9087 134.168C94.1994 134.168 93.56 133.995 92.9907 133.65C92.4307 133.305 91.9874 132.833 91.6607 132.236C91.334 131.639 91.1707 130.971 91.1707 130.234C91.1707 129.478 91.334 128.806 91.6607 128.218C91.9874 127.621 92.4307 127.149 92.9907 126.804C93.56 126.459 94.1994 126.286 94.9087 126.286C95.534 126.286 96.0894 126.421 96.5747 126.692C97.06 126.953 97.4427 127.308 97.7227 127.756L97.5127 128.078V123.402H98.8287V134H97.5547V132.39L97.7227 132.614C97.4614 133.109 97.0787 133.491 96.5747 133.762C96.08 134.033 95.5247 134.168 94.9087 134.168ZM95.0207 132.908C95.4967 132.908 95.9214 132.791 96.2947 132.558C96.668 132.325 96.962 132.007 97.1767 131.606C97.4007 131.195 97.5127 130.738 97.5127 130.234C97.5127 129.721 97.4007 129.263 97.1767 128.862C96.962 128.451 96.668 128.129 96.2947 127.896C95.9214 127.663 95.4967 127.546 95.0207 127.546C94.554 127.546 94.1294 127.667 93.7467 127.91C93.3734 128.143 93.0794 128.461 92.8647 128.862C92.65 129.254 92.5427 129.711 92.5427 130.234C92.5427 130.738 92.65 131.195 92.8647 131.606C93.0794 132.007 93.3734 132.325 93.7467 132.558C94.12 132.791 94.5447 132.908 95.0207 132.908ZM106.848 134.168C106.12 134.168 105.462 134 104.874 133.664C104.286 133.319 103.819 132.847 103.474 132.25C103.129 131.653 102.956 130.976 102.956 130.22C102.956 129.464 103.124 128.792 103.46 128.204C103.805 127.616 104.272 127.149 104.86 126.804C105.448 126.459 106.111 126.286 106.848 126.286C107.576 126.286 108.234 126.459 108.822 126.804C109.41 127.14 109.872 127.602 110.208 128.19C110.553 128.778 110.726 129.455 110.726 130.22C110.726 130.985 110.549 131.667 110.194 132.264C109.839 132.852 109.368 133.319 108.78 133.664C108.201 134 107.557 134.168 106.848 134.168ZM106.848 132.908C107.315 132.908 107.735 132.791 108.108 132.558C108.491 132.325 108.789 132.003 109.004 131.592C109.228 131.181 109.34 130.724 109.34 130.22C109.34 129.707 109.228 129.254 109.004 128.862C108.789 128.461 108.491 128.143 108.108 127.91C107.735 127.667 107.315 127.546 106.848 127.546C106.372 127.546 105.943 127.667 105.56 127.91C105.187 128.143 104.888 128.461 104.664 128.862C104.44 129.254 104.328 129.707 104.328 130.22C104.328 130.724 104.44 131.181 104.664 131.592C104.888 132.003 105.187 132.325 105.56 132.558C105.943 132.791 106.372 132.908 106.848 132.908ZM112.424 134V126.454H113.698V127.924L113.488 127.798C113.675 127.322 113.973 126.953 114.384 126.692C114.804 126.421 115.294 126.286 115.854 126.286C116.395 126.286 116.876 126.407 117.296 126.65C117.725 126.893 118.061 127.229 118.304 127.658C118.556 128.087 118.682 128.573 118.682 129.114V134H117.366V129.534C117.366 129.114 117.291 128.759 117.142 128.47C116.993 128.181 116.778 127.957 116.498 127.798C116.227 127.63 115.915 127.546 115.56 127.546C115.205 127.546 114.888 127.63 114.608 127.798C114.337 127.957 114.123 128.185 113.964 128.484C113.805 128.773 113.726 129.123 113.726 129.534V134H112.424ZM122.965 134V123.402H124.267V134H122.965ZM128.499 134.168C128.005 134.168 127.566 134.079 127.183 133.902C126.81 133.715 126.516 133.463 126.301 133.146C126.087 132.819 125.979 132.446 125.979 132.026C125.979 131.625 126.063 131.265 126.231 130.948C126.409 130.621 126.679 130.346 127.043 130.122C127.417 129.898 127.883 129.739 128.443 129.646L131.243 129.184V130.276L128.737 130.696C128.252 130.78 127.897 130.934 127.673 131.158C127.459 131.382 127.351 131.657 127.351 131.984C127.351 132.292 127.473 132.549 127.715 132.754C127.967 132.959 128.28 133.062 128.653 133.062C129.129 133.062 129.54 132.964 129.885 132.768C130.24 132.563 130.515 132.287 130.711 131.942C130.917 131.597 131.019 131.214 131.019 130.794V128.876C131.019 128.465 130.865 128.134 130.557 127.882C130.259 127.621 129.862 127.49 129.367 127.49C128.938 127.49 128.555 127.602 128.219 127.826C127.893 128.041 127.65 128.33 127.491 128.694L126.357 128.106C126.497 127.761 126.721 127.453 127.029 127.182C127.337 126.902 127.697 126.683 128.107 126.524C128.518 126.365 128.947 126.286 129.395 126.286C129.974 126.286 130.483 126.398 130.921 126.622C131.36 126.837 131.701 127.14 131.943 127.532C132.195 127.915 132.321 128.363 132.321 128.876V134H131.047V132.572L131.285 132.656C131.127 132.955 130.912 133.216 130.641 133.44C130.371 133.664 130.053 133.841 129.689 133.972C129.325 134.103 128.929 134.168 128.499 134.168ZM137.269 134.084C136.532 134.084 135.963 133.874 135.561 133.454C135.169 133.034 134.973 132.441 134.973 131.676V127.7H133.601V126.454H133.881C134.217 126.454 134.483 126.351 134.679 126.146C134.875 125.941 134.973 125.67 134.973 125.334V124.718H136.275V126.454H137.969V127.7H136.275V131.634C136.275 131.886 136.313 132.105 136.387 132.292C136.471 132.479 136.607 132.628 136.793 132.74C136.98 132.843 137.227 132.894 137.535 132.894C137.601 132.894 137.68 132.889 137.773 132.88C137.876 132.871 137.969 132.861 138.053 132.852V134C137.932 134.028 137.797 134.047 137.647 134.056C137.498 134.075 137.372 134.084 137.269 134.084ZM143.021 134.168C142.293 134.168 141.644 133.995 141.075 133.65C140.506 133.305 140.058 132.833 139.731 132.236C139.404 131.629 139.241 130.953 139.241 130.206C139.241 129.45 139.4 128.778 139.717 128.19C140.044 127.602 140.482 127.14 141.033 126.804C141.593 126.459 142.218 126.286 142.909 126.286C143.469 126.286 143.964 126.389 144.393 126.594C144.832 126.79 145.2 127.061 145.499 127.406C145.807 127.742 146.04 128.129 146.199 128.568C146.367 128.997 146.451 129.445 146.451 129.912C146.451 130.015 146.442 130.131 146.423 130.262C146.414 130.383 146.4 130.5 146.381 130.612H140.193V129.492H145.625L145.009 129.996C145.093 129.511 145.046 129.077 144.869 128.694C144.692 128.311 144.43 128.008 144.085 127.784C143.74 127.56 143.348 127.448 142.909 127.448C142.47 127.448 142.069 127.56 141.705 127.784C141.341 128.008 141.056 128.33 140.851 128.75C140.655 129.161 140.576 129.651 140.613 130.22C140.576 130.771 140.66 131.256 140.865 131.676C141.08 132.087 141.378 132.409 141.761 132.642C142.153 132.866 142.578 132.978 143.035 132.978C143.539 132.978 143.964 132.861 144.309 132.628C144.654 132.395 144.934 132.096 145.149 131.732L146.241 132.292C146.092 132.637 145.858 132.955 145.541 133.244C145.233 133.524 144.864 133.748 144.435 133.916C144.015 134.084 143.544 134.168 143.021 134.168ZM150.851 134.168C150.095 134.168 149.437 133.981 148.877 133.608C148.317 133.235 147.92 132.731 147.687 132.096L148.723 131.592C148.937 132.04 149.231 132.395 149.605 132.656C149.978 132.917 150.393 133.048 150.851 133.048C151.261 133.048 151.602 132.95 151.873 132.754C152.143 132.558 152.279 132.301 152.279 131.984C152.279 131.76 152.213 131.583 152.083 131.452C151.961 131.312 151.812 131.205 151.635 131.13C151.457 131.046 151.294 130.985 151.145 130.948L150.011 130.626C149.329 130.43 148.83 130.15 148.513 129.786C148.205 129.422 148.051 128.997 148.051 128.512C148.051 128.064 148.163 127.677 148.387 127.35C148.62 127.014 148.933 126.753 149.325 126.566C149.726 126.379 150.174 126.286 150.669 126.286C151.331 126.286 151.924 126.454 152.447 126.79C152.979 127.126 153.357 127.597 153.581 128.204L152.517 128.694C152.349 128.302 152.097 127.994 151.761 127.77C151.425 127.537 151.047 127.42 150.627 127.42C150.244 127.42 149.941 127.518 149.717 127.714C149.493 127.901 149.381 128.139 149.381 128.428C149.381 128.643 149.437 128.82 149.549 128.96C149.661 129.091 149.796 129.193 149.955 129.268C150.113 129.333 150.267 129.389 150.417 129.436L151.649 129.8C152.265 129.977 152.741 130.253 153.077 130.626C153.422 130.999 153.595 131.447 153.595 131.97C153.595 132.39 153.478 132.768 153.245 133.104C153.011 133.44 152.689 133.701 152.279 133.888C151.868 134.075 151.392 134.168 150.851 134.168ZM158.365 134.084C157.628 134.084 157.058 133.874 156.657 133.454C156.265 133.034 156.069 132.441 156.069 131.676V127.7H154.697V126.454H154.977C155.313 126.454 155.579 126.351 155.775 126.146C155.971 125.941 156.069 125.67 156.069 125.334V124.718H157.371V126.454H159.065V127.7H157.371V131.634C157.371 131.886 157.408 132.105 157.483 132.292C157.567 132.479 157.702 132.628 157.889 132.74C158.076 132.843 158.323 132.894 158.631 132.894C158.696 132.894 158.776 132.889 158.869 132.88C158.972 132.871 159.065 132.861 159.149 132.852V134C159.028 134.028 158.892 134.047 158.743 134.056C158.594 134.075 158.468 134.084 158.365 134.084ZM162.416 134L166.154 123.57H167.778L171.516 134H170.046L169.192 131.55H164.74L163.886 134H162.416ZM165.174 130.29H168.758L166.77 124.564H167.162L165.174 130.29ZM172.83 134V123.57H176.512C177.203 123.57 177.809 123.701 178.332 123.962C178.855 124.223 179.261 124.597 179.55 125.082C179.849 125.567 179.998 126.137 179.998 126.79C179.998 127.443 179.849 128.013 179.55 128.498C179.261 128.974 178.855 129.347 178.332 129.618C177.819 129.879 177.212 130.01 176.512 130.01H174.202V134H172.83ZM174.202 128.75H176.554C176.974 128.75 177.338 128.671 177.646 128.512C177.954 128.353 178.192 128.125 178.36 127.826C178.528 127.527 178.612 127.182 178.612 126.79C178.612 126.389 178.528 126.043 178.36 125.754C178.192 125.455 177.954 125.227 177.646 125.068C177.338 124.909 176.974 124.83 176.554 124.83H174.202V128.75ZM181.853 134V123.57H183.225V128.218H188.447V123.57H189.833V134H188.447V129.478H183.225V134H181.853ZM198.32 134.168C197.714 134.168 197.158 134.033 196.654 133.762C196.16 133.491 195.777 133.109 195.506 132.614L195.688 132.39V134H194.414V123.402H195.716V128.078L195.52 127.756C195.8 127.308 196.183 126.953 196.668 126.692C197.154 126.421 197.709 126.286 198.334 126.286C199.044 126.286 199.678 126.459 200.238 126.804C200.808 127.149 201.256 127.621 201.582 128.218C201.909 128.806 202.072 129.478 202.072 130.234C202.072 130.971 201.909 131.639 201.582 132.236C201.256 132.833 200.808 133.305 200.238 133.65C199.678 133.995 199.039 134.168 198.32 134.168ZM198.222 132.908C198.698 132.908 199.123 132.791 199.496 132.558C199.87 132.325 200.159 132.007 200.364 131.606C200.579 131.195 200.686 130.738 200.686 130.234C200.686 129.711 200.579 129.254 200.364 128.862C200.159 128.461 199.87 128.143 199.496 127.91C199.123 127.667 198.698 127.546 198.222 127.546C197.746 127.546 197.317 127.663 196.934 127.896C196.561 128.129 196.262 128.451 196.038 128.862C195.824 129.263 195.716 129.721 195.716 130.234C195.716 130.738 195.824 131.195 196.038 131.606C196.262 132.007 196.561 132.325 196.934 132.558C197.317 132.791 197.746 132.908 198.222 132.908ZM204.049 137.08C203.881 137.08 203.713 137.066 203.545 137.038C203.377 137.019 203.218 136.977 203.069 136.912V135.75C203.171 135.759 203.297 135.778 203.447 135.806C203.605 135.834 203.759 135.848 203.909 135.848C204.347 135.848 204.679 135.75 204.903 135.554C205.136 135.358 205.355 135.027 205.561 134.56L206.037 133.426L206.009 134.56L202.789 126.454H204.203L206.709 132.894H206.289L208.781 126.454H210.223L206.821 134.896C206.662 135.297 206.457 135.666 206.205 136.002C205.962 136.338 205.663 136.599 205.309 136.786C204.954 136.982 204.534 137.08 204.049 137.08ZM212.947 134L216.685 123.57H218.309L222.047 134H220.577L219.723 131.55H215.271L214.417 134H212.947ZM215.705 130.29H219.289L217.301 124.564H217.693L215.705 130.29ZM223.361 134V123.57H224.733V134H223.361ZM231.855 134.168C231.117 134.168 230.436 134.037 229.811 133.776C229.195 133.505 228.653 133.127 228.187 132.642C227.729 132.157 227.375 131.587 227.123 130.934C226.871 130.281 226.745 129.567 226.745 128.792C226.745 128.008 226.871 127.289 227.123 126.636C227.375 125.983 227.729 125.413 228.187 124.928C228.644 124.443 229.185 124.069 229.811 123.808C230.436 123.537 231.117 123.402 231.855 123.402C232.573 123.402 233.217 123.528 233.787 123.78C234.365 124.032 234.851 124.359 235.243 124.76C235.644 125.161 235.929 125.591 236.097 126.048L234.837 126.622C234.594 126.043 234.216 125.577 233.703 125.222C233.189 124.858 232.573 124.676 231.855 124.676C231.127 124.676 230.478 124.849 229.909 125.194C229.349 125.539 228.91 126.02 228.593 126.636C228.275 127.252 228.117 127.971 228.117 128.792C228.117 129.604 228.275 130.318 228.593 130.934C228.91 131.55 229.349 132.031 229.909 132.376C230.478 132.721 231.127 132.894 231.855 132.894C232.573 132.894 233.189 132.717 233.703 132.362C234.216 131.998 234.594 131.527 234.837 130.948L236.097 131.522C235.929 131.979 235.644 132.409 235.243 132.81C234.851 133.211 234.365 133.538 233.787 133.79C233.217 134.042 232.573 134.168 231.855 134.168ZM239.783 134V124.83H236.955V123.57H243.955V124.83H241.169V134H239.783ZM245.277 134V123.57H252.067V124.83H246.649V128.134H251.787V129.394H246.649V132.74H252.067V134H245.277Z" fill="#718096"/>
<path d="M96.9677 537.612H15.5241C9.39882 537.612 4.86645 534.864 1.92703 529.369C-1.01239 523.875 -0.589048 518.503 3.19707 513.255L177.671 260.019C180.256 256.531 183.488 254.138 187.366 252.842C191.244 251.546 195.123 251.746 199.001 253.444C202.879 254.987 205.949 257.58 208.212 261.223C210.474 264.866 211.282 268.755 210.636 272.891L189.536 441.3H288.247C294.926 441.3 299.635 444.248 302.375 450.144C305.114 456.04 304.391 461.612 300.205 466.86L108.002 698.148C105.416 701.39 102.084 703.497 98.006 704.469C93.9278 705.441 90.1497 705.078 86.6717 703.381C83.0396 701.837 80.2308 699.321 78.2453 695.833C76.2603 692.345 75.514 688.455 76.0066 684.164L96.9677 537.612Z" fill="url(#paint1_linear_525_10134)"/>
<defs>
<filter id="filter0_d_525_10134" x="30" y="0" width="272" height="168" filterUnits="userSpaceOnUse" color-interpolation-filters="sRGB">
<feFlood flood-opacity="0" result="BackgroundImageFix"/>
<feColorMatrix in="SourceAlpha" type="matrix" values="0 0 0 0 0 0 0 0 0 0 0 0 0 0 0 0 0 0 127 0" result="hardAlpha"/>
<feMorphology radius="4" operator="dilate" in="SourceAlpha" result="effect1_dropShadow_525_10134"/>
<feOffset dx="14" dy="27"/>
<feGaussianBlur stdDeviation="22.5"/>
<feColorMatrix type="matrix" values="0 0 0 0 0.439216 0 0 0 0 0.564706 0 0 0 0 0.690196 0 0 0 0.2 0"/>
<feBlend mode="normal" in2="BackgroundImageFix" result="effect1_dropShadow_525_10134"/>
<feBlend mode="normal" in="SourceGraphic" in2="effect1_dropShadow_525_10134" result="shape"/>
</filter>
<filter id="filter1_d_525_10134" x="61.05" y="40.55" width="96.9" height="97.9" filterUnits="userSpaceOnUse" color-interpolation-filters="sRGB">
<feFlood flood-opacity="0" result="BackgroundImageFix"/>
<feColorMatrix in="SourceAlpha" type="matrix" values="0 0 0 0 0 0 0 0 0 0 0 0 0 0 0 0 0 0 127 0" result="hardAlpha"/>
<feOffset dy="32.5"/>
<feGaussianBlur stdDeviation="20.475"/>
<feComposite in2="hardAlpha" operator="out"/>
<feColorMatrix type="matrix" values="0 0 0 0 0.262745 0 0 0 0 0.0941176 0 0 0 0 1 0 0 0 0.28 0"/>
<feBlend mode="normal" in2="BackgroundImageFix" result="effect1_dropShadow_525_10134"/>
<feBlend mode="normal" in="SourceGraphic" in2="effect1_dropShadow_525_10134" result="shape"/>
</filter>
<linearGradient id="paint0_linear_525_10134" x1="109.5" y1="37.5" x2="109.5" y2="76.5" gradientUnits="userSpaceOnUse">
<stop stop-color="#FD7702" stop-opacity="0"/>
<stop offset="1" stop-color="#FC8C2A"/>
</linearGradient>
<linearGradient id="paint1_linear_525_10134" x1="152" y1="252" x2="152" y2="705" gradientUnits="userSpaceOnUse">
<stop stop-color="#FD7702" stop-opacity="0"/>
<stop offset="1" stop-color="#FD7702" stop-opacity="0.13"/>
</linearGradient>
</defs>
</svg>
