<svg width="250" height="240" viewBox="0 0 250 240" fill="none" xmlns="http://www.w3.org/2000/svg">
<path d="M235.503 150.506L235.419 147.156C235.392 146.053 235.353 144.961 235.341 143.876L235.503 144.038C232.893 144.069 230.282 144.132 227.671 144.135L219.839 144.172L220.135 143.876L220.103 150.506L219.839 150.242C221.13 150.252 222.417 150.246 223.711 150.274L227.603 150.341L235.503 150.506ZM235.503 150.506L227.74 150.671L223.8 150.737C222.483 150.765 221.16 150.76 219.839 150.77L219.577 150.772L219.576 150.506L219.544 143.876L219.542 143.579L219.839 143.58L227.671 143.618C230.282 143.621 232.893 143.684 235.503 143.715L235.666 143.717L235.664 143.876C235.654 145.002 235.614 146.12 235.587 147.226L235.503 150.506Z" fill="#E7E8E5"/>
<path d="M226.765 158.865L226.682 155.516C226.655 154.412 226.615 153.321 226.604 152.236L226.765 152.397C224.155 152.428 221.544 152.491 218.933 152.494L211.102 152.532L211.397 152.236L211.365 158.865L211.102 158.601C212.392 158.611 213.679 158.606 214.974 158.634L218.865 158.7L226.765 158.865ZM226.765 158.865L219.001 159.03L215.062 159.097C213.746 159.124 212.421 159.119 211.102 159.128L210.84 159.131L210.838 158.865L210.806 152.236L210.805 151.939L211.102 151.94L218.933 151.977C221.544 151.98 224.155 152.044 226.765 152.074L226.928 152.076L226.927 152.236C226.916 153.36 226.876 154.479 226.85 155.585L226.765 158.865Z" fill="#E7E8E5"/>
<path d="M244.241 158.865L244.157 155.516C244.13 154.412 244.09 153.321 244.079 152.236L244.241 152.397C241.63 152.428 239.019 152.491 236.409 152.494L228.577 152.532L228.872 152.236L228.84 158.865L228.577 158.601C229.867 158.611 231.154 158.606 232.449 158.634L236.341 158.7L244.241 158.865ZM244.241 158.865L236.477 159.03L232.537 159.097C231.221 159.124 229.897 159.119 228.577 159.128L228.314 159.131L228.313 158.865L228.281 152.236L228.28 151.939L228.577 151.94L236.409 151.977C239.019 151.98 241.63 152.044 244.241 152.074L244.404 152.076L244.402 152.236C244.391 153.36 244.351 154.479 244.325 155.585L244.241 158.865Z" fill="#E7E8E5"/>
<path d="M21.4714 150.506L21.3872 147.156C21.3605 146.053 21.3209 144.961 21.3099 143.876L21.4711 144.038C18.8606 144.069 16.2501 144.132 13.6393 144.135L5.80766 144.172L6.10297 143.876L6.07108 150.506L5.80766 150.242C7.09814 150.252 8.38517 150.246 9.67935 150.274L13.5711 150.341L21.4714 150.506ZM21.4714 150.506L13.7077 150.671L9.76761 150.737C8.451 150.765 7.12748 150.76 5.80766 150.77L5.54517 150.772L5.54402 150.506L5.5119 143.876L5.51074 143.579L5.80766 143.58L13.6393 143.618C16.2501 143.621 18.8606 143.684 21.4711 143.715L21.6343 143.717L21.6327 143.876C21.6215 145.002 21.582 146.12 21.555 147.226L21.4714 150.506Z" fill="#E7E8E5"/>
<path d="M30.2087 158.865L30.1246 155.516C30.098 154.412 30.0582 153.321 30.0472 152.236L30.2087 152.397C27.5979 152.428 24.9876 152.491 22.3768 152.494L14.5449 152.532L14.8405 152.236L14.8086 158.865L14.5449 158.601C15.8354 158.611 17.1227 158.606 18.4168 158.634L22.3086 158.7L30.2087 158.865ZM30.2087 158.865L22.445 159.03L18.5052 159.097C17.1886 159.124 15.865 159.119 14.5449 159.128L14.2827 159.131L14.2813 158.865L14.2494 152.236L14.248 151.939L14.5449 151.94L22.3768 151.977C24.9876 151.98 27.5979 152.044 30.2087 152.074L30.3716 152.076L30.3702 152.236C30.3591 153.36 30.3193 154.479 30.2928 155.585L30.2087 158.865Z" fill="#E7E8E5"/>
<path d="M72.1854 93.2809L72.1014 89.9318C72.0741 88.8281 72.0345 87.7368 72.0239 86.652L72.1848 86.8138C69.5744 86.844 66.964 86.9074 64.353 86.9109L56.5215 86.9477L56.8166 86.652L56.785 93.2809L56.5215 93.0173C57.812 93.0273 59.099 93.022 60.3934 93.0498L64.285 93.1162L72.1854 93.2809ZM72.1854 93.2809L64.4217 93.4462L60.4815 93.5125C59.1648 93.5404 57.8414 93.535 56.5215 93.5451L56.259 93.5475L56.2577 93.2809L56.226 86.652L56.2246 86.3546L56.5215 86.3564L64.353 86.3931C66.964 86.3961 69.5744 86.4601 72.1848 86.4903L72.348 86.4921L72.3468 86.652C72.3356 87.7765 72.296 88.8956 72.2688 90.0011L72.1854 93.2809Z" fill="#E7E8E5"/>
<path d="M63.4473 101.64L63.3633 98.2911C63.3366 97.1873 63.297 96.096 63.2858 95.0113L63.4473 95.1724C60.8363 95.2032 58.2259 95.2666 55.6151 95.2696L47.7835 95.3069L48.0788 95.0113L48.0471 101.64L47.7835 101.376C49.0737 101.387 50.3612 101.381 51.6554 101.409L55.5472 101.475L63.4473 101.64ZM63.4473 101.64L55.6837 101.805L51.7434 101.872C50.4271 101.9 49.1033 101.894 47.7835 101.904L47.521 101.907L47.5196 101.64L47.488 95.0113L47.4863 94.7139L47.7835 94.7151L55.6151 94.7524C58.2259 94.7554 60.8363 94.8193 63.4473 94.8495L63.6099 94.8513L63.6087 95.0113C63.5975 96.1357 63.5579 97.2549 63.5312 98.3604L63.4473 101.64Z" fill="#E7E8E5"/>
<path d="M80.9223 101.64L80.8383 98.2911C80.8117 97.1873 80.7721 96.096 80.7608 95.0113L80.9223 95.1724C78.3119 95.2032 75.7016 95.2666 73.0906 95.2696L65.2589 95.3069L65.554 95.0113L65.5227 101.64L65.2589 101.376C66.5496 101.387 67.8367 101.381 69.1309 101.409L73.0226 101.475L80.9223 101.64ZM80.9223 101.64L73.1592 101.805L69.2191 101.872C67.9024 101.9 66.5791 101.894 65.2589 101.904L64.9962 101.907L64.995 101.64L64.9631 95.0113L64.9619 94.7139L65.2589 94.7151L73.0906 94.7524C75.7016 94.7554 78.3119 94.8193 80.9223 94.8495L81.0856 94.8513L81.0838 95.0113C81.0731 96.1357 81.0329 97.2549 81.0063 98.3604L80.9223 101.64Z" fill="#E7E8E5"/>
<path d="M234.598 7.22667L234.514 3.87699C234.487 2.77327 234.447 1.682 234.436 0.597237L234.598 0.758973C231.987 0.789187 229.376 0.852572 226.765 0.856127L218.934 0.892866L219.229 0.597237L219.197 7.22667L218.934 6.96244C220.224 6.97251 221.512 6.96718 222.806 6.99503L226.697 7.06138L234.598 7.22667ZM234.598 7.22667L226.835 7.39137L222.894 7.45773C221.578 7.48617 220.255 7.48023 218.934 7.4903L218.672 7.49268L218.67 7.22667L218.638 0.597237L218.637 0.299829L218.934 0.301015L226.765 0.338333C229.376 0.341295 231.987 0.405287 234.598 0.435501L234.761 0.43728L234.759 0.597237C234.748 1.72229 234.708 2.84082 234.682 3.94691L234.598 7.22667Z" fill="#E7E8E5"/>
<path d="M243.335 15.5855L243.251 12.2364C243.225 11.1326 243.185 10.0414 243.174 8.9566L243.335 9.11775C240.724 9.14856 238.114 9.21195 235.503 9.21491L227.672 9.25223L227.967 8.9566L227.935 15.5855L227.672 15.3218C228.962 15.3319 230.249 15.326 231.543 15.3544L235.435 15.4208L243.335 15.5855ZM243.335 15.5855L235.572 15.7507L231.632 15.8171C230.315 15.8455 228.992 15.8396 227.672 15.8497L227.409 15.8521L227.408 15.5855L227.376 8.9566L227.375 8.65919L227.672 8.66097L235.503 8.69771C238.114 8.70067 240.724 8.76465 243.335 8.79486L243.498 8.79664L243.497 8.9566C243.486 10.0811 243.446 11.2002 243.419 12.3057L243.335 15.5855Z" fill="#E7E8E5"/>
<path d="M21.4245 7.23375L21.3404 3.88407C21.3138 2.78035 21.2741 1.68907 21.2632 0.604303L21.4245 0.766038C18.814 0.796253 16.2032 0.859653 13.5926 0.863207L5.76078 0.899931L6.05608 0.604303L6.0242 7.23375L5.76078 6.96952C7.05126 6.98019 8.33876 6.97425 9.63271 7.00209L13.5243 7.06846L21.4245 7.23375ZM21.4245 7.23375L13.6608 7.39845L9.72073 7.4648C8.40412 7.49264 7.08083 7.48731 5.76078 7.49798L5.49829 7.49976L5.49714 7.23375L5.46548 0.604303L5.46387 0.306895L5.76078 0.308081L13.5926 0.345413C16.2032 0.348375 18.814 0.412352 21.4245 0.442567L21.5874 0.444346L21.586 0.604303C21.5747 1.72935 21.5352 2.84789 21.5086 3.95398L21.4245 7.23375Z" fill="#E7E8E5"/>
<path d="M79.3918 55.9434H46.9834V16.5708H79.3918V55.9434Z" fill="#E7E8E5"/>
<path d="M75.6889 52.3495H50.6865V20.1638H75.6889V52.3495Z" fill="white"/>
<path d="M51.6623 52.3495H50.6865V20.1638H51.6623V52.3495Z" fill="#D4D6D3"/>
<path d="M80.3676 55.9434H79.3916V16.5708H80.3676V55.9434Z" fill="#D4D6D3"/>
<path d="M64.9605 42.1926H59.0654V24.6012H64.9605V42.1926Z" fill="#D4D6D3"/>
<path d="M72.2127 45.1975H56.4932V36.5792H72.2127V45.1975Z" stroke="#E7E8E5" stroke-width="1.33333" stroke-miterlimit="10"/>
<path d="M40.8576 97.5435H8.44922V58.1709H40.8576V97.5435Z" fill="#E7E8E5"/>
<path d="M37.1545 93.9497H12.1523V61.7646H37.1545V93.9497Z" fill="white"/>
<path d="M13.1279 93.9497H12.1523V61.7646H13.1279V93.9497Z" fill="#D4D6D3"/>
<path d="M41.8332 97.5435H40.8574V58.1709H41.8332V97.5435Z" fill="#D4D6D3"/>
<path d="M27.2828 82.874H22.2324V70.0844H27.2828V82.874Z" fill="#E7E8E5"/>
<path d="M32.601 86.674H19.0332V77.8572H32.601V86.674Z" stroke="#D4D6D3" stroke-width="1.33333" stroke-miterlimit="10"/>
<path d="M231.751 204.673H185.362V140.377H231.751V204.673Z" fill="#E7E8E5"/>
<path d="M233.999 140.377H183.115V137.992H233.999V140.377Z" fill="#D4D6D3"/>
<path d="M250.002 140.377H233.999V137.992H250.002V140.377Z" fill="#E7E8E5"/>
<path d="M247.468 204.673H231.751V140.377H247.468V204.673Z" fill="#D4D6D3"/>
<path d="M226.698 170.077H190.414V149.588H226.698V170.077Z" stroke="#BEBFBD" stroke-width="0.333333" stroke-miterlimit="10"/>
<path d="M210.563 159.633H203.477V155.553H210.563V159.633Z" fill="#BEBFBD"/>
<path d="M212.658 159.325H205.571V155.861H212.658V159.325Z" stroke="#BEBFBD" stroke-width="0.333333" stroke-miterlimit="10"/>
<path d="M226.698 195.963H190.414V175.473H226.698V195.963Z" stroke="#BEBFBD" stroke-width="0.333333" stroke-miterlimit="10"/>
<path d="M210.563 185.517H203.477V181.439H210.563V185.517Z" fill="#BEBFBD"/>
<path d="M212.658 185.21H205.571V181.746H212.658V185.21Z" stroke="#BEBFBD" stroke-width="0.333333" stroke-miterlimit="10"/>
<path d="M0 204.673L31.2501 204.529L62.5006 204.477L125.001 204.378L187.501 204.476L218.752 204.528L250.002 204.673L218.752 204.818L187.501 204.871L125.001 204.969L62.5006 204.87L31.2501 204.818L0 204.673Z" fill="#17282F"/>
<path d="M169.393 207.399C169.393 212.594 165.509 216.796 160.719 216.796H75.0855C70.2842 216.796 66.3996 212.594 66.3996 207.399V17.9559C66.3996 7.37428 70.2842 6.85826 75.0855 6.85826H92.2414C93.2381 6.85826 94.0532 7.9922 94.0532 9.39865V10.0053C94.0532 13.2999 95.8538 13.3117 98.0625 13.3117H137.731C139.962 13.3117 141.751 13.2999 141.751 10.0053V9.39865C141.751 7.9922 142.555 6.85826 143.569 6.85826H160.719C165.509 6.85826 169.393 8.26413 169.393 17.9559V207.399ZM165.758 0.597321H70.0345C64.6896 0.597321 60.3525 5.01517 60.3525 10.4757V213.501C60.3525 218.951 64.6896 223.38 70.0345 223.38H165.758C171.103 223.38 175.452 218.951 175.452 213.501V10.4757C175.452 5.01517 171.103 0.597321 165.758 0.597321Z" fill="#17282F"/>
<path d="M169.393 17.9559V207.399C169.393 212.594 165.509 216.796 160.719 216.796H75.0853C70.2839 216.796 66.3994 212.594 66.3994 207.399V17.9559C66.3994 7.37427 70.2839 6.85825 75.0853 6.85825H92.2411C93.2379 6.85825 94.053 7.99219 94.053 9.39865V10.0053C94.053 13.2999 95.8536 13.3117 98.0623 13.3117H137.731C139.961 13.3117 141.751 13.2999 141.751 10.0053V9.39865C141.751 7.99219 142.555 6.85825 143.569 6.85825H160.719C165.509 6.85825 169.393 8.26411 169.393 17.9559Z" fill="white"/>
<path d="M169.393 17.9559V207.399C169.393 212.594 165.509 216.796 160.719 216.796H75.0853C70.2839 216.796 66.3994 212.594 66.3994 207.399V17.9559C66.3994 7.37427 70.2839 6.85825 75.0853 6.85825H92.2411C93.2379 6.85825 94.053 7.99219 94.053 9.39865V10.0053C94.053 13.2999 95.8536 13.3117 98.0623 13.3117H137.731C139.961 13.3117 141.751 13.2999 141.751 10.0053V9.39865C141.751 7.99219 142.555 6.85825 143.569 6.85825H160.719C165.509 6.85825 169.393 8.26411 169.393 17.9559Z" fill="white"/>
<path d="M169.393 17.9559V34.3162H66.3994V17.9559C66.3994 7.37423 70.2839 6.85821 75.0853 6.85821H92.2411C93.2379 6.85821 94.053 7.99215 94.053 9.39861V10.0053C94.053 13.2998 95.8536 13.3117 98.0623 13.3117H137.731C139.961 13.3117 141.751 13.2998 141.751 10.0053V9.39861C141.751 7.99215 142.555 6.85821 143.569 6.85821H160.719C165.509 6.85821 169.393 8.26408 169.393 17.9559Z" fill="#FABB1E"/>
<path d="M89.28 10.9852C89.2244 11.0403 89.1694 11.0954 89.1137 11.1505C89.0824 11.1813 89.051 11.2133 89.0203 11.2447C88.5749 10.8122 88.0449 10.5811 87.4238 10.5811C86.8033 10.5811 86.2733 10.811 85.8249 11.2465C85.7953 11.2157 85.7657 11.1842 85.735 11.1534C85.6812 11.0978 85.6261 11.0432 85.5717 10.9881C85.5705 10.987 85.5682 10.9864 85.5664 10.9852C85.5664 10.984 85.5664 10.9828 85.5664 10.981C85.5705 10.9781 85.5747 10.9751 85.5788 10.9716C85.6486 10.9094 85.7167 10.8448 85.7882 10.7855C85.9373 10.6629 86.1 10.561 86.2733 10.4763C86.4773 10.3762 86.6915 10.3009 86.9157 10.26C87.0215 10.2405 87.1292 10.2304 87.2369 10.2174C87.2729 10.2132 87.5101 10.2121 87.5172 10.2126C87.5906 10.2186 87.6633 10.2215 87.7361 10.2292C87.9384 10.2511 88.1348 10.3003 88.3252 10.3702C88.4637 10.4206 88.5962 10.4834 88.7239 10.5568C88.8588 10.6345 88.9866 10.7227 89.1049 10.8234C89.164 10.8744 89.2214 10.9289 89.28 10.981C89.28 10.9828 89.28 10.984 89.28 10.9852Z" fill="white"/>
<path d="M86.3503 11.7666C86.2634 11.6795 86.177 11.5942 86.0889 11.5065C86.387 11.2127 86.7395 11.0266 87.1542 10.9703C87.7741 10.8862 88.3059 11.0752 88.7572 11.5024C88.6679 11.5912 88.5815 11.6777 88.494 11.7648C88.1976 11.4763 87.841 11.3211 87.4227 11.3211C87.0051 11.3211 86.649 11.4769 86.3503 11.7666Z" fill="white"/>
<path d="M88.2323 12.0284C88.1459 12.1149 88.0595 12.2014 87.9714 12.2885C87.8206 12.1422 87.6378 12.061 87.4225 12.061C87.2084 12.0616 87.0256 12.1422 86.8736 12.2903C86.786 12.2032 86.6996 12.1161 86.6133 12.0296C87.0273 11.5954 87.7733 11.5604 88.2323 12.0284Z" fill="white"/>
<path d="M87.6578 12.526C87.6578 12.6564 87.5525 12.7618 87.4223 12.7618C87.2928 12.7618 87.1875 12.6564 87.1875 12.526C87.1875 12.3957 87.2928 12.2903 87.4223 12.2903C87.5525 12.2903 87.6578 12.3957 87.6578 12.526Z" fill="white"/>
<path d="M73.1182 11.487C73.1182 11.1096 73.424 10.8033 73.8008 10.8033C74.1776 10.8033 74.4834 11.1096 74.4834 11.487C74.4834 11.865 74.1776 12.1707 73.8008 12.1707C73.424 12.1707 73.1182 11.865 73.1182 11.487Z" fill="white"/>
<path d="M75.2676 11.487C75.2676 11.1096 75.5734 10.8033 75.9502 10.8033C76.327 10.8033 76.6328 11.1096 76.6328 11.487C76.6328 11.865 76.327 12.1707 75.9502 12.1707C75.5734 12.1707 75.2676 11.865 75.2676 11.487Z" fill="white"/>
<path d="M77.418 11.487C77.418 11.1096 77.7238 10.8033 78.1006 10.8033C78.478 10.8033 78.7838 11.1096 78.7838 11.487C78.7838 11.865 78.478 12.1707 78.1006 12.1707C77.7238 12.1707 77.418 11.865 77.418 11.487Z" fill="white"/>
<path d="M79.5674 11.487C79.5674 11.1096 79.8732 10.8033 80.25 10.8033C80.6268 10.8033 80.9326 11.1096 80.9326 11.487C80.9326 11.865 80.6268 12.1707 80.25 12.1707C79.8732 12.1707 79.5674 11.865 79.5674 11.487Z" fill="white"/>
<path d="M81.7178 11.487C81.7178 11.1096 82.0236 10.8033 82.401 10.8033C82.7778 10.8033 83.0836 11.1096 83.0836 11.487C83.0836 11.865 82.7778 12.1707 82.401 12.1707C82.0236 12.1707 81.7178 11.865 81.7178 11.487Z" fill="white"/>
<path d="M156.395 12.6962H161.386V10.6848H156.395V12.6962ZM161.669 12.9794H156.112V10.4016H161.669V12.9794Z" fill="white"/>
<path d="M160.155 10.8394H156.573V12.5415H160.155V10.8394Z" fill="white"/>
<path d="M162.167 12.3798H161.673V11.0011H162.167V12.3798Z" fill="white"/>
<path d="M75.7889 28.2632L72.7461 25.4076L75.7889 22.5526L76.2609 23.0562L73.7552 25.4076L76.2609 27.7596L75.7889 28.2632Z" fill="white"/>
<path d="M160.017 22.5526L163.059 25.4082L160.017 28.2632L159.544 27.7596L162.05 25.4082L159.544 23.0556L160.017 22.5526Z" fill="white"/>
<path d="M123.31 9.19604H112.49C112.121 9.19604 111.821 8.89627 111.821 8.52658C111.821 8.1569 112.121 7.85713 112.49 7.85713H123.31C123.679 7.85713 123.979 8.1569 123.979 8.52658C123.979 8.89627 123.679 9.19604 123.31 9.19604Z" fill="white"/>
<path d="M162.414 64.8862H73.3906V42.4741H162.414V64.8862Z" fill="#E7E8E5"/>
<path d="M86.3892 46.9334C82.6751 46.9334 79.653 49.9596 79.653 53.6801C79.653 57.4007 82.6751 60.4269 86.3892 60.4269C90.104 60.4269 93.126 57.4007 93.126 53.6801C93.126 49.9596 90.104 46.9334 86.3892 46.9334ZM86.3892 61.5128C82.077 61.5128 78.5693 57.999 78.5693 53.6801C78.5693 49.3612 82.077 45.848 86.3892 45.848C90.7014 45.848 94.2097 49.3612 94.2097 53.6801C94.2097 57.999 90.7014 61.5128 86.3892 61.5128Z" fill="#D4D6D3"/>
<path d="M90.1815 56.624L89.3286 57.4783L82.5977 50.7363L83.4506 49.8826L90.1815 56.624Z" fill="#D4D6D3"/>
<path d="M89.3286 49.8826L90.1815 50.7363L83.4506 57.4783L82.5977 56.624L89.3286 49.8826Z" fill="#D4D6D3"/>
<path d="M157.236 48.7889H99.9688V47.7036H157.236V48.7889Z" fill="#D4D6D3"/>
<path d="M157.236 53.1198H99.9688V52.0344H157.236V53.1198Z" fill="#D4D6D3"/>
<path d="M146.719 55.2993H99.9688V54.2134H146.719V55.2993Z" fill="#D4D6D3"/>
<path d="M130.993 57.4783H99.9688V56.3923H130.993V57.4783Z" fill="#D4D6D3"/>
<path d="M146.719 59.6573H99.9688V58.5714H146.719V59.6573Z" fill="#D4D6D3"/>
<path d="M162.414 122.369H73.3906V99.9576H162.414V122.369Z" fill="#E7E8E5"/>
<path d="M86.3892 104.417C82.6751 104.417 79.653 107.443 79.653 111.164C79.653 114.884 82.6751 117.91 86.3892 117.91C90.104 117.91 93.126 114.884 93.126 111.164C93.126 107.443 90.104 104.417 86.3892 104.417ZM86.3892 118.996C82.077 118.996 78.5693 115.483 78.5693 111.164C78.5693 106.845 82.077 103.331 86.3892 103.331C90.7014 103.331 94.2097 106.845 94.2097 111.164C94.2097 115.483 90.7014 118.996 86.3892 118.996Z" fill="#D4D6D3"/>
<path d="M90.1815 114.107L89.3286 114.961L82.5977 108.22L83.4506 107.366L90.1815 114.107Z" fill="#D4D6D3"/>
<path d="M89.3286 107.366L90.1815 108.22L83.4506 114.961L82.5977 114.107L89.3286 107.366Z" fill="#D4D6D3"/>
<path d="M157.236 106.272H99.9688V105.187H157.236V106.272Z" fill="#D4D6D3"/>
<path d="M157.236 110.603H99.9688V109.517H157.236V110.603Z" fill="#D4D6D3"/>
<path d="M146.719 112.782H99.9688V111.696H146.719V112.782Z" fill="#D4D6D3"/>
<path d="M130.993 114.961H99.9688V113.875H130.993V114.961Z" fill="#D4D6D3"/>
<path d="M146.719 117.14H99.9688V116.054H146.719V117.14Z" fill="#D4D6D3"/>
<path d="M162.414 151.484H73.3906V129.072H162.414V151.484Z" fill="#E7E8E5"/>
<path d="M86.3892 133.531C82.6751 133.531 79.653 136.558 79.653 140.278C79.653 143.998 82.6751 147.025 86.3892 147.025C90.104 147.025 93.126 143.998 93.126 140.278C93.126 136.558 90.104 133.531 86.3892 133.531ZM86.3892 148.111C82.077 148.111 78.5693 144.596 78.5693 140.278C78.5693 135.959 82.077 132.445 86.3892 132.445C90.7014 132.445 94.2097 135.959 94.2097 140.278C94.2097 144.596 90.7014 148.111 86.3892 148.111Z" fill="#D4D6D3"/>
<path d="M90.1815 143.222L89.3286 144.076L82.5977 137.334L83.4506 136.48L90.1815 143.222Z" fill="#D4D6D3"/>
<path d="M89.3286 136.48L90.1815 137.334L83.4506 144.076L82.5977 143.222L89.3286 136.48Z" fill="#D4D6D3"/>
<path d="M157.236 135.387H99.9688V134.301H157.236V135.387Z" fill="#D4D6D3"/>
<path d="M157.236 139.718H99.9688V138.632H157.236V139.718Z" fill="#D4D6D3"/>
<path d="M146.719 141.897H99.9688V140.811H146.719V141.897Z" fill="#D4D6D3"/>
<path d="M130.993 144.076H99.9688V142.99H130.993V144.076Z" fill="#D4D6D3"/>
<path d="M146.719 146.255H99.9688V145.169H146.719V146.255Z" fill="#D4D6D3"/>
<path d="M162.414 180.598H73.3906V158.187H162.414V180.598Z" fill="#E7E8E5"/>
<path d="M86.3892 162.646C82.6751 162.646 79.653 165.672 79.653 169.393C79.653 173.113 82.6751 176.139 86.3892 176.139C90.104 176.139 93.126 173.113 93.126 169.393C93.126 165.672 90.104 162.646 86.3892 162.646ZM86.3892 177.225C82.077 177.225 78.5693 173.712 78.5693 169.393C78.5693 165.074 82.077 161.56 86.3892 161.56C90.7014 161.56 94.2097 165.074 94.2097 169.393C94.2097 173.712 90.7014 177.225 86.3892 177.225Z" fill="#D4D6D3"/>
<path d="M90.1815 172.336L89.3286 173.19L82.5977 166.449L83.4506 165.595L90.1815 172.336Z" fill="#D4D6D3"/>
<path d="M89.3286 165.595L90.1815 166.449L83.4506 173.19L82.5977 172.336L89.3286 165.595Z" fill="#D4D6D3"/>
<path d="M157.236 164.501H99.9688V163.415H157.236V164.501Z" fill="#D4D6D3"/>
<path d="M157.236 168.832H99.9688V167.746H157.236V168.832Z" fill="#D4D6D3"/>
<path d="M146.719 171.011H99.9688V169.925H146.719V171.011Z" fill="#D4D6D3"/>
<path d="M130.993 173.19H99.9688V172.105H130.993V173.19Z" fill="#D4D6D3"/>
<path d="M146.719 175.37H99.9688V174.284H146.719V175.37Z" fill="#D4D6D3"/>
<path d="M165.335 94.2892H70.4707V70.4072H165.335V94.2892Z" fill="#FABB1E"/>
<path d="M68.988 95.8787H166.818V68.8177H68.988V95.8787ZM167.409 96.4712H68.3965V68.2253H167.409V96.4712Z" fill="#FABB1E"/>
<path d="M83.1677 86.6621L79.9238 83.3735L81.0134 82.2952L82.9086 84.2159L86.8452 78.0344L88.1371 78.8596L83.1677 86.6621Z" fill="white"/>
<path d="M84.3226 75.1592C80.3647 75.1592 77.1445 78.3838 77.1445 82.3485C77.1445 86.3125 80.3647 89.5378 84.3226 89.5378C88.2805 89.5378 91.5013 86.3125 91.5013 82.3485C91.5013 78.3838 88.2805 75.1592 84.3226 75.1592ZM84.3226 90.6948C79.7277 90.6948 75.9893 86.9506 75.9893 82.3485C75.9893 77.7464 79.7277 74.0021 84.3226 74.0021C88.9175 74.0021 92.6559 77.7464 92.6559 82.3485C92.6559 86.9506 88.9175 90.6948 84.3226 90.6948Z" fill="white"/>
<path d="M159.816 77.1367H98.792V75.9791H159.816V77.1367Z" fill="white"/>
<path d="M159.816 81.7513H98.792V80.5943H159.816V81.7513Z" fill="white"/>
<path d="M148.609 84.0737H98.792V82.9167H148.609V84.0737Z" fill="white"/>
<path d="M131.852 86.3955H98.792V85.2385H131.852V86.3955Z" fill="white"/>
<path d="M148.609 88.7173H98.792V87.5602H148.609V88.7173Z" fill="white"/>
<path d="M111.149 203.473C111.149 204.283 110.493 204.939 109.685 204.939C108.876 204.939 108.222 204.283 108.222 203.473C108.222 202.664 108.876 202.007 109.685 202.007C110.493 202.007 111.149 202.664 111.149 203.473Z" fill="#D4D6D3"/>
<path d="M120.306 203.473C120.306 204.803 119.23 205.881 117.902 205.881C116.575 205.881 115.499 204.803 115.499 203.473C115.499 202.144 116.575 201.066 117.902 201.066C119.23 201.066 120.306 202.144 120.306 203.473Z" fill="#D4D6D3"/>
<path d="M127.583 203.473C127.583 204.283 126.928 204.939 126.12 204.939C125.311 204.939 124.656 204.283 124.656 203.473C124.656 202.664 125.311 202.007 126.12 202.007C126.928 202.007 127.583 202.664 127.583 203.473Z" fill="#D4D6D3"/>
<path d="M178.421 48.6829C178.421 48.6829 178.332 48.7007 178.185 48.7422C178.19 48.7126 178.208 48.6889 178.227 48.6711H178.232C178.351 48.6829 178.421 48.6829 178.421 48.6829Z" fill="#17282F"/>
<path d="M196.776 77.4845C196.774 77.4845 196.774 77.4812 196.776 77.4812" stroke="#F576B7" stroke-linecap="round" stroke-linejoin="round"/>
<path d="M196.776 77.4845C196.774 77.4845 196.774 77.4812 196.776 77.4812" stroke="#F576B7" stroke-linecap="round" stroke-linejoin="round"/>
<path d="M185.23 219.84C185.194 219.84 185.159 219.846 185.123 219.851V219.775C185.159 219.792 185.194 219.816 185.23 219.84Z" fill="#F68C95"/>
<path d="M194.988 69.5819C198.072 84.8864 208.179 109.502 209.174 112.988C210.018 115.944 227.803 110.404 226.579 108.686C225.012 106.486 209.337 78.8435 201.806 68.8769C195.595 60.6579 193.54 62.3949 194.988 69.5819Z" fill="#F68C95"/>
<path d="M225.775 107.425C227.625 109.864 230.523 116.833 231.186 119.16C231.85 121.486 233.274 128.32 231.547 129.009C229.819 129.699 229.243 127.732 229.243 127.732C229.243 127.732 229.389 130.713 227.586 131.249C225.785 131.784 224.988 128.694 224.988 128.694C224.988 128.694 224.914 131.766 223.079 132.172C221.244 132.577 220.962 129.336 220.962 129.336C220.962 129.336 221.025 132.148 219.373 131.845C217.385 131.48 217.853 126.283 216.928 123.77C216.718 123.199 211.85 112.505 211.85 112.505L225.775 107.425Z" fill="#F68C95"/>
<path d="M221.289 129.429C221.624 125.606 221.111 123.876 219.383 120.517C219.35 120.451 219.44 120.386 219.481 120.451C221.471 123.586 222.428 125.664 221.473 129.455C221.426 129.64 221.273 129.611 221.289 129.429Z" fill="#17282F"/>
<path d="M225.254 128.813C225.255 124.812 224.715 122.93 223.164 119.278C223.142 119.227 223.227 119.184 223.254 119.235C225.074 122.689 225.981 124.784 225.455 128.781C225.431 128.962 225.254 128.996 225.254 128.813Z" fill="#17282F"/>
<path d="M229.456 127.364C229.178 123.49 228.675 121.401 226.715 118.05C226.669 117.971 226.78 117.896 226.834 117.971C229.164 121.193 229.812 123.796 229.573 127.343C229.557 127.585 229.473 127.607 229.456 127.364Z" fill="#17282F"/>
<path d="M209.062 111.167C209.062 111.167 209.279 115.971 209.84 118.06C210.4 120.149 215.351 127.165 216.925 126.18C218.956 124.909 216.895 120.295 215.591 118.168C215.591 118.168 220.293 115.231 219.529 111.599C218.765 107.967 209.062 111.167 209.062 111.167Z" fill="#F68C95"/>
<path d="M217.368 125.648C218.385 123.149 216.494 120.467 215.382 118.309C215.298 118.144 215.4 118.018 215.538 117.979C217.427 116.616 219.695 114.143 219.656 111.682C219.655 111.61 219.757 111.598 219.768 111.671C220.167 114.304 218.137 116.916 215.972 118.276C217.147 120.472 218.926 123.245 217.391 125.658C217.383 125.672 217.361 125.663 217.368 125.648Z" fill="#17282F"/>
<path d="M224.828 102.946C224.828 102.946 206.761 111.043 206.339 111.41C206.339 111.41 194.697 74.6917 193.74 68.4663C192.782 62.2409 195.038 60.5602 199.021 64.8915C205.578 72.0198 224.828 102.946 224.828 102.946Z" fill="#D4D6D3"/>
<path d="M206.885 110.001C206.542 110.001 206.258 110.285 206.258 110.629C206.258 110.907 206.435 111.138 206.684 111.221C206.879 111.126 207.145 110.996 207.477 110.836C207.5 110.771 207.513 110.7 207.513 110.629C207.513 110.285 207.234 110.001 206.885 110.001ZM222.173 99.0175C221.826 99.0175 221.545 99.2989 221.545 99.6454C221.545 99.9926 221.826 100.274 222.173 100.274C222.519 100.274 222.8 99.9926 222.8 99.6454C222.8 99.2989 222.519 99.0175 222.173 99.0175ZM214.53 99.0175C214.183 99.0175 213.902 99.2989 213.902 99.6454C213.902 99.9926 214.183 100.274 214.53 100.274C214.876 100.274 215.157 99.9926 215.157 99.6454C215.157 99.2989 214.876 99.0175 214.53 99.0175ZM206.887 99.0175C206.54 99.0175 206.259 99.2989 206.259 99.6454C206.259 99.9926 206.54 100.274 206.887 100.274C207.233 100.274 207.514 99.9926 207.514 99.6454C207.514 99.2989 207.233 99.0175 206.887 99.0175ZM218.352 104.486C218.005 104.486 217.724 104.767 217.724 105.114C217.724 105.461 218.005 105.742 218.352 105.742C218.698 105.742 218.979 105.461 218.979 105.114C218.979 104.767 218.698 104.486 218.352 104.486ZM210.708 104.486C210.362 104.486 210.081 104.767 210.081 105.114C210.081 105.461 210.362 105.742 210.708 105.742C211.055 105.742 211.335 105.461 211.335 105.114C211.335 104.767 211.055 104.486 210.708 104.486ZM214.53 88.033C214.183 88.033 213.902 88.3138 213.902 88.661C213.902 89.0081 214.183 89.2895 214.53 89.2895C214.876 89.2895 215.157 89.0081 215.157 88.661C215.157 88.3138 214.876 88.033 214.53 88.033ZM206.887 88.033C206.54 88.033 206.259 88.3138 206.259 88.661C206.259 89.0081 206.54 89.2895 206.887 89.2895C207.233 89.2895 207.514 89.0081 207.514 88.661C207.514 88.3138 207.233 88.033 206.887 88.033ZM199.243 88.033C199.202 88.033 199.16 88.0389 199.124 88.0448C199.243 88.4418 199.361 88.8446 199.485 89.2416C199.716 89.1468 199.87 88.9216 199.87 88.661C199.87 88.3114 199.592 88.033 199.243 88.033ZM218.352 93.5012C218.005 93.5012 217.724 93.782 217.724 94.1292C217.724 94.4764 218.005 94.7578 218.352 94.7578C218.698 94.7578 218.979 94.4764 218.979 94.1292C218.979 93.782 218.698 93.5012 218.352 93.5012ZM210.708 93.5012C210.362 93.5012 210.081 93.782 210.081 94.1292C210.081 94.4764 210.362 94.7578 210.708 94.7578C211.055 94.7578 211.335 94.4764 211.335 94.1292C211.335 93.782 211.055 93.5012 210.708 93.5012ZM203.065 93.5012C202.718 93.5012 202.437 93.782 202.437 94.1292C202.437 94.4764 202.718 94.7578 203.065 94.7578C203.412 94.7578 203.693 94.4764 203.693 94.1292C203.693 93.782 203.412 93.5012 203.065 93.5012ZM206.887 77.0485C206.54 77.0485 206.259 77.3293 206.259 77.6765C206.259 78.0236 206.54 78.3045 206.887 78.3045C207.233 78.3045 207.514 78.0236 207.514 77.6765C207.514 77.3293 207.233 77.0485 206.887 77.0485ZM199.244 77.0485C198.897 77.0485 198.616 77.3293 198.616 77.6765C198.616 78.0236 198.897 78.3045 199.244 78.3045C199.59 78.3045 199.871 78.0236 199.871 77.6765C199.871 77.3293 199.59 77.0485 199.244 77.0485ZM210.708 82.5167C210.362 82.5167 210.081 82.7975 210.081 83.1447C210.081 83.4919 210.362 83.7727 210.708 83.7727C211.055 83.7727 211.335 83.4919 211.335 83.1447C211.335 82.7975 211.055 82.5167 210.708 82.5167ZM203.065 82.5167C202.718 82.5167 202.437 82.7975 202.437 83.1447C202.437 83.4919 202.718 83.7727 203.065 83.7727C203.412 83.7727 203.693 83.4919 203.693 83.1447C203.693 82.7975 203.412 82.5167 203.065 82.5167ZM199.244 66.064C198.897 66.064 198.616 66.3448 198.616 66.692C198.616 67.0392 198.897 67.32 199.244 67.32C199.59 67.32 199.871 67.0392 199.871 66.692C199.871 66.3448 199.59 66.064 199.244 66.064ZM203.065 71.5322C202.718 71.5322 202.437 71.8131 202.437 72.1602C202.437 72.5074 202.718 72.7882 203.065 72.7882C203.412 72.7882 203.693 72.5074 203.693 72.1602C203.693 71.8131 203.412 71.5322 203.065 71.5322ZM196.05 72.1602C196.05 72.5074 195.769 72.7882 195.422 72.7882C195.075 72.7882 194.795 72.5074 194.795 72.1602C194.795 71.8131 195.075 71.5322 195.422 71.5322C195.769 71.5322 196.05 71.8131 196.05 72.1602Z" fill="white"/>
<path d="M193.738 68.4652C194.695 74.6935 206.34 111.41 206.34 111.41C206.651 111.138 215.878 106.948 221.519 104.424L197.063 63.1438C194.333 61.3061 192.951 63.3536 193.738 68.4652Z" fill="#BEBFBD"/>
<path d="M220.487 99.3528C220.534 99.3344 220.574 99.399 220.53 99.4245C218.169 100.774 207.278 105.681 205.778 106.158C205.733 106.172 205.7 106.099 205.742 106.078C210.761 103.57 215.765 101.176 220.487 99.3528Z" fill="#17282F"/>
<path d="M193.693 62.0815C193.668 62.6882 191.618 66.9834 188.946 67.3644C188.075 67.487 187.195 62.7575 187.195 62.7575L187.051 62.4234L185.029 57.7425L190.063 52.9638L190.798 52.3181C190.798 52.3181 191.267 53.6357 191.834 55.2809C191.861 55.3573 191.887 55.4337 191.915 55.5155C191.949 55.6079 191.984 55.6944 192.011 55.7821C192.1 56.0268 192.188 56.2774 192.271 56.528C192.335 56.7193 192.398 56.9048 192.458 57.1074C192.524 57.3094 192.583 57.5067 192.649 57.7093C193.25 59.7147 193.7 61.825 193.693 62.0815Z" fill="#F68C95"/>
<path d="M191.834 55.281C191.176 59.4387 188.374 61.6171 187.051 62.4235L185.029 57.7426L190.063 52.9639L190.798 52.3182C190.798 52.3182 191.267 53.6358 191.834 55.281Z" fill="#17282F"/>
<path d="M176.824 51.2369C177.166 60.1799 182.534 61.075 184.479 60.908C186.221 60.7587 192.17 60.3813 192.751 51.4502C193.333 42.5191 189.073 39.8514 185.067 39.798C181.061 39.7441 176.481 42.2934 176.824 51.2369Z" fill="#F68C95"/>
<path d="M177.191 49.2866C177.396 49.2398 177.578 49.1622 177.777 49.0941C178.001 49.0182 178.187 48.9809 178.338 48.7842C178.419 48.6788 178.39 48.4856 178.296 48.398C178.074 48.193 177.777 48.2179 177.503 48.2984C177.206 48.3861 177 48.5295 176.825 48.7854C176.655 49.0325 176.919 49.3488 177.191 49.2866Z" fill="#17282F"/>
<path d="M182.962 48.9762C182.75 48.9744 182.556 48.9377 182.347 48.9146C182.112 48.8885 181.922 48.8921 181.733 48.7327C181.631 48.6468 181.617 48.4525 181.691 48.3458C181.863 48.0982 182.159 48.0585 182.444 48.0786C182.753 48.1 182.985 48.1959 183.211 48.4074C183.43 48.613 183.24 48.9786 182.962 48.9762Z" fill="#17282F"/>
<path d="M181.89 51.3086C181.892 51.2849 181.94 51.3335 181.941 51.3583C181.974 51.9674 182.113 52.6588 182.679 52.814C182.696 52.8187 182.697 52.8489 182.676 52.8477C182 52.811 181.823 51.8904 181.89 51.3086Z" fill="#17282F"/>
<path d="M182.377 50.6285C183.347 50.4709 183.589 52.4236 182.692 52.5688C181.808 52.7121 181.566 50.7606 182.377 50.6285Z" fill="#17282F"/>
<path d="M182.772 50.6842C182.957 50.7731 183.148 50.9473 183.356 50.9419C183.596 50.9354 183.75 50.7091 183.88 50.4928C183.894 50.4703 183.913 50.4857 183.917 50.5112C183.969 50.8845 183.873 51.2867 183.48 51.3922C183.121 51.4887 182.817 51.1902 182.677 50.8258C182.651 50.7583 182.698 50.6481 182.772 50.6842Z" fill="#17282F"/>
<path d="M178.603 51.3773C178.596 51.3542 178.56 51.4117 178.564 51.4366C178.663 52.0379 178.675 52.7435 178.156 53.0166C178.14 53.0249 178.145 53.0551 178.166 53.0498C178.819 52.8673 178.794 51.9307 178.603 51.3773Z" fill="#17282F"/>
<path d="M177.981 50.8175C177 50.872 177.183 52.8312 178.09 52.7803C178.984 52.7305 178.802 50.7713 177.981 50.8175Z" fill="#17282F"/>
<path d="M177.585 50.9839C177.44 51.1024 177.305 51.305 177.121 51.3346C176.908 51.3684 176.73 51.1717 176.575 50.981C176.559 50.9614 176.545 50.9792 176.547 51.0052C176.571 51.3803 176.731 51.7588 177.097 51.7973C177.431 51.8323 177.641 51.4887 177.696 51.1077C177.706 51.0366 177.643 50.9365 177.585 50.9839Z" fill="#17282F"/>
<path d="M182.48 55.9758C182.361 56.1411 182.25 56.3597 182.036 56.4148C181.831 56.4682 181.57 56.416 181.365 56.3746C181.345 56.3704 181.33 56.3935 181.345 56.4095C181.54 56.6133 181.893 56.7016 182.162 56.6056C182.425 56.5114 182.52 56.2531 182.543 55.9936C182.546 55.9569 182.498 55.9521 182.48 55.9758Z" fill="#17282F"/>
<path d="M179.707 54.0723C179.707 54.0723 179.683 54.9912 179.731 55.4177C179.736 55.4574 179.841 55.4646 179.986 55.4568C179.994 55.4586 179.998 55.461 180.003 55.4557C180.769 55.4882 181.497 55.1429 181.885 54.4758C181.909 54.4313 181.851 54.3934 181.815 54.4242C181.299 54.9005 180.691 55.0771 180.025 55.1636C179.982 55.0487 180.117 53.5918 180.049 53.5942C179.814 53.6007 179.373 53.811 179.107 53.923C179.099 52.0082 179.398 50.1077 179.362 48.2018C179.36 48.1331 179.261 48.1242 179.248 48.1864C178.794 50.1557 178.754 52.3595 178.711 54.3371C178.703 54.5836 179.544 54.1641 179.707 54.0723Z" fill="#17282F"/>
<path d="M179.984 55.1251C179.984 55.1251 180.404 55.6957 180.981 55.9024C181.193 55.9794 181.422 56.0102 181.663 55.9468C182.156 55.8183 182.169 55.3651 182.08 54.9776C182.007 54.6583 181.859 54.3834 181.859 54.3834C181.859 54.3834 181.139 55.0564 179.984 55.1251Z" fill="#17282F"/>
<path d="M180.98 55.9024C181.193 55.9794 181.422 56.0102 181.662 55.9468C182.155 55.8183 182.168 55.3651 182.079 54.9776C181.551 55.0303 181.027 55.3888 180.98 55.9024Z" fill="#F578BA"/>
<path d="M241.861 205.092C242.529 206.404 243.18 207.699 243.801 208.961C244.189 209.745 244.562 210.511 244.922 211.253C247.237 216.028 248.879 219.755 248.61 220.223C247.786 221.668 215.274 239.001 213.935 239.231C212.599 239.453 211.866 235.647 212.591 233.967C213.034 232.947 216.713 228.031 219.531 224.337C219.538 224.327 219.541 224.319 219.541 224.319C221.355 221.948 222.807 220.075 222.807 220.075L220.683 216.303L210.977 199.143L232.758 187.612C232.758 187.612 237.542 196.557 241.861 205.092Z" fill="#F68C95"/>
<path d="M213.936 239.23C215.273 239.003 247.788 221.667 248.609 220.221C248.882 219.756 247.239 216.028 244.923 211.252C244.758 210.912 244.588 210.566 244.418 210.22C240.241 212.739 225.896 224.959 218.887 227.415C216.376 228.296 218.716 225.416 218.716 225.416C216.042 228.928 212.995 233.041 212.593 233.965C211.868 235.644 212.599 239.451 213.936 239.23Z" fill="#17282F"/>
<path d="M216.013 215.139C215.754 215.014 200.499 182.353 196.663 170.195C191.677 154.4 185.753 124.219 184.404 118.177C184.404 118.177 180.074 107.889 178.793 96.4966C178.791 96.4764 207.984 96.4924 207.984 96.4924C207.984 96.4924 215.641 111.162 211.693 121.526C211.332 122.476 217.543 155.083 220.366 161.014C222.807 166.144 240.66 201.791 241.142 202.038L216.013 215.139Z" fill="#273E47"/>
<path d="M236.552 197.275C233.648 198.479 222.422 204.145 219.629 205.583C218.865 205.976 218.102 206.371 217.34 206.765C216.581 207.157 215.77 207.529 215.079 208.031C215.035 208.062 215.077 208.135 215.126 208.123C215.84 207.931 216.525 207.594 217.2 207.298C217.92 206.982 218.636 206.655 219.35 206.327C220.779 205.672 235.103 198.32 236.593 197.353C236.641 197.323 236.605 197.254 236.552 197.275Z" fill="#17282F"/>
<path d="M218 205.049C215.536 199.516 203.757 170.685 201.687 164.336C199.631 158.03 197.906 151.617 196.279 145.188C194.624 138.652 193.069 132.091 191.478 125.539C189.865 118.895 188.286 112.225 187.086 105.492C186.934 104.638 186.784 103.785 186.64 102.93C186.63 102.871 186.527 102.887 186.536 102.946C187.496 109.743 188.805 116.482 190.305 123.178C191.792 129.818 193.418 136.428 195.065 143.031C196.678 149.498 198.384 155.945 200.382 162.306C202.369 168.634 217.049 204.393 217.91 205.106C217.962 205.149 218.028 205.112 218 205.049Z" fill="#17282F"/>
<path d="M178.79 96.496C180.074 107.889 184.404 118.179 184.404 118.179C185.421 122.747 189.065 141.125 192.933 156.647L207.981 96.49C207.981 96.49 178.79 96.4782 178.79 96.496Z" fill="#17282F"/>
<path d="M191.847 221.939C191.825 223.412 191.797 224.863 191.758 226.268C191.735 227.143 191.707 227.995 191.678 228.819C191.498 234.124 191.211 238.188 190.754 238.476C189.351 239.368 152.52 239.475 151.23 239.052C149.945 238.622 151.072 234.914 152.498 233.769C153.366 233.075 158.91 230.45 163.125 228.503C163.137 228.498 163.143 228.492 163.143 228.492C165.853 227.245 168.011 226.268 168.011 226.268L167.893 221.939L167.56 202.226H191.891C191.891 202.226 192.011 212.373 191.847 221.939Z" fill="#F68C95"/>
<path d="M196.191 122.656C196.185 122.673 193.695 146.371 192.528 158.309C192.235 161.283 192.032 163.529 191.964 164.494C191.936 164.872 191.919 171.069 191.908 179.174C191.897 186.28 193.661 219.189 193.661 219.189H166.038C166.038 219.189 167.221 168.016 167.638 162.242C167.688 161.571 167.733 160.882 167.779 160.177C168.866 143.826 169.464 120.02 177.471 96.4967H208.026C208.026 96.4967 208.78 110.116 202.504 120.111C202.504 120.111 198.012 121.632 196.191 122.656Z" fill="#273E47"/>
<path d="M191.594 213.209C188.457 213.017 175.887 213.186 172.747 213.254C171.889 213.272 171.031 213.292 170.172 213.312C169.319 213.332 168.427 213.311 167.586 213.459C167.534 213.468 167.539 213.551 167.588 213.561C168.314 213.703 169.077 213.7 169.814 213.731C170.599 213.762 171.386 213.782 172.171 213.801C173.743 213.838 189.834 213.512 191.596 213.296C191.652 213.29 191.651 213.213 191.594 213.209Z" fill="#17282F"/>
<path d="M181.252 99.8344C179.196 106.761 177.495 113.773 176.189 120.884C174.892 127.939 173.87 135.051 173.096 142.183C172.311 149.414 171.764 156.672 171.402 163.937C171.04 171.184 170.874 178.44 170.863 185.695C170.851 192.949 170.76 210.905 170.815 211.813C170.819 211.874 170.908 211.871 170.908 211.811C170.947 204.595 171.457 195.738 171.473 188.521C171.488 181.265 171.616 174.007 171.912 166.756C172.204 159.554 172.669 152.363 173.376 145.191C174.09 137.959 175.029 130.753 176.277 123.595C177.51 116.518 178.997 109.481 180.705 102.506C180.921 101.624 181.148 100.745 181.377 99.8658C181.398 99.7846 181.275 99.7544 181.252 99.8344Z" fill="#17282F"/>
<path d="M205.796 118.756C205.015 119.554 203.967 119.988 202.904 120.262C201.76 120.556 200.58 120.737 199.421 120.957C196.833 121.448 194.246 121.88 191.606 121.97C190.12 122.021 188.608 121.982 187.16 121.619C187.102 121.604 187.081 121.691 187.138 121.708C188.429 122.099 189.727 122.403 191.073 122.52C192.43 122.638 193.782 122.569 195.131 122.406C196.499 122.241 197.86 121.976 199.207 121.689C200.417 121.431 201.642 121.16 202.811 120.752C203.973 120.347 205.064 119.78 205.856 118.814C205.89 118.773 205.834 118.718 205.796 118.756Z" fill="#17282F"/>
<path d="M151.231 239.054C152.523 239.474 189.349 239.365 190.753 238.475C191.212 238.186 191.501 234.124 191.676 228.82C191.705 228.066 191.728 227.288 191.75 226.489C187.22 227.033 167.72 231.306 159.371 231.306C157.342 231.306 160.567 229.915 160.169 229.881C156.668 231.526 153.174 233.228 152.5 233.767C151.072 234.912 149.945 238.622 151.231 239.054Z" fill="#17282F"/>
<path d="M177.737 87.9643L175.2 101.558C175.2 101.558 205.248 101.978 212.304 101.48C212.304 101.48 204.925 72.6982 197.338 64.4473C193.543 60.3209 189.088 60.629 186.248 63.5142C185.529 64.2446 176.956 75.5929 176.053 79.9284C175.265 83.7538 177.737 87.9643 177.737 87.9643Z" fill="#D4D6D3"/>
<path d="M206.886 99.0175C206.54 99.0175 206.259 99.2989 206.259 99.6455C206.259 99.9926 206.54 100.274 206.886 100.274C207.233 100.274 207.513 99.9926 207.513 99.6455C207.513 99.2989 207.233 99.0175 206.886 99.0175ZM199.243 99.0175C198.897 99.0175 198.616 99.2989 198.616 99.6455C198.616 99.9926 198.897 100.274 199.243 100.274C199.589 100.274 199.871 99.9926 199.871 99.6455C199.871 99.2989 199.589 99.0175 199.243 99.0175ZM191.6 99.0175C191.254 99.0175 190.973 99.2989 190.973 99.6455C190.973 99.9926 191.254 100.274 191.6 100.274C191.946 100.274 192.227 99.9926 192.227 99.6455C192.227 99.2989 191.946 99.0175 191.6 99.0175ZM183.957 99.0175C183.61 99.0175 183.33 99.2989 183.33 99.6455C183.33 99.9926 183.61 100.274 183.957 100.274C184.303 100.274 184.584 99.9926 184.584 99.6455C184.584 99.2989 184.303 99.0175 183.957 99.0175ZM176.314 99.0175C175.967 99.0175 175.687 99.2989 175.687 99.6455C175.687 99.9926 175.967 100.274 176.314 100.274C176.66 100.274 176.941 99.9926 176.941 99.6455C176.941 99.2989 176.66 99.0175 176.314 99.0175ZM206.886 88.033C206.54 88.033 206.259 88.3138 206.259 88.661C206.259 89.0081 206.54 89.2896 206.886 89.2896C207.233 89.2896 207.513 89.0081 207.513 88.661C207.513 88.3138 207.233 88.033 206.886 88.033ZM199.243 88.033C198.897 88.033 198.616 88.3138 198.616 88.661C198.616 89.0081 198.897 89.2896 199.243 89.2896C199.589 89.2896 199.871 89.0081 199.871 88.661C199.871 88.3138 199.589 88.033 199.243 88.033ZM191.6 88.033C191.254 88.033 190.973 88.3138 190.973 88.661C190.973 89.0081 191.254 89.2896 191.6 89.2896C191.946 89.2896 192.227 89.0081 192.227 88.661C192.227 88.3138 191.946 88.033 191.6 88.033ZM183.957 88.033C183.61 88.033 183.33 88.3138 183.33 88.661C183.33 89.0081 183.61 89.2896 183.957 89.2896C184.303 89.2896 184.584 89.0081 184.584 88.661C184.584 88.3138 184.303 88.033 183.957 88.033ZM210.15 93.8449C210.102 93.9278 210.079 94.0285 210.079 94.1292C210.079 94.3603 210.203 94.5617 210.393 94.6683C210.316 94.4017 210.232 94.1233 210.15 93.8449ZM203.064 93.5012C202.718 93.5012 202.437 93.7821 202.437 94.1292C202.437 94.4764 202.718 94.7578 203.064 94.7578C203.411 94.7578 203.692 94.4764 203.692 94.1292C203.692 93.7821 203.411 93.5012 203.064 93.5012ZM195.421 93.5012C195.075 93.5012 194.794 93.7821 194.794 94.1292C194.794 94.4764 195.075 94.7578 195.421 94.7578C195.768 94.7578 196.049 94.4764 196.049 94.1292C196.049 93.7821 195.768 93.5012 195.421 93.5012ZM187.778 93.5012C187.432 93.5012 187.151 93.7821 187.151 94.1292C187.151 94.4764 187.432 94.7578 187.778 94.7578C188.125 94.7578 188.406 94.4764 188.406 94.1292C188.406 93.7821 188.125 93.5012 187.778 93.5012ZM180.135 93.5012C179.789 93.5012 179.508 93.7821 179.508 94.1292C179.508 94.4764 179.789 94.7578 180.135 94.7578C180.481 94.7578 180.763 94.4764 180.763 94.1292C180.763 93.7821 180.481 93.5012 180.135 93.5012ZM199.243 77.0485C198.897 77.0485 198.616 77.3293 198.616 77.6765C198.616 78.0237 198.897 78.3045 199.243 78.3045C199.589 78.3045 199.871 78.0237 199.871 77.6765C199.871 77.3293 199.589 77.0485 199.243 77.0485ZM191.6 77.0485C191.254 77.0485 190.973 77.3293 190.973 77.6765C190.973 78.0237 191.254 78.3045 191.6 78.3045C191.946 78.3045 192.227 78.0237 192.227 77.6765C192.227 77.3293 191.946 77.0485 191.6 77.0485ZM183.957 77.0485C183.61 77.0485 183.33 77.3293 183.33 77.6765C183.33 78.0237 183.61 78.3045 183.957 78.3045C184.303 78.3045 184.584 78.0237 184.584 77.6765C184.584 77.3293 184.303 77.0485 183.957 77.0485ZM176.93 77.5527C176.824 77.7778 176.723 78.0029 176.634 78.2162C176.818 78.1036 176.942 77.9022 176.942 77.6771C176.942 77.6356 176.936 77.5882 176.93 77.5527ZM203.064 82.5168C202.718 82.5168 202.437 82.7976 202.437 83.1447C202.437 83.4919 202.718 83.7727 203.064 83.7727C203.411 83.7727 203.692 83.4919 203.692 83.1447C203.692 82.7976 203.411 82.5168 203.064 82.5168ZM195.421 82.5168C195.075 82.5168 194.794 82.7976 194.794 83.1447C194.794 83.4919 195.075 83.7727 195.421 83.7727C195.768 83.7727 196.049 83.4919 196.049 83.1447C196.049 82.7976 195.768 82.5168 195.421 82.5168ZM187.778 82.5168C187.432 82.5168 187.151 82.7976 187.151 83.1447C187.151 83.4919 187.432 83.7727 187.778 83.7727C188.125 83.7727 188.406 83.4919 188.406 83.1447C188.406 82.7976 188.125 82.5168 187.778 82.5168ZM180.135 82.5168C179.789 82.5168 179.508 82.7976 179.508 83.1447C179.508 83.4919 179.789 83.7727 180.135 83.7727C180.481 83.7727 180.763 83.4919 180.763 83.1447C180.763 82.7976 180.481 82.5168 180.135 82.5168ZM198.787 66.2666C198.68 66.3733 198.615 66.5273 198.615 66.6932C198.615 67.0368 198.899 67.3212 199.242 67.3212C199.319 67.3212 199.396 67.3093 199.467 67.2797C199.242 66.9302 199.011 66.5865 198.787 66.2666ZM191.6 66.064C191.254 66.064 190.973 66.3448 190.973 66.692C190.973 67.0392 191.254 67.32 191.6 67.32C191.946 67.32 192.227 67.0392 192.227 66.692C192.227 66.3448 191.946 66.064 191.6 66.064ZM184.223 66.1244C183.993 66.4384 183.751 66.7702 183.496 67.1197C183.614 67.2442 183.774 67.3212 183.957 67.3212C184.3 67.3212 184.585 67.0368 184.585 66.6932C184.585 66.4384 184.437 66.2252 184.223 66.1244ZM195.421 71.5323C195.075 71.5323 194.794 71.8131 194.794 72.1603C194.794 72.5074 195.075 72.7882 195.421 72.7882C195.768 72.7882 196.049 72.5074 196.049 72.1603C196.049 71.8131 195.768 71.5323 195.421 71.5323ZM187.778 71.5323C187.432 71.5323 187.151 71.8131 187.151 72.1603C187.151 72.5074 187.432 72.7882 187.778 72.7882C188.125 72.7882 188.406 72.5074 188.406 72.1603C188.406 71.8131 188.125 71.5323 187.778 71.5323ZM180.763 72.1614C180.763 72.5051 180.479 72.7894 180.136 72.7894C179.982 72.7894 179.84 72.7361 179.734 72.6354C179.953 72.2859 180.178 71.9422 180.402 71.5927C180.615 71.6934 180.763 71.9067 180.763 72.1614Z" fill="white"/>
<path d="M202.924 73.6153C203.643 75.1983 204.333 76.7973 204.997 78.4076C204.891 77.9206 204.772 77.4371 204.639 76.9584C204.62 76.8868 204.724 76.8648 204.749 76.9312C205.01 77.6421 205.191 78.3702 205.289 79.1155C207.414 84.3456 209.244 89.7072 210.736 95.1423C211.016 96.1684 211.301 97.1975 211.538 98.2349C211.784 99.3107 212.11 100.387 212.247 101.484C212.256 101.546 212.177 101.566 212.155 101.508C211.806 100.596 211.568 99.6277 211.302 98.6893C211.045 97.7876 210.774 96.8882 210.505 95.9901C209.956 94.1523 209.403 92.3152 208.829 90.4851C207.694 86.8688 206.44 83.2905 205.169 79.721C204.441 77.6795 203.64 75.6622 202.851 73.6437C202.835 73.6023 202.905 73.5744 202.924 73.6153Z" fill="#17282F"/>
<path d="M189.039 68.7828C187.196 72.8795 177.468 89.3429 172.176 91.1208C163.882 93.9095 153.71 92.1321 148.35 91.6392C145.354 91.3637 148.313 73.3292 151.514 74.3926C155.898 75.8506 166.558 77.2352 168.133 77.1848C169.707 77.1339 177.35 69.3989 183.2 64.8223C188.623 60.5798 192.088 62.0076 189.039 68.7828Z" fill="#F68C95"/>
<path d="M125.025 73.1709C124.804 75.7948 133.969 76.1598 133.969 76.1598C133.969 76.1598 132.738 76.7422 132.282 77.9691C131.758 79.3738 133.728 80.8117 133.728 80.8117C133.728 80.8117 132.605 81.6594 132.253 83.0043C131.886 84.3989 133.668 86.1342 133.668 86.1342C133.668 86.1342 133.055 87.4997 133.582 88.8801C134.484 91.2416 138.267 91.9828 140.668 92.4786C143.067 92.9739 150.197 92.3761 151.975 92.0118L155.311 75.8091C155.311 75.8091 149.393 72.4392 142.014 71.2372C139.594 70.8426 125.277 70.2004 125.025 73.1709Z" fill="#F68C95"/>
<path d="M134.128 75.9353C136.768 75.472 139.401 75.8168 142.049 76.0111C142.108 76.0152 142.1 76.1083 142.041 76.1029C139.41 75.879 136.769 76.1811 134.135 76.0626C134.062 76.0591 134.057 75.9477 134.128 75.9353Z" fill="#17282F"/>
<path d="M133.82 80.6209C134.421 80.5344 135.048 80.6463 135.645 80.7198C136.288 80.7998 136.928 80.8904 137.568 80.9917C138.849 81.1932 140.126 81.4242 141.394 81.6926C141.45 81.7044 141.446 81.7933 141.387 81.7844C140.109 81.5853 138.83 81.4058 137.546 81.2607C136.903 81.1884 136.26 81.1221 135.617 81.0587C135.018 81.0006 134.382 80.9888 133.806 80.798C133.721 80.7696 133.73 80.6339 133.82 80.6209Z" fill="#17282F"/>
<path d="M133.722 86.1408C134.241 86.0448 134.848 86.2267 135.36 86.3185C135.942 86.4222 136.524 86.5229 137.107 86.6206C138.272 86.8162 139.438 87.0105 140.609 87.1651C140.667 87.1728 140.66 87.264 140.601 87.2569C139.41 87.1059 138.217 86.9714 137.028 86.8102C136.443 86.7308 135.86 86.6485 135.276 86.5626C134.781 86.4897 134.152 86.4553 133.71 86.1994C133.686 86.1846 133.696 86.1461 133.722 86.1408Z" fill="#17282F"/>
<path d="M155.723 74.8783L154.288 94.5972C154.288 94.5972 171.028 93.4609 173.674 91.5425C176.833 89.2521 187.587 74.2574 190.091 68.2021C192.596 62.1467 189.259 60.1093 184.026 64.0348C178.794 67.9609 169.503 75.7699 168.786 76.1361C168.069 76.5022 155.723 74.8783 155.723 74.8783Z" fill="#D4D6D3"/>
<path d="M176.315 88.033C175.966 88.033 175.689 88.3114 175.689 88.6609C175.689 88.8979 175.818 89.1053 176.014 89.2119C176.268 88.9216 176.534 88.6136 176.812 88.2818C176.7 88.1278 176.516 88.033 176.315 88.033ZM168.671 88.033C168.325 88.033 168.044 88.3138 168.044 88.6609C168.044 89.0081 168.325 89.2895 168.671 89.2895C169.018 89.2895 169.299 89.0081 169.299 88.6609C169.299 88.3138 169.018 88.033 168.671 88.033ZM161.029 88.033C160.682 88.033 160.401 88.3138 160.401 88.6609C160.401 89.0081 160.682 89.2895 161.029 89.2895C161.375 89.2895 161.656 89.0081 161.656 88.6609C161.656 88.3138 161.375 88.033 161.029 88.033ZM164.852 93.5012C164.727 93.5012 164.609 93.5367 164.514 93.6019C164.692 93.5782 164.87 93.5545 165.047 93.5368C164.988 93.5131 164.923 93.5012 164.852 93.5012ZM157.209 93.5012C156.861 93.5012 156.576 93.7797 156.576 94.1292C156.576 94.2299 156.6 94.3306 156.647 94.4136C157.002 94.384 157.392 94.3484 157.807 94.3188C157.825 94.2595 157.836 94.1944 157.836 94.1292C157.836 93.7797 157.553 93.5012 157.209 93.5012ZM183.957 77.0485C183.61 77.0485 183.33 77.3293 183.33 77.6765C183.33 78.0236 183.61 78.3044 183.957 78.3044C184.304 78.3044 184.585 78.0236 184.585 77.6765C184.585 77.3293 184.304 77.0485 183.957 77.0485ZM176.314 77.0485C175.967 77.0485 175.687 77.3293 175.687 77.6765C175.687 78.0236 175.967 78.3044 176.314 78.3044C176.661 78.3044 176.942 78.0236 176.942 77.6765C176.942 77.3293 176.661 77.0485 176.314 77.0485ZM168.671 77.0485C168.325 77.0485 168.044 77.3293 168.044 77.6765C168.044 78.0236 168.325 78.3044 168.671 78.3044C169.018 78.3044 169.299 78.0236 169.299 77.6765C169.299 77.3293 169.018 77.0485 168.671 77.0485ZM161.029 77.0485C160.682 77.0485 160.401 77.3293 160.401 77.6765C160.401 78.0236 160.682 78.3044 161.029 78.3044C161.375 78.3044 161.656 78.0236 161.656 77.6765C161.656 77.3293 161.375 77.0485 161.029 77.0485ZM180.136 82.5167C179.789 82.5167 179.509 82.7975 179.509 83.1447C179.509 83.4919 179.789 83.7727 180.136 83.7727C180.482 83.7727 180.763 83.4919 180.763 83.1447C180.763 82.7975 180.482 82.5167 180.136 82.5167ZM172.492 82.5167C172.146 82.5167 171.866 82.7975 171.866 83.1447C171.866 83.4919 172.146 83.7727 172.492 83.7727C172.839 83.7727 173.12 83.4919 173.12 83.1447C173.12 82.7975 172.839 82.5167 172.492 82.5167ZM164.85 82.5167C164.503 82.5167 164.222 82.7975 164.222 83.1447C164.222 83.4919 164.503 83.7727 164.85 83.7727C165.196 83.7727 165.477 83.4919 165.477 83.1447C165.477 82.7975 165.196 82.5167 164.85 82.5167ZM157.207 82.5167C156.86 82.5167 156.579 82.7975 156.579 83.1447C156.579 83.4919 156.86 83.7727 157.207 83.7727C157.553 83.7727 157.834 83.4919 157.834 83.1447C157.834 82.7975 157.553 82.5167 157.207 82.5167ZM183.957 66.064C183.61 66.064 183.33 66.3448 183.33 66.692C183.33 67.0391 183.61 67.32 183.957 67.32C184.304 67.32 184.585 67.0391 184.585 66.692C184.585 66.3448 184.304 66.064 183.957 66.064ZM187.779 71.5334C187.43 71.5334 187.152 71.8119 187.152 72.1614C187.152 72.4813 187.388 72.7479 187.702 72.7835C187.897 72.4399 188.092 72.1081 188.276 71.7823C188.169 71.6282 187.986 71.5334 187.779 71.5334ZM180.763 72.1602C180.763 72.5074 180.482 72.7882 180.136 72.7882C179.789 72.7882 179.509 72.5074 179.509 72.1602C179.509 71.8131 179.789 71.5322 180.136 71.5322C180.482 71.5322 180.763 71.8131 180.763 72.1602Z" fill="white"/>
<path d="M177.474 87.4731C177.653 87.2124 184.597 77.7357 186.21 75.072C186.735 74.2077 187.275 73.2888 187.803 72.486C187.835 72.4375 187.919 72.492 187.893 72.5477C187.649 73.0785 187.449 73.5347 187.184 74.0039C187.058 74.2278 186.931 74.4512 186.804 74.6751C187.097 74.3647 187.408 74.0767 187.723 73.7888C187.758 73.7574 187.812 73.7989 187.78 73.8374C187.497 74.1881 187.215 74.5353 186.903 74.8606C186.76 75.0099 186.616 75.1532 186.462 75.2913C186.457 75.2954 186.452 75.2996 186.448 75.3037C186.435 75.3262 186.423 75.3493 186.41 75.3718C182.669 81.5498 177.899 87.1923 177.548 87.5199C177.502 87.5637 177.437 87.527 177.474 87.4731Z" fill="#17282F"/>
<path d="M159.774 76.8062C159.78 76.7559 159.857 76.7512 159.858 76.8027C159.932 79.5232 159.111 91.4556 158.823 93.0066C158.814 93.0528 158.735 93.0469 158.736 92.9995C158.897 87.3849 159.151 81.8361 159.774 76.8062Z" fill="#17282F"/>
<path d="M181.841 38.7589C181.229 39.0984 177.106 39.4781 176.408 42.8213C175.877 45.3658 177.555 46.735 179.93 46.9299C182.549 47.1449 185.422 45.4701 185.422 45.4701C185.988 48.0597 186.734 51.3928 187.708 51.7725C188.501 52.0812 189.422 50.9597 189.422 50.9597C190.4 52.9793 190.728 57.5459 190.494 58.5281C189.942 60.844 188.136 64.2505 191.123 66.7092C191.778 67.2483 194.32 68.1405 196.806 66.9029C199.292 65.6647 199.426 63.5787 200.316 62.7256C201.207 61.8719 204.165 61.549 204.853 59.7361C205.541 57.9233 205.045 56.0654 205.333 55.1939C205.621 54.3224 206.807 53.9699 206.888 52.1866C206.969 50.404 205.183 50.0053 204.464 48.7736C203.964 47.9151 204.439 46.7533 203.315 45.5862C201.769 43.9807 199.589 45.3261 197.913 43.7141C196.597 42.4498 193.031 37.4905 188.353 36.9514C184.527 36.5112 181.841 38.7589 181.841 38.7589Z" fill="#17282F"/>
<path d="M192.582 38.7731C193.769 39.6061 194.72 40.6956 195.769 41.6607C196.295 42.1429 196.802 42.6447 197.358 43.0772C197.637 43.2852 197.923 43.5032 198.225 43.6323C198.299 43.6732 198.374 43.7011 198.444 43.7105C198.514 43.7283 198.583 43.7502 198.679 43.7484C198.857 43.7603 199.041 43.7597 199.226 43.7567C199.965 43.7562 200.735 43.7094 201.502 43.7876C202.261 43.8616 203.054 44.082 203.62 44.6087C203.898 44.8664 204.131 45.1922 204.234 45.5696C204.344 45.9464 204.325 46.341 204.283 46.7118C204.174 47.4524 204.085 48.187 204.319 48.8826C203.978 48.2362 204.016 47.4394 204.047 46.7142C204.063 46.3499 204.057 45.9914 203.942 45.678C203.833 45.3635 203.62 45.1028 203.361 44.8895C202.83 44.4742 202.147 44.2663 201.425 44.2159C200.702 44.1549 199.955 44.2153 199.189 44.2289C198.997 44.2277 198.804 44.2254 198.608 44.2088C198.428 44.1963 198.158 44.1365 198.004 44.0447C197.64 43.8764 197.356 43.6442 197.065 43.4191C196.501 42.9516 195.981 42.4522 195.494 41.9237L194.05 40.3336C193.579 39.7951 193.118 39.25 192.582 38.7731Z" fill="#17282F"/>
<path d="M205.784 54.4948C205.653 54.986 205.813 55.4937 205.887 55.9907C205.971 56.4914 206.058 56.9955 206.118 57.5068C206.184 58.0175 206.208 58.5382 206.165 59.0661C206.117 59.5892 205.998 60.1343 205.689 60.6112C205.019 61.5461 203.927 61.9033 202.937 62.1024C202.433 62.2037 201.931 62.2754 201.44 62.3838C200.949 62.4804 200.463 62.6231 200.06 62.9413C200.393 62.5438 200.903 62.3382 201.383 62.1687C201.874 62.0135 202.372 61.9027 202.855 61.7629C203.805 61.4969 204.785 61.1225 205.313 60.3576C205.567 59.9826 205.681 59.5051 205.739 59.0229C205.804 58.5382 205.786 58.0364 205.772 57.5346C205.754 57.0311 205.707 56.5263 205.667 56.0174C205.654 55.7615 205.642 55.5055 205.642 55.2478C205.655 54.9954 205.64 54.7182 205.784 54.4948Z" fill="#17282F"/>
<path d="M185.975 44.7776C185.482 45.2817 184.922 45.6941 184.335 46.0466C183.744 46.389 183.123 46.6817 182.466 46.8588C182.139 46.9477 181.809 47.0389 181.471 47.0804L180.965 47.1568L180.451 47.187C180.108 47.225 179.765 47.1859 179.416 47.193C179.069 47.1859 178.725 47.1302 178.369 47.1195C178.704 47.2244 179.046 47.3221 179.392 47.4003C179.743 47.4436 180.095 47.5283 180.453 47.5188C181.169 47.5721 181.89 47.4477 182.585 47.267C183.28 47.0703 183.934 46.7403 184.517 46.3227C185.1 45.9074 185.611 45.3854 185.975 44.7776Z" fill="#17282F"/>
<path d="M185.684 44.2751C185.365 45.6211 185.303 47.0282 185.501 48.4145C185.609 49.1041 185.793 49.7978 186.138 50.4241C186.471 51.0473 187.029 51.5971 187.708 51.7725C187.095 51.4371 186.701 50.8749 186.434 50.2765C186.174 49.6681 186.018 49.014 185.921 48.3493C185.717 47.0175 185.698 45.6537 185.684 44.2751Z" fill="#17282F"/>
<path d="M188.633 51.7251C188.633 51.7251 190.232 48.7155 191.572 49.254C192.913 49.7926 191.946 53.9894 190.537 54.7193C189.129 55.4492 188.43 54.1571 188.43 54.1571L188.633 51.7251Z" fill="#F68C95"/>
<path d="M191.266 50.4502C191.29 50.4454 191.297 50.478 191.278 50.4893C190.295 51.0343 189.867 52.0616 189.607 53.1037C189.868 52.6831 190.261 52.4218 190.819 52.7257C190.848 52.7417 190.827 52.7874 190.797 52.785C190.363 52.7459 190.066 52.8567 189.821 53.2311C189.647 53.4965 189.546 53.8176 189.435 54.1133C189.398 54.2116 189.225 54.1826 189.247 54.0712C189.249 54.0635 189.251 54.0546 189.252 54.0463C189.066 52.7287 189.866 50.7559 191.266 50.4502Z" fill="#17282F"/>
<path d="M130.069 100.782L132.386 106.384L130.072 107.343L127.743 101.703L123.92 104.673V88.8926L134.95 100.052L130.069 100.782Z" fill="#17282F"/>
<path d="M125 84.7324C124.767 83.9125 124.715 83.0925 124.705 82.2726C124.713 81.4527 124.766 80.6321 125 79.8122C125.235 80.6321 125.288 81.4527 125.296 82.2726C125.286 83.0925 125.234 83.9125 125 84.7324Z" fill="#17282F"/>
<path d="M120.77 86.4879C120.026 86.0732 119.41 85.5305 118.824 84.9576C118.251 84.3717 117.709 83.7544 117.296 83.0085C118.041 83.4226 118.657 83.9653 119.242 84.5388C119.814 85.1259 120.356 85.7426 120.77 86.4879Z" fill="#17282F"/>
<path d="M119.017 90.725C118.198 90.959 117.38 91.0112 116.561 91.0212C115.742 91.0124 114.923 90.9602 114.104 90.725C114.923 90.4904 115.742 90.4377 116.561 90.4294C117.38 90.4389 118.198 90.4916 119.017 90.725Z" fill="#17282F"/>
<path d="M120.77 94.9628C120.356 95.7081 119.814 96.3248 119.242 96.9114C118.657 97.4854 118.041 98.0281 117.296 98.4417C117.709 97.6958 118.251 97.079 118.824 96.4931C119.41 95.9202 120.026 95.3775 120.77 94.9628Z" fill="#17282F"/>
<path d="M130.984 90.725C131.802 90.4916 132.622 90.4389 133.44 90.4294C134.259 90.4377 135.078 90.4904 135.896 90.725C135.078 90.9602 134.259 91.0124 133.44 91.0212C132.622 91.0112 131.802 90.959 130.984 90.725Z" fill="#17282F"/>
<path d="M129.231 86.4879C129.646 85.7426 130.187 85.1259 130.759 84.5388C131.344 83.9653 131.96 83.4226 132.705 83.0085C132.291 83.7544 131.75 84.3717 131.178 84.9576C130.591 85.5305 129.975 86.0732 129.231 86.4879Z" fill="#17282F"/>
</svg>
