<svg width="1728" height="882" viewBox="0 0 1728 882" fill="none" xmlns="http://www.w3.org/2000/svg">
<g clip-path="url(#clip0_377_106)">
<path d="M238 -72C238 53.9213 135.921 156 10 156C-115.921 156 -218 53.9213 -218 -72C-218 -197.921 -115.921 -300 10 -300C135.921 -300 238 -197.921 238 -72Z" stroke="#FE9E4B" stroke-width="2.66667" stroke-miterlimit="10"/>
<path d="M213.168 -72C213.168 40.208 122.205 131.168 10 131.168C-102.205 131.168 -193.168 40.208 -193.168 -72C-193.168 -184.208 -102.205 -275.168 10 -275.168C122.205 -275.168 213.168 -184.208 213.168 -72Z" stroke="#CAC6C6" stroke-width="2.66667" stroke-miterlimit="10"/>
<path d="M190.594 -72.0001C190.594 27.7413 109.739 108.593 10.0005 108.593C-89.7381 108.593 -170.593 27.7413 -170.593 -72.0001C-170.593 -171.741 -89.7381 -252.593 10.0005 -252.593C109.739 -252.593 190.594 -171.741 190.594 -72.0001Z" stroke="#FE9E4B" stroke-width="2.66667" stroke-miterlimit="10"/>
<path d="M167.266 -72C167.266 14.8547 96.8567 85.2654 10.0007 85.2654C-76.8553 85.2654 -147.265 14.8547 -147.265 -72C-147.265 -158.856 -76.8553 -229.265 10.0007 -229.265C96.8567 -229.265 167.266 -158.856 167.266 -72Z" stroke="#CAC6C6" stroke-width="2.66667" stroke-miterlimit="10"/>
<path d="M138.674 -72C138.674 -0.934665 81.0658 56.6733 10.0005 56.6733C-61.0648 56.6733 -118.673 -0.934665 -118.673 -72C-118.673 -143.065 -61.0648 -200.673 10.0005 -200.673C81.0658 -200.673 138.674 -143.065 138.674 -72Z" stroke="#FE9E4B" stroke-width="2.66667" stroke-miterlimit="10"/>
<path d="M113.842 -72C113.842 -14.6507 67.3485 31.8413 10.0005 31.8413C-47.3475 31.8413 -93.8408 -14.6507 -93.8408 -72C-93.8408 -129.351 -47.3475 -175.841 10.0005 -175.841C67.3485 -175.841 113.842 -129.351 113.842 -72Z" stroke="#CAC6C6" stroke-width="2.66667" stroke-miterlimit="10"/>
<path d="M270.369 638.797C144.362 657.362 123.911 761.984 129.437 811.975" stroke="#FD7702" stroke-width="2" stroke-dasharray="3 3"/>
<path d="M254.366 633.267C129.028 655.91 111.983 761.141 119.127 810.926" stroke="#FD7702" stroke-width="2" stroke-dasharray="3 3"/>
<path d="M246.155 627.118C120.676 648.968 102.965 754.089 109.795 803.919" stroke="#FD7702" stroke-width="2" stroke-dasharray="3 3"/>
<path d="M239.072 621C113.449 642.006 95.0328 747.006 101.527 796.881" stroke="#FD7702" stroke-width="2" stroke-dasharray="3 3"/>
<circle cx="1417.83" cy="23.8475" r="2.34746" stroke="#FD7702"/>
<circle cx="1417.83" cy="37.1353" r="2.34746" stroke="#FD7702"/>
<circle cx="1417.83" cy="50.4236" r="2.34746" stroke="#FD7702"/>
<circle cx="1417.83" cy="63.7122" r="2.34746" stroke="#FD7702"/>
<circle cx="1417.83" cy="77" r="2.34746" stroke="#FD7702"/>
<circle cx="1417.83" cy="90.2884" r="2.34746" stroke="#FD7702"/>
<circle cx="1417.83" cy="103.576" r="2.34746" stroke="#FD7702"/>
<circle cx="1417.83" cy="116.865" r="2.34746" stroke="#FD7702"/>
<circle cx="1417.83" cy="130.152" r="2.34746" stroke="#FD7702"/>
<circle cx="1431.12" cy="23.8475" r="2.34746" stroke="#FD7702"/>
<circle cx="1431.12" cy="37.1353" r="2.34746" stroke="#FD7702"/>
<circle cx="1431.12" cy="50.4236" r="2.34746" stroke="#FD7702"/>
<circle cx="1431.12" cy="63.7122" r="2.34746" stroke="#FD7702"/>
<circle cx="1431.12" cy="77" r="2.34746" stroke="#FD7702"/>
<circle cx="1431.12" cy="90.2884" r="2.34746" stroke="#FD7702"/>
<circle cx="1431.12" cy="103.576" r="2.34746" stroke="#FD7702"/>
<circle cx="1431.12" cy="116.865" r="2.34746" stroke="#FD7702"/>
<circle cx="1431.12" cy="130.152" r="2.34746" stroke="#FD7702"/>
<circle cx="1444.41" cy="23.8475" r="2.34746" stroke="#FD7702"/>
<circle cx="1444.41" cy="37.1353" r="2.34746" stroke="#FD7702"/>
<circle cx="1444.41" cy="50.4236" r="2.34746" stroke="#FD7702"/>
<circle cx="1444.41" cy="63.7122" r="2.34746" stroke="#FD7702"/>
<circle cx="1444.41" cy="77" r="2.34746" stroke="#FD7702"/>
<circle cx="1444.41" cy="90.2884" r="2.34746" stroke="#FD7702"/>
<circle cx="1444.41" cy="103.576" r="2.34746" stroke="#FD7702"/>
<circle cx="1444.41" cy="116.865" r="2.34746" stroke="#FD7702"/>
<circle cx="1444.41" cy="130.152" r="2.34746" stroke="#FD7702"/>
<circle cx="1457.7" cy="23.8475" r="2.34746" stroke="#FD7702"/>
<circle cx="1457.7" cy="37.1353" r="2.34746" stroke="#FD7702"/>
<circle cx="1457.7" cy="50.4236" r="2.34746" stroke="#FD7702"/>
<circle cx="1457.7" cy="63.7122" r="2.34746" stroke="#FD7702"/>
<circle cx="1457.7" cy="77" r="2.34746" stroke="#FD7702"/>
<circle cx="1457.7" cy="90.2884" r="2.34746" stroke="#FD7702"/>
<circle cx="1457.7" cy="103.576" r="2.34746" stroke="#FD7702"/>
<circle cx="1457.7" cy="116.865" r="2.34746" stroke="#FD7702"/>
<circle cx="1457.7" cy="130.152" r="2.34746" stroke="#FD7702"/>
<circle cx="1470.98" cy="23.8475" r="2.34746" stroke="#FD7702"/>
<circle cx="1470.98" cy="37.1353" r="2.34746" stroke="#FD7702"/>
<circle cx="1470.98" cy="50.4236" r="2.34746" stroke="#FD7702"/>
<circle cx="1470.98" cy="63.7122" r="2.34746" stroke="#FD7702"/>
<circle cx="1470.98" cy="77" r="2.34746" stroke="#FD7702"/>
<circle cx="1470.98" cy="90.2884" r="2.34746" stroke="#FD7702"/>
<circle cx="1470.98" cy="103.576" r="2.34746" stroke="#FD7702"/>
<circle cx="1470.98" cy="116.865" r="2.34746" stroke="#FD7702"/>
<circle cx="1470.98" cy="130.152" r="2.34746" stroke="#FD7702"/>
<circle cx="1484.27" cy="23.8475" r="2.34746" stroke="#FD7702"/>
<circle cx="1484.27" cy="37.1353" r="2.34746" stroke="#FD7702"/>
<circle cx="1484.27" cy="50.4236" r="2.34746" stroke="#FD7702"/>
<circle cx="1484.27" cy="63.7122" r="2.34746" stroke="#FD7702"/>
<circle cx="1484.27" cy="77" r="2.34746" stroke="#FD7702"/>
<circle cx="1484.27" cy="90.2884" r="2.34746" stroke="#FD7702"/>
<circle cx="1484.27" cy="103.576" r="2.34746" stroke="#FD7702"/>
<circle cx="1484.27" cy="116.865" r="2.34746" stroke="#FD7702"/>
<circle cx="1484.27" cy="130.152" r="2.34746" stroke="#FD7702"/>
<circle cx="1497.56" cy="23.8475" r="2.34746" stroke="#FD7702"/>
<circle cx="1497.56" cy="37.1353" r="2.34746" stroke="#FD7702"/>
<circle cx="1497.56" cy="50.4236" r="2.34746" stroke="#FD7702"/>
<circle cx="1497.56" cy="63.7122" r="2.34746" stroke="#FD7702"/>
<circle cx="1497.56" cy="77" r="2.34746" stroke="#FD7702"/>
<circle cx="1497.56" cy="90.2884" r="2.34746" stroke="#FD7702"/>
<circle cx="1497.56" cy="103.576" r="2.34746" stroke="#FD7702"/>
<circle cx="1497.56" cy="116.865" r="2.34746" stroke="#FD7702"/>
<circle cx="1497.56" cy="130.152" r="2.34746" stroke="#FD7702"/>
<circle cx="1510.85" cy="23.8475" r="2.34746" stroke="#FD7702"/>
<circle cx="1510.85" cy="37.1353" r="2.34746" stroke="#FD7702"/>
<circle cx="1510.85" cy="50.4236" r="2.34746" stroke="#FD7702"/>
<circle cx="1510.85" cy="63.7122" r="2.34746" stroke="#FD7702"/>
<circle cx="1510.85" cy="77" r="2.34746" stroke="#FD7702"/>
<circle cx="1510.85" cy="90.2884" r="2.34746" stroke="#FD7702"/>
<circle cx="1510.85" cy="103.576" r="2.34746" stroke="#FD7702"/>
<circle cx="1510.85" cy="116.865" r="2.34746" stroke="#FD7702"/>
<circle cx="1510.85" cy="130.152" r="2.34746" stroke="#FD7702"/>
<path d="M295 800V656.483C295 651.88 291.074 648.216 286.492 648.656C173.88 659.471 143.02 749.141 141.098 800.205C140.934 804.553 144.507 808 148.858 808H287C291.418 808 295 804.418 295 800Z" stroke="#FD7702" stroke-width="2"/>
<path d="M1526 186V23.4836C1526 18.8809 1529.94 15.2192 1534.52 15.6418C1661.79 27.3769 1696.11 129.099 1697.92 186.208C1698.06 190.557 1694.49 194 1690.14 194H1534C1529.58 194 1526 190.418 1526 186Z" stroke="#FD7702" stroke-width="2"/>
<path d="M1487.66 802.311L1590.97 699" stroke="#FE9E4B" stroke-width="5" stroke-linecap="round"/>
<path d="M1483.21 827.061L1586.52 723.75" stroke="#CAC6C6" stroke-width="5" stroke-linecap="round"/>
<path d="M1463 806.848L1566.31 703.537" stroke="#CAC6C6" stroke-width="5" stroke-linecap="round"/>
<path d="M1671.17 570.866V601H1630.83V570.866H1671.17Z" fill="#FD7702" fill-opacity="0.71"/>
<path d="M1671.17 536.917V552.926H1630.83V536.917H1671.17Z" fill="#FD7702" fill-opacity="0.71"/>
<path d="M1671.17 510.134V526.137L1630.83 526.143V510.134H1671.17Z" fill="#FD7702" fill-opacity="0.71"/>
<path d="M1671.17 483.351V499.358H1630.83V483.351H1671.17Z" fill="#FD7702" fill-opacity="0.71"/>
<path d="M1671.17 456.568V472.57L1630.83 472.575V456.568H1671.17Z" fill="#FD7702" fill-opacity="0.71"/>
<path d="M1671.17 429.783V445.792H1630.83V429.783H1671.17Z" fill="#FD7702" fill-opacity="0.71"/>
<path d="M1671.17 403V419.003L1630.83 419.009V403H1671.17Z" fill="#FD7702" fill-opacity="0.71"/>
<path d="M54.5027 298.132L38.098 298.132L46.3022 283.923L54.5027 269.717L62.7031 283.923L70.9072 298.132L54.5027 298.132Z" fill="#FE9E4B"/>
<path d="M54.5045 346.325L38.098 346.325L46.3022 332.117L54.5045 317.91L62.7049 332.117L70.9072 346.325L54.5045 346.325Z" fill="#FE9E4B"/>
<path d="M54.5027 251.356L38.0981 251.356L46.3004 237.148L54.5027 222.941L62.7049 237.148L70.9072 251.356L54.5027 251.356Z" fill="#FE9E4B"/>
<path d="M54.5027 207.415L38.098 207.415L46.3022 193.207L54.5027 179L62.705 193.207L70.9092 207.415L54.5027 207.415Z" fill="#FE9E4B"/>
<path d="M104.446 232.956C104.446 236.378 101.424 239.337 97.4582 239.337C93.4925 239.337 90.4707 236.378 90.4707 232.956C90.4707 229.535 93.4925 226.575 97.4582 226.575C101.424 226.575 104.446 229.535 104.446 232.956Z" stroke="#FE9E4B" stroke-width="3"/>
<circle cx="97.4582" cy="259.025" r="6.9875" stroke="#FE9E4B" stroke-width="3"/>
<path d="M104.446 285.094C104.446 288.515 101.424 291.475 97.4582 291.475C93.4925 291.475 90.4707 288.515 90.4707 285.094C90.4707 281.672 93.4925 278.712 97.4582 278.712C101.424 278.712 104.446 281.672 104.446 285.094Z" stroke="#FE9E4B" stroke-width="3"/>
<path d="M104.446 312.981C104.446 316.403 101.424 319.363 97.4582 319.363C93.4925 319.363 90.4707 316.403 90.4707 312.981C90.4707 309.56 93.4925 306.6 97.4582 306.6C101.424 306.6 104.446 309.56 104.446 312.981Z" stroke="#FE9E4B" stroke-width="3"/>
<circle cx="97.4582" cy="339.05" r="6.9875" stroke="#FE9E4B" stroke-width="3"/>
<path d="M104.446 365.119C104.446 368.54 101.424 371.5 97.4582 371.5C93.4925 371.5 90.4707 368.54 90.4707 365.119C90.4707 361.697 93.4925 358.738 97.4582 358.738C101.424 358.738 104.446 361.697 104.446 365.119Z" stroke="#FE9E4B" stroke-width="3"/>
</g>
<defs>
<clipPath id="clip0_377_106">
<rect width="1728" height="882" fill="white"/>
</clipPath>
</defs>
</svg>
