<svg width="1919" height="1132" viewBox="0 0 1919 1132" fill="none" xmlns="http://www.w3.org/2000/svg">
<path d="M458 230C458 355.921 355.921 458 230 458C104.079 458 2 355.921 2 230C2 104.079 104.079 1.99998 230 1.99998C355.921 1.99998 458 104.079 458 230Z" stroke="#FE9E4B" stroke-width="2.66667" stroke-miterlimit="10"/>
<path d="M433.168 230C433.168 342.208 342.205 433.168 230 433.168C117.795 433.168 26.832 342.208 26.832 230C26.832 117.792 117.795 26.832 230 26.832C342.205 26.832 433.168 117.792 433.168 230Z" stroke="#CAC6C6" stroke-width="2.66667" stroke-miterlimit="10"/>
<path d="M410.594 230C410.594 329.741 329.739 410.593 230.001 410.593C130.262 410.593 49.4072 329.741 49.4072 230C49.4072 130.259 130.262 49.4066 230.001 49.4066C329.739 49.4066 410.594 130.259 410.594 230Z" stroke="#FE9E4B" stroke-width="2.66667" stroke-miterlimit="10"/>
<path d="M387.266 230C387.266 316.855 316.857 387.266 230.001 387.266C143.145 387.266 72.7354 316.855 72.7354 230C72.7354 143.144 143.145 72.7349 230.001 72.7349C316.857 72.7349 387.266 143.144 387.266 230Z" stroke="#CAC6C6" stroke-width="2.66667" stroke-miterlimit="10"/>
<path d="M358.674 230C358.674 301.065 301.066 358.673 230 358.673C158.935 358.673 101.327 301.065 101.327 230C101.327 158.935 158.935 101.327 230 101.327C301.066 101.327 358.674 158.935 358.674 230Z" stroke="#FE9E4B" stroke-width="2.66667" stroke-miterlimit="10"/>
<path d="M333.842 230C333.842 287.349 287.349 333.841 230.001 333.841C172.653 333.841 126.159 287.349 126.159 230C126.159 172.649 172.653 126.159 230.001 126.159C287.349 126.159 333.842 172.649 333.842 230Z" stroke="#CAC6C6" stroke-width="2.66667" stroke-miterlimit="10"/>
<path d="M490.369 940.797C364.362 959.362 343.911 1063.98 349.437 1113.98" stroke="#FD7702" stroke-width="2" stroke-dasharray="3 3"/>
<path d="M474.366 935.267C349.028 957.91 331.983 1063.14 339.127 1112.93" stroke="#FD7702" stroke-width="2" stroke-dasharray="3 3"/>
<path d="M466.155 929.118C340.676 950.968 322.965 1056.09 329.795 1105.92" stroke="#FD7702" stroke-width="2" stroke-dasharray="3 3"/>
<path d="M459.072 923C333.449 944.006 315.033 1049.01 321.527 1098.88" stroke="#FD7702" stroke-width="2" stroke-dasharray="3 3"/>
<circle cx="1637.83" cy="325.847" r="2.34746" stroke="#FD7702"/>
<circle cx="1637.83" cy="339.135" r="2.34746" stroke="#FD7702"/>
<circle cx="1637.83" cy="352.424" r="2.34746" stroke="#FD7702"/>
<circle cx="1637.83" cy="365.712" r="2.34746" stroke="#FD7702"/>
<circle cx="1637.83" cy="379" r="2.34746" stroke="#FD7702"/>
<circle cx="1637.83" cy="392.288" r="2.34746" stroke="#FD7702"/>
<circle cx="1637.83" cy="405.576" r="2.34746" stroke="#FD7702"/>
<circle cx="1637.83" cy="418.865" r="2.34746" stroke="#FD7702"/>
<circle cx="1637.83" cy="432.153" r="2.34746" stroke="#FD7702"/>
<circle cx="1651.12" cy="325.847" r="2.34746" stroke="#FD7702"/>
<circle cx="1651.12" cy="339.135" r="2.34746" stroke="#FD7702"/>
<circle cx="1651.12" cy="352.424" r="2.34746" stroke="#FD7702"/>
<circle cx="1651.12" cy="365.712" r="2.34746" stroke="#FD7702"/>
<circle cx="1651.12" cy="379" r="2.34746" stroke="#FD7702"/>
<circle cx="1651.12" cy="392.288" r="2.34746" stroke="#FD7702"/>
<circle cx="1651.12" cy="405.576" r="2.34746" stroke="#FD7702"/>
<circle cx="1651.12" cy="418.865" r="2.34746" stroke="#FD7702"/>
<circle cx="1651.12" cy="432.153" r="2.34746" stroke="#FD7702"/>
<circle cx="1664.41" cy="325.847" r="2.34746" stroke="#FD7702"/>
<circle cx="1664.41" cy="339.135" r="2.34746" stroke="#FD7702"/>
<circle cx="1664.41" cy="352.424" r="2.34746" stroke="#FD7702"/>
<circle cx="1664.41" cy="365.712" r="2.34746" stroke="#FD7702"/>
<circle cx="1664.41" cy="379" r="2.34746" stroke="#FD7702"/>
<circle cx="1664.41" cy="392.288" r="2.34746" stroke="#FD7702"/>
<circle cx="1664.41" cy="405.576" r="2.34746" stroke="#FD7702"/>
<circle cx="1664.41" cy="418.865" r="2.34746" stroke="#FD7702"/>
<circle cx="1664.41" cy="432.153" r="2.34746" stroke="#FD7702"/>
<circle cx="1677.7" cy="325.847" r="2.34746" stroke="#FD7702"/>
<circle cx="1677.7" cy="339.135" r="2.34746" stroke="#FD7702"/>
<circle cx="1677.7" cy="352.424" r="2.34746" stroke="#FD7702"/>
<circle cx="1677.7" cy="365.712" r="2.34746" stroke="#FD7702"/>
<circle cx="1677.7" cy="379" r="2.34746" stroke="#FD7702"/>
<circle cx="1677.7" cy="392.288" r="2.34746" stroke="#FD7702"/>
<circle cx="1677.7" cy="405.576" r="2.34746" stroke="#FD7702"/>
<circle cx="1677.7" cy="418.865" r="2.34746" stroke="#FD7702"/>
<circle cx="1677.7" cy="432.153" r="2.34746" stroke="#FD7702"/>
<circle cx="1690.98" cy="325.847" r="2.34746" stroke="#FD7702"/>
<circle cx="1690.98" cy="339.135" r="2.34746" stroke="#FD7702"/>
<circle cx="1690.98" cy="352.424" r="2.34746" stroke="#FD7702"/>
<circle cx="1690.98" cy="365.712" r="2.34746" stroke="#FD7702"/>
<circle cx="1690.98" cy="379" r="2.34746" stroke="#FD7702"/>
<circle cx="1690.98" cy="392.288" r="2.34746" stroke="#FD7702"/>
<circle cx="1690.98" cy="405.576" r="2.34746" stroke="#FD7702"/>
<circle cx="1690.98" cy="418.865" r="2.34746" stroke="#FD7702"/>
<circle cx="1690.98" cy="432.153" r="2.34746" stroke="#FD7702"/>
<circle cx="1704.27" cy="325.847" r="2.34746" stroke="#FD7702"/>
<circle cx="1704.27" cy="339.135" r="2.34746" stroke="#FD7702"/>
<circle cx="1704.27" cy="352.424" r="2.34746" stroke="#FD7702"/>
<circle cx="1704.27" cy="365.712" r="2.34746" stroke="#FD7702"/>
<circle cx="1704.27" cy="379" r="2.34746" stroke="#FD7702"/>
<circle cx="1704.27" cy="392.288" r="2.34746" stroke="#FD7702"/>
<circle cx="1704.27" cy="405.576" r="2.34746" stroke="#FD7702"/>
<circle cx="1704.27" cy="418.865" r="2.34746" stroke="#FD7702"/>
<circle cx="1704.27" cy="432.153" r="2.34746" stroke="#FD7702"/>
<circle cx="1717.56" cy="325.847" r="2.34746" stroke="#FD7702"/>
<circle cx="1717.56" cy="339.135" r="2.34746" stroke="#FD7702"/>
<circle cx="1717.56" cy="352.424" r="2.34746" stroke="#FD7702"/>
<circle cx="1717.56" cy="365.712" r="2.34746" stroke="#FD7702"/>
<circle cx="1717.56" cy="379" r="2.34746" stroke="#FD7702"/>
<circle cx="1717.56" cy="392.288" r="2.34746" stroke="#FD7702"/>
<circle cx="1717.56" cy="405.576" r="2.34746" stroke="#FD7702"/>
<circle cx="1717.56" cy="418.865" r="2.34746" stroke="#FD7702"/>
<circle cx="1717.56" cy="432.153" r="2.34746" stroke="#FD7702"/>
<circle cx="1730.85" cy="325.847" r="2.34746" stroke="#FD7702"/>
<circle cx="1730.85" cy="339.135" r="2.34746" stroke="#FD7702"/>
<circle cx="1730.85" cy="352.424" r="2.34746" stroke="#FD7702"/>
<circle cx="1730.85" cy="365.712" r="2.34746" stroke="#FD7702"/>
<circle cx="1730.85" cy="379" r="2.34746" stroke="#FD7702"/>
<circle cx="1730.85" cy="392.288" r="2.34746" stroke="#FD7702"/>
<circle cx="1730.85" cy="405.576" r="2.34746" stroke="#FD7702"/>
<circle cx="1730.85" cy="418.865" r="2.34746" stroke="#FD7702"/>
<circle cx="1730.85" cy="432.153" r="2.34746" stroke="#FD7702"/>
<path d="M515 1102V958.483C515 953.88 511.074 950.216 506.492 950.656C393.88 961.471 363.02 1051.14 361.098 1102.2C360.934 1106.55 364.507 1110 368.858 1110H507C511.418 1110 515 1106.42 515 1102Z" stroke="#FD7702" stroke-width="2"/>
<path d="M1746 488V325.484C1746 320.881 1749.94 317.219 1754.52 317.642C1881.79 329.377 1916.11 431.099 1917.92 488.208C1918.06 492.557 1914.49 496 1910.14 496H1754C1749.58 496 1746 492.418 1746 488Z" stroke="#FD7702" stroke-width="2"/>
<path d="M1707.66 1104.31L1810.97 1001" stroke="#FE9E4B" stroke-width="5" stroke-linecap="round"/>
<path d="M1703.21 1129.06L1806.52 1025.75" stroke="#CAC6C6" stroke-width="5" stroke-linecap="round"/>
<path d="M1683 1108.85L1786.31 1005.54" stroke="#CAC6C6" stroke-width="5" stroke-linecap="round"/>
<path d="M1891.17 872.866V903H1850.83V872.866H1891.17Z" fill="#FD7702" fill-opacity="0.71"/>
<path d="M1891.17 838.917V854.926H1850.83V838.917H1891.17Z" fill="#FD7702" fill-opacity="0.71"/>
<path d="M1891.17 812.134V828.137L1850.83 828.143V812.134H1891.17Z" fill="#FD7702" fill-opacity="0.71"/>
<path d="M1891.17 785.351V801.358H1850.83V785.351H1891.17Z" fill="#FD7702" fill-opacity="0.71"/>
<path d="M1891.17 758.568V774.569L1850.83 774.575V758.568H1891.17Z" fill="#FD7702" fill-opacity="0.71"/>
<path d="M1891.17 731.783V747.792H1850.83V731.783H1891.17Z" fill="#FD7702" fill-opacity="0.71"/>
<path d="M1891.17 705V721.003L1850.83 721.009V705H1891.17Z" fill="#FD7702" fill-opacity="0.71"/>
<path d="M274.503 600.132L258.098 600.132L266.302 585.923L274.503 571.717L282.703 585.923L290.907 600.132L274.503 600.132Z" fill="#FE9E4B"/>
<path d="M274.505 648.325L258.098 648.325L266.302 634.117L274.505 619.91L282.705 634.117L290.907 648.325L274.505 648.325Z" fill="#FE9E4B"/>
<path d="M274.503 553.356L258.098 553.356L266.3 539.148L274.503 524.941L282.705 539.148L290.907 553.356L274.503 553.356Z" fill="#FE9E4B"/>
<path d="M274.503 509.415L258.098 509.415L266.302 495.207L274.503 481L282.705 495.207L290.909 509.415L274.503 509.415Z" fill="#FE9E4B"/>
<path d="M324.446 534.956C324.446 538.378 321.424 541.338 317.458 541.338C313.492 541.338 310.471 538.378 310.471 534.956C310.471 531.535 313.492 528.575 317.458 528.575C321.424 528.575 324.446 531.535 324.446 534.956Z" stroke="#FE9E4B" stroke-width="3"/>
<circle cx="317.458" cy="561.025" r="6.9875" stroke="#FE9E4B" stroke-width="3"/>
<path d="M324.446 587.094C324.446 590.516 321.424 593.475 317.458 593.475C313.492 593.475 310.471 590.516 310.471 587.094C310.471 583.673 313.492 580.713 317.458 580.713C321.424 580.713 324.446 583.673 324.446 587.094Z" stroke="#FE9E4B" stroke-width="3"/>
<path d="M324.446 614.981C324.446 618.403 321.424 621.363 317.458 621.363C313.492 621.363 310.471 618.403 310.471 614.981C310.471 611.56 313.492 608.6 317.458 608.6C321.424 608.6 324.446 611.56 324.446 614.981Z" stroke="#FE9E4B" stroke-width="3"/>
<circle cx="317.458" cy="641.05" r="6.9875" stroke="#FE9E4B" stroke-width="3"/>
<path d="M324.446 667.119C324.446 670.541 321.424 673.5 317.458 673.5C313.492 673.5 310.471 670.541 310.471 667.119C310.471 663.698 313.492 660.738 317.458 660.738C321.424 660.738 324.446 663.698 324.446 667.119Z" stroke="#FE9E4B" stroke-width="3"/>
</svg>
