<svg width="44" height="45" viewBox="0 0 44 45" fill="none" xmlns="http://www.w3.org/2000/svg">
<path d="M35.836 13.0381H35.143C35.143 5.83734 29.0347 7.61757e-06 21.4999 7.61757e-06C13.9651 7.61757e-06 7.85678 5.83734 7.85678 13.0381H7.16377C4.86423 13.0381 3 14.8194 3 17.0171C3 19.2147 4.86423 20.9962 7.16377 20.9962H7.85678C7.85678 20.9962 9.84127 32.3039 20.9129 33.9565C21.3012 34.0145 21.6986 34.0145 22.0871 33.9565C33.1587 32.3039 35.143 20.9962 35.143 20.9962H35.836C38.1356 20.9962 39.9998 19.2147 39.9998 17.0171C39.9998 14.8194 38.1356 13.0381 35.836 13.0381Z" fill="#F99C2A"/>
<path d="M20.8942 33.9537C20.891 33.9532 20.8879 33.9528 20.8845 33.9523C20.8879 33.9528 20.8908 33.9532 20.8942 33.9537ZM20.8783 33.9514C20.8747 33.9507 20.8709 33.9501 20.8672 33.9496C20.8712 33.9503 20.8742 33.9507 20.8783 33.9514ZM20.8252 33.9433C20.8242 33.9431 20.8235 33.9429 20.8228 33.9427C20.8235 33.9429 20.8244 33.9431 20.8252 33.9433ZM35.1433 13.0381C35.1433 13.0346 35.1433 13.0315 35.1433 13.028C35.1433 13.0314 35.1433 13.0347 35.1433 13.0381Z" fill="white"/>
<path d="M21.4997 34C21.3033 34 21.1068 33.9855 20.9127 33.9565C20.9079 33.9558 20.9033 33.9551 20.8987 33.9544C20.897 33.9542 20.8953 33.954 20.8937 33.9537C20.8903 33.9532 20.8874 33.9528 20.8841 33.9523C20.882 33.9519 20.8798 33.9516 20.8778 33.9514C20.8737 33.9507 20.8707 33.9503 20.8667 33.9496C20.8643 33.9493 20.862 33.9489 20.8596 33.9486C20.8576 33.9482 20.8556 33.9478 20.8535 33.9477C20.8439 33.9461 20.8343 33.9447 20.8247 33.9433C20.8239 33.9431 20.823 33.9429 20.8223 33.9427C18.9504 33.6531 17.3404 33.0867 15.9568 32.3461C25.8468 29.0533 33.2762 20.7423 34.9016 10.6029C35.0572 11.389 35.1421 12.1989 35.1429 13.028C35.1429 13.0315 35.1429 13.0346 35.1429 13.0381H35.8359C38.1354 13.0381 39.9996 14.8194 39.9996 17.0171C39.9996 19.2147 38.1354 20.9962 35.8359 20.9962H35.1429C35.1429 20.9962 33.1586 32.3039 22.0869 33.9565C21.8927 33.9855 21.6962 34 21.4997 34Z" fill="#F47B12"/>
<path d="M8.56736 23.4377C8.04862 22.0382 7.86825 21.0593 7.85734 20.9992C7.86825 21.0593 8.04862 22.0384 8.56736 23.4377ZM7.85715 20.9976V20.9974C7.85715 20.9974 7.85715 20.9974 7.85715 20.9976ZM21.5182 -2.92872e-05C21.5173 -2.92872e-05 21.516 -2.92872e-05 21.5151 -2.92872e-05C21.5162 -2.92872e-05 21.5173 -2.92872e-05 21.5182 -2.92872e-05Z" fill="white"/>
<path d="M8.56736 23.4377C8.04862 22.0384 7.86825 21.0593 7.85734 20.9992V20.999C7.85734 20.9985 7.85715 20.9979 7.85715 20.9976C7.85715 20.9974 7.85715 20.9974 7.85715 20.9974L7.85697 20.9972V20.9971C7.85697 20.9971 7.85697 20.9971 7.85697 20.9969C7.85697 20.9967 7.85697 20.9965 7.85697 20.9964C7.85697 20.9964 7.85697 20.9964 7.85678 20.9964C7.85678 20.9962 7.85678 20.9962 7.85678 20.9962H7.16377C4.86423 20.9962 3 19.2146 3 17.0171C3 14.8194 4.86423 13.0381 7.16377 13.0381H7.85678C7.85678 5.8373 13.9651 -2.92872e-05 21.4999 -2.92872e-05C21.5051 -2.92872e-05 21.5101 -2.92872e-05 21.5151 -2.92872e-05C21.516 -2.92872e-05 21.5173 -2.92872e-05 21.5182 -2.92872e-05C21.5288 0.000147505 21.5393 0.000147678 21.5499 0.000147678C21.5502 0.000147678 21.5508 0.000147678 21.5512 0.000147678C22.9764 0.00509786 24.3493 0.220606 25.6396 0.612908C24.7437 10.8456 17.9768 19.482 8.56736 23.4377Z" fill="#FCB039"/>
<path d="M25.7559 21.7331C25.5237 21.7904 25.3259 21.8925 25.2013 22.0286L21.9771 25.5464C21.8117 25.7269 21.3984 25.7269 21.233 25.5464L18.0084 22.0281C17.884 21.8922 17.6868 21.7906 17.455 21.7333C13.0407 20.6423 9.97144 17.8638 10.2533 14.6575C10.5624 11.1389 15.5586 8.04562 21.1483 7.90772C27.6356 7.74777 32.9748 11.0133 32.9748 15.0645C32.9748 18.0973 29.982 20.6883 25.7559 21.7331Z" fill="white"/>
<path d="M26.5725 14.8604C26.5725 15.3468 26.1599 15.741 25.651 15.741C25.142 15.741 24.7295 15.3468 24.7295 14.8604C24.7295 14.3741 25.142 13.9798 25.651 13.9798C26.1599 13.9798 26.5725 14.3741 26.5725 14.8604Z" fill="#F99C2A"/>
<path d="M22.4211 14.8604C22.4211 15.3468 22.0085 15.741 21.4996 15.741C20.9907 15.741 20.5781 15.3468 20.5781 14.8604C20.5781 14.3741 20.9907 13.9798 21.4996 13.9798C22.0085 13.9798 22.4211 14.3741 22.4211 14.8604Z" fill="#F99C2A"/>
<path d="M18.2705 14.8604C18.2705 15.3468 17.858 15.741 17.349 15.741C16.8403 15.741 16.4277 15.3468 16.4277 14.8604C16.4277 14.3741 16.8403 13.9798 17.349 13.9798C17.858 13.9798 18.2705 14.3741 18.2705 14.8604Z" fill="#F99C2A"/>
<path d="M11.5083 38.812V43H10.6683V41.218H8.87432V43H8.03432V38.812H8.87432V40.534H10.6683V38.812H11.5083ZM15.4251 41.266C15.4251 41.386 15.4171 41.494 15.4011 41.59H12.9711C12.9911 41.83 13.0751 42.018 13.2231 42.154C13.3711 42.29 13.5531 42.358 13.7691 42.358C14.0811 42.358 14.3031 42.224 14.4351 41.956H15.3411C15.2451 42.276 15.0611 42.54 14.7891 42.748C14.5171 42.952 14.1831 43.054 13.7871 43.054C13.4671 43.054 13.1791 42.984 12.9231 42.844C12.6711 42.7 12.4731 42.498 12.3291 42.238C12.1891 41.978 12.1191 41.678 12.1191 41.338C12.1191 40.994 12.1891 40.692 12.3291 40.432C12.4691 40.172 12.6651 39.972 12.9171 39.832C13.1691 39.692 13.4591 39.622 13.7871 39.622C14.1031 39.622 14.3851 39.69 14.6331 39.826C14.8851 39.962 15.0791 40.156 15.2151 40.408C15.3551 40.656 15.4251 40.942 15.4251 41.266ZM14.5551 41.026C14.5511 40.81 14.4731 40.638 14.3211 40.51C14.1691 40.378 13.9831 40.312 13.7631 40.312C13.5551 40.312 13.3791 40.376 13.2351 40.504C13.0951 40.628 13.0091 40.802 12.9771 41.026H14.5551ZM15.8222 41.326C15.8222 40.99 15.8882 40.692 16.0202 40.432C16.1562 40.172 16.3382 39.972 16.5662 39.832C16.7982 39.692 17.0562 39.622 17.3402 39.622C17.5882 39.622 17.8042 39.672 17.9882 39.772C18.1762 39.872 18.3262 39.998 18.4382 40.15V39.676H19.2842V43H18.4382V42.514C18.3302 42.67 18.1802 42.8 17.9882 42.904C17.8002 43.004 17.5822 43.054 17.3342 43.054C17.0542 43.054 16.7982 42.982 16.5662 42.838C16.3382 42.694 16.1562 42.492 16.0202 42.232C15.8882 41.968 15.8222 41.666 15.8222 41.326ZM18.4382 41.338C18.4382 41.134 18.3982 40.96 18.3182 40.816C18.2382 40.668 18.1302 40.556 17.9942 40.48C17.8582 40.4 17.7122 40.36 17.5562 40.36C17.4002 40.36 17.2562 40.398 17.1242 40.474C16.9922 40.55 16.8842 40.662 16.8002 40.81C16.7202 40.954 16.6802 41.126 16.6802 41.326C16.6802 41.526 16.7202 41.702 16.8002 41.854C16.8842 42.002 16.9922 42.116 17.1242 42.196C17.2602 42.276 17.4042 42.316 17.5562 42.316C17.7122 42.316 17.8582 42.278 17.9942 42.202C18.1302 42.122 18.2382 42.01 18.3182 41.866C18.3982 41.718 18.4382 41.542 18.4382 41.338ZM20.9446 38.56V43H20.1046V38.56H20.9446ZM22.7526 40.366V41.974C22.7526 42.086 22.7786 42.168 22.8306 42.22C22.8866 42.268 22.9786 42.292 23.1066 42.292H23.4966V43H22.9686C22.2606 43 21.9066 42.656 21.9066 41.968V40.366H21.5106V39.676H21.9066V38.854H22.7526V39.676H23.4966V40.366H22.7526ZM25.9727 39.628C26.2247 39.628 26.4487 39.684 26.6447 39.796C26.8407 39.904 26.9927 40.066 27.1007 40.282C27.2127 40.494 27.2687 40.75 27.2687 41.05V43H26.4287V41.164C26.4287 40.9 26.3627 40.698 26.2307 40.558C26.0987 40.414 25.9187 40.342 25.6907 40.342C25.4587 40.342 25.2747 40.414 25.1387 40.558C25.0067 40.698 24.9407 40.9 24.9407 41.164V43H24.1007V38.56H24.9407V40.09C25.0487 39.946 25.1927 39.834 25.3727 39.754C25.5527 39.67 25.7527 39.628 25.9727 39.628ZM30.0115 43.042C29.6195 43.042 29.2595 42.95 28.9315 42.766C28.6035 42.582 28.3435 42.328 28.1515 42.004C27.9595 41.676 27.8635 41.306 27.8635 40.894C27.8635 40.486 27.9595 40.12 28.1515 39.796C28.3435 39.468 28.6035 39.212 28.9315 39.028C29.2595 38.844 29.6195 38.752 30.0115 38.752C30.4075 38.752 30.7675 38.844 31.0915 39.028C31.4195 39.212 31.6775 39.468 31.8655 39.796C32.0575 40.12 32.1535 40.486 32.1535 40.894C32.1535 41.306 32.0575 41.676 31.8655 42.004C31.6775 42.328 31.4195 42.582 31.0915 42.766C30.7635 42.95 30.4035 43.042 30.0115 43.042ZM30.0115 42.292C30.2635 42.292 30.4855 42.236 30.6775 42.124C30.8695 42.008 31.0195 41.844 31.1275 41.632C31.2355 41.42 31.2895 41.174 31.2895 40.894C31.2895 40.614 31.2355 40.37 31.1275 40.162C31.0195 39.95 30.8695 39.788 30.6775 39.676C30.4855 39.564 30.2635 39.508 30.0115 39.508C29.7595 39.508 29.5355 39.564 29.3395 39.676C29.1475 39.788 28.9975 39.95 28.8895 40.162C28.7815 40.37 28.7275 40.614 28.7275 40.894C28.7275 41.174 28.7815 41.42 28.8895 41.632C28.9975 41.844 29.1475 42.008 29.3395 42.124C29.5355 42.236 29.7595 42.292 30.0115 42.292ZM34.2245 43.042C33.9325 43.042 33.6685 42.992 33.4325 42.892C33.2005 42.792 33.0165 42.648 32.8805 42.46C32.7445 42.272 32.6745 42.05 32.6705 41.794H33.5705C33.5825 41.966 33.6425 42.102 33.7505 42.202C33.8625 42.302 34.0145 42.352 34.2065 42.352C34.4025 42.352 34.5565 42.306 34.6685 42.214C34.7805 42.118 34.8365 41.994 34.8365 41.842C34.8365 41.718 34.7985 41.616 34.7225 41.536C34.6465 41.456 34.5505 41.394 34.4345 41.35C34.3225 41.302 34.1665 41.25 33.9665 41.194C33.6945 41.114 33.4725 41.036 33.3005 40.96C33.1325 40.88 32.9865 40.762 32.8625 40.606C32.7425 40.446 32.6825 40.234 32.6825 39.97C32.6825 39.722 32.7445 39.506 32.8685 39.322C32.9925 39.138 33.1665 38.998 33.3905 38.902C33.6145 38.802 33.8705 38.752 34.1585 38.752C34.5905 38.752 34.9405 38.858 35.2085 39.07C35.4805 39.278 35.6305 39.57 35.6585 39.946H34.7345C34.7265 39.802 34.6645 39.684 34.5485 39.592C34.4365 39.496 34.2865 39.448 34.0985 39.448C33.9345 39.448 33.8025 39.49 33.7025 39.574C33.6065 39.658 33.5585 39.78 33.5585 39.94C33.5585 40.052 33.5945 40.146 33.6665 40.222C33.7425 40.294 33.8345 40.354 33.9425 40.402C34.0545 40.446 34.2105 40.498 34.4105 40.558C34.6825 40.638 34.9045 40.718 35.0765 40.798C35.2485 40.878 35.3965 40.998 35.5205 41.158C35.6445 41.318 35.7065 41.528 35.7065 41.788C35.7065 42.012 35.6485 42.22 35.5325 42.412C35.4165 42.604 35.2465 42.758 35.0225 42.874C34.7985 42.986 34.5325 43.042 34.2245 43.042Z" fill="black"/>
</svg>
