<svg width="834" height="119" viewBox="0 0 834 119" fill="none" xmlns="http://www.w3.org/2000/svg">
<path d="M834 119C822.417 119 822.417 109.536 810.834 109.536C799.253 109.536 799.253 119 787.671 119C776.09 119 776.09 109.536 764.51 109.536C752.928 109.536 752.928 119 741.348 119C729.767 119 729.767 109.536 718.184 109.536C706.604 109.536 706.604 119 695.022 119C683.439 119 683.439 109.536 671.857 109.536C660.275 109.536 660.275 119 648.695 119C637.112 119 637.112 109.536 625.528 109.536C613.948 109.536 613.948 119 602.366 119C590.783 119 590.783 109.536 579.202 109.536C567.619 109.536 567.619 119 556.036 119C544.454 119 544.454 109.536 532.873 109.536C521.29 109.536 521.29 119 509.707 119C498.124 119 498.124 109.536 486.539 109.536C474.956 109.536 474.956 119 463.373 119C451.79 119 451.79 109.536 440.209 109.536C428.626 109.536 428.626 119 417.043 119C405.46 119 405.46 109.536 393.877 109.536C382.294 109.536 382.294 119 370.711 119C359.127 119 359.127 109.536 347.542 109.536C335.958 109.536 335.958 119 324.375 119C312.79 119 312.79 109.536 301.206 109.536C289.623 109.536 289.623 119 278.038 119C266.455 119 266.455 109.536 254.871 109.536C243.288 109.536 243.288 119 231.705 119C220.12 119 220.12 109.536 208.536 109.536C196.954 109.536 196.954 119 185.371 119C173.788 119 173.788 109.536 162.204 109.536C150.62 109.536 150.62 119 139.035 119C127.45 119 127.45 109.536 115.864 109.536C104.279 109.536 104.279 119 92.6935 119C81.1078 119 81.1078 109.536 69.5226 109.536C57.9363 109.536 57.9363 119 46.3506 119C34.7631 119 34.7631 109.536 23.175 109.536C11.5874 109.536 11.5874 119 0 119V-197H834V119Z" fill="#DFEEC6"/>
</svg>
