<svg width="834" height="119" viewBox="0 0 834 119" fill="none" xmlns="http://www.w3.org/2000/svg">
<path d="M834 119C822.417 119 822.417 115.436 810.834 115.436C799.253 115.436 799.253 119 787.671 119C776.09 119 776.09 115.436 764.51 115.436C752.928 115.436 752.928 119 741.348 119C729.767 119 729.767 115.436 718.184 115.436C706.604 115.436 706.604 119 695.022 119C683.439 119 683.439 115.436 671.857 115.436C660.275 115.436 660.275 119 648.695 119C637.112 119 637.112 115.436 625.528 115.436C613.948 115.436 613.948 119 602.366 119C590.783 119 590.783 115.436 579.202 115.436C567.619 115.436 567.619 119 556.036 119C544.454 119 544.454 115.436 532.873 115.436C521.29 115.436 521.29 119 509.707 119C498.124 119 498.124 115.436 486.539 115.436C474.956 115.436 474.956 119 463.373 119C451.79 119 451.79 115.436 440.209 115.436C428.626 115.436 428.626 119 417.043 119C405.46 119 405.46 115.436 393.877 115.436C382.294 115.436 382.294 119 370.711 119C359.127 119 359.127 115.436 347.542 115.436C335.958 115.436 335.958 119 324.375 119C312.79 119 312.79 115.436 301.206 115.436C289.623 115.436 289.623 119 278.038 119C266.455 119 266.455 115.436 254.871 115.436C243.288 115.436 243.288 119 231.705 119C220.12 119 220.12 115.436 208.536 115.436C196.954 115.436 196.954 119 185.371 119C173.788 119 173.788 115.436 162.204 115.436C150.62 115.436 150.62 119 139.035 119C127.45 119 127.45 115.436 115.864 115.436C104.279 115.436 104.279 119 92.6935 119C81.1078 119 81.1078 115.436 69.5226 115.436C57.9363 115.436 57.9363 119 46.3506 119C34.7631 119 34.7631 115.436 23.175 115.436C11.5874 115.436 11.5874 119 0 119V1.26428e-06H834V119Z" fill="#DFEEC6"/>
</svg>
