<svg width="1920" height="78" viewBox="0 0 1920 78" fill="none" xmlns="http://www.w3.org/2000/svg">
<path fill-rule="evenodd" clip-rule="evenodd" d="M193.916 49.74L195.989 47.2322C195.989 47.2322 188.627 41.3825 177.726 36.4984C166.826 31.6143 161.472 31.6143 161.472 31.6143L162.089 38.6367L186.084 45.1335L162.544 43.8543L193.916 49.74Z" fill="#FF725E"/>
<path fill-rule="evenodd" clip-rule="evenodd" d="M150.879 47.1667L195.988 56.1965L241.117 47.1613C241.517 47.0856 241.906 47.3433 241.987 47.7374V47.7423C242.063 48.1364 241.805 48.5257 241.405 48.6069L196.155 57.6619C196.054 57.6823 195.952 57.6871 195.846 57.6667L150.591 48.6117C150.197 48.5305 149.934 48.1412 150.015 47.7423C150.095 47.3487 150.485 47.091 150.879 47.1667Z" fill="#FF725E"/>
<path fill-rule="evenodd" clip-rule="evenodd" d="M195.989 56.1965C195.989 54.7251 195.989 48.7036 195.989 47.2322C182.782 44.4563 169.126 41.4835 155.92 38.7076L152.518 47.4947L195.989 56.1965Z" fill="#FF725E"/>
<path fill-rule="evenodd" clip-rule="evenodd" d="M198.066 49.74L195.988 47.2322C195.988 47.2322 203.35 41.3825 214.25 36.4984C225.151 31.6143 230.505 31.6143 230.505 31.6143L229.888 38.6367L205.893 45.1335L229.433 43.8543L198.066 49.74Z" fill="#FF725E"/>
<path fill-rule="evenodd" clip-rule="evenodd" d="M195.988 56.1965C195.988 54.7251 195.988 48.7036 195.988 47.2322C209.194 44.4563 222.855 41.4835 236.056 38.7076L239.459 47.4947L195.988 56.1965Z" fill="#FF725E"/>
<path fill-rule="evenodd" clip-rule="evenodd" d="M202.307 40.6399V6.82059L189.688 0V40.6549C190.451 41.12 191.204 41.5952 191.953 42.0807C193.292 42.9453 194.678 43.8706 195.987 44.8361C197.296 43.8706 198.682 42.9453 200.022 42.0807C200.776 41.5904 201.539 41.1098 202.307 40.6399Z" fill="#FF725E"/>
<path fill-rule="evenodd" clip-rule="evenodd" d="M188.692 40.0535V14.6019L176.704 22.7467V33.9761C177.311 34.2339 177.908 34.4971 178.504 34.7596C181.988 36.3218 185.4 38.0966 188.692 40.0535Z" fill="#FF725E"/>
<path fill-rule="evenodd" clip-rule="evenodd" d="M203.132 22.3219V40.1442C206.469 38.1525 209.932 36.347 213.471 34.7596C214.018 34.5169 214.564 34.2796 215.115 34.0416V29.0818L203.132 22.3219Z" fill="#FF725E"/>
<path d="M156.349 71.404H153.013L152.461 73H150.697L153.709 64.612H155.665L158.677 73H156.901L156.349 71.404ZM155.893 70.06L154.681 66.556L153.469 70.06H155.893ZM161.483 64.624V73H159.803V64.624H161.483ZM162.734 68.8C162.734 67.976 162.918 67.24 163.286 66.592C163.662 65.936 164.17 65.428 164.81 65.068C165.458 64.7 166.182 64.516 166.982 64.516C167.918 64.516 168.738 64.756 169.442 65.236C170.146 65.716 170.638 66.38 170.918 67.228H168.986C168.794 66.828 168.522 66.528 168.17 66.328C167.826 66.128 167.426 66.028 166.97 66.028C166.482 66.028 166.046 66.144 165.662 66.376C165.286 66.6 164.99 66.92 164.774 67.336C164.566 67.752 164.462 68.24 164.462 68.8C164.462 69.352 164.566 69.84 164.774 70.264C164.99 70.68 165.286 71.004 165.662 71.236C166.046 71.46 166.482 71.572 166.97 71.572C167.426 71.572 167.826 71.472 168.17 71.272C168.522 71.064 168.794 70.76 168.986 70.36H170.918C170.638 71.216 170.146 71.884 169.442 72.364C168.746 72.836 167.926 73.072 166.982 73.072C166.182 73.072 165.458 72.892 164.81 72.532C164.17 72.164 163.662 71.656 163.286 71.008C162.918 70.36 162.734 69.624 162.734 68.8ZM178.053 64.624V65.98H175.821V73H174.141V65.98H171.909V64.624H178.053ZM180.959 65.98V68.08H183.779V69.412H180.959V71.632H184.139V73H179.279V64.612H184.139V65.98H180.959ZM191.417 73.084C190.833 73.084 190.305 72.984 189.833 72.784C189.369 72.584 189.001 72.296 188.729 71.92C188.457 71.544 188.317 71.1 188.309 70.588H190.109C190.133 70.932 190.253 71.204 190.469 71.404C190.693 71.604 190.997 71.704 191.381 71.704C191.773 71.704 192.081 71.612 192.305 71.428C192.529 71.236 192.641 70.988 192.641 70.684C192.641 70.436 192.565 70.232 192.413 70.072C192.261 69.912 192.069 69.788 191.837 69.7C191.613 69.604 191.301 69.5 190.901 69.388C190.357 69.228 189.913 69.072 189.569 68.92C189.233 68.76 188.941 68.524 188.693 68.212C188.453 67.892 188.333 67.468 188.333 66.94C188.333 66.444 188.457 66.012 188.705 65.644C188.953 65.276 189.301 64.996 189.749 64.804C190.197 64.604 190.709 64.504 191.285 64.504C192.149 64.504 192.849 64.716 193.385 65.14C193.929 65.556 194.229 66.14 194.285 66.892H192.437C192.421 66.604 192.297 66.368 192.065 66.184C191.841 65.992 191.541 65.896 191.165 65.896C190.837 65.896 190.573 65.98 190.373 66.148C190.181 66.316 190.085 66.56 190.085 66.88C190.085 67.104 190.157 67.292 190.301 67.444C190.453 67.588 190.637 67.708 190.853 67.804C191.077 67.892 191.389 67.996 191.789 68.116C192.333 68.276 192.777 68.436 193.121 68.596C193.465 68.756 193.761 68.996 194.009 69.316C194.257 69.636 194.381 70.056 194.381 70.576C194.381 71.024 194.265 71.44 194.033 71.824C193.801 72.208 193.461 72.516 193.013 72.748C192.565 72.972 192.033 73.084 191.417 73.084ZM195.406 69.652C195.406 68.98 195.538 68.384 195.802 67.864C196.074 67.344 196.438 66.944 196.894 66.664C197.358 66.384 197.874 66.244 198.442 66.244C198.938 66.244 199.37 66.344 199.738 66.544C200.114 66.744 200.414 66.996 200.638 67.3V66.352H202.33V73H200.638V72.028C200.422 72.34 200.122 72.6 199.738 72.808C199.362 73.008 198.926 73.108 198.43 73.108C197.87 73.108 197.358 72.964 196.894 72.676C196.438 72.388 196.074 71.984 195.802 71.464C195.538 70.936 195.406 70.332 195.406 69.652ZM200.638 69.676C200.638 69.268 200.558 68.92 200.398 68.632C200.238 68.336 200.022 68.112 199.75 67.96C199.478 67.8 199.186 67.72 198.874 67.72C198.562 67.72 198.274 67.796 198.01 67.948C197.746 68.1 197.53 68.324 197.362 68.62C197.202 68.908 197.122 69.252 197.122 69.652C197.122 70.052 197.202 70.404 197.362 70.708C197.53 71.004 197.746 71.232 198.01 71.392C198.282 71.552 198.57 71.632 198.874 71.632C199.186 71.632 199.478 71.556 199.75 71.404C200.022 71.244 200.238 71.02 200.398 70.732C200.558 70.436 200.638 70.084 200.638 69.676ZM207.715 66.256C208.219 66.256 208.667 66.368 209.059 66.592C209.451 66.808 209.755 67.132 209.971 67.564C210.195 67.988 210.307 68.5 210.307 69.1V73H208.627V69.328C208.627 68.8 208.495 68.396 208.231 68.116C207.967 67.828 207.607 67.684 207.151 67.684C206.687 67.684 206.319 67.828 206.047 68.116C205.783 68.396 205.651 68.8 205.651 69.328V73H203.971V64.12H205.651V67.18C205.867 66.892 206.155 66.668 206.515 66.508C206.875 66.34 207.275 66.256 207.715 66.256ZM211.472 69.652C211.472 68.98 211.604 68.384 211.868 67.864C212.14 67.344 212.504 66.944 212.96 66.664C213.424 66.384 213.94 66.244 214.508 66.244C215.004 66.244 215.436 66.344 215.804 66.544C216.18 66.744 216.48 66.996 216.704 67.3V66.352H218.396V73H216.704V72.028C216.488 72.34 216.188 72.6 215.804 72.808C215.428 73.008 214.992 73.108 214.496 73.108C213.936 73.108 213.424 72.964 212.96 72.676C212.504 72.388 212.14 71.984 211.868 71.464C211.604 70.936 211.472 70.332 211.472 69.652ZM216.704 69.676C216.704 69.268 216.624 68.92 216.464 68.632C216.304 68.336 216.088 68.112 215.816 67.96C215.544 67.8 215.252 67.72 214.94 67.72C214.628 67.72 214.34 67.796 214.076 67.948C213.812 68.1 213.596 68.324 213.428 68.62C213.268 68.908 213.188 69.252 213.188 69.652C213.188 70.052 213.268 70.404 213.428 70.708C213.596 71.004 213.812 71.232 214.076 71.392C214.348 71.552 214.636 71.632 214.94 71.632C215.252 71.632 215.544 71.556 215.816 71.404C216.088 71.244 216.304 71.02 216.464 70.732C216.624 70.436 216.704 70.084 216.704 69.676ZM226.397 66.352L222.281 76.144H220.493L221.933 72.832L219.269 66.352H221.153L222.869 70.996L224.609 66.352H226.397ZM226.871 69.652C226.871 68.98 227.003 68.384 227.267 67.864C227.539 67.344 227.903 66.944 228.359 66.664C228.823 66.384 229.339 66.244 229.907 66.244C230.403 66.244 230.835 66.344 231.203 66.544C231.579 66.744 231.879 66.996 232.103 67.3V66.352H233.795V73H232.103V72.028C231.887 72.34 231.587 72.6 231.203 72.808C230.827 73.008 230.391 73.108 229.895 73.108C229.335 73.108 228.823 72.964 228.359 72.676C227.903 72.388 227.539 71.984 227.267 71.464C227.003 70.936 226.871 70.332 226.871 69.652ZM232.103 69.676C232.103 69.268 232.023 68.92 231.863 68.632C231.703 68.336 231.487 68.112 231.215 67.96C230.943 67.8 230.651 67.72 230.339 67.72C230.027 67.72 229.739 67.796 229.475 67.948C229.211 68.1 228.995 68.324 228.827 68.62C228.667 68.908 228.587 69.252 228.587 69.652C228.587 70.052 228.667 70.404 228.827 70.708C228.995 71.004 229.211 71.232 229.475 71.392C229.747 71.552 230.035 71.632 230.339 71.632C230.651 71.632 230.943 71.556 231.215 71.404C231.487 71.244 231.703 71.02 231.863 70.732C232.023 70.436 232.103 70.084 232.103 69.676ZM239.371 73L237.115 70.168V73H235.435V64.12H237.115V69.172L239.347 66.352H241.531L238.603 69.688L241.555 73H239.371Z" fill="black"/>
<path d="M686.368 32.954V45.5H684.73V39.812H678.34V45.5H676.702V32.954H678.34V38.462H684.73V32.954H686.368ZM693.467 45.662C692.543 45.662 691.703 45.452 690.947 45.032C690.203 44.612 689.615 44.018 689.183 43.25C688.763 42.47 688.553 41.57 688.553 40.55C688.553 39.542 688.769 38.654 689.201 37.886C689.645 37.106 690.245 36.512 691.001 36.104C691.757 35.684 692.603 35.474 693.539 35.474C694.475 35.474 695.321 35.684 696.077 36.104C696.833 36.512 697.427 37.1 697.859 37.868C698.303 38.636 698.525 39.53 698.525 40.55C698.525 41.57 698.297 42.47 697.841 43.25C697.397 44.018 696.791 44.612 696.023 45.032C695.255 45.452 694.403 45.662 693.467 45.662ZM693.467 44.222C694.055 44.222 694.607 44.084 695.123 43.808C695.639 43.532 696.053 43.118 696.365 42.566C696.689 42.014 696.851 41.342 696.851 40.55C696.851 39.758 696.695 39.086 696.383 38.534C696.071 37.982 695.663 37.574 695.159 37.31C694.655 37.034 694.109 36.896 693.521 36.896C692.921 36.896 692.369 37.034 691.865 37.31C691.373 37.574 690.977 37.982 690.677 38.534C690.377 39.086 690.227 39.758 690.227 40.55C690.227 41.354 690.371 42.032 690.659 42.584C690.959 43.136 691.355 43.55 691.847 43.826C692.339 44.09 692.879 44.222 693.467 44.222ZM712.541 35.456C713.309 35.456 713.993 35.618 714.593 35.942C715.193 36.254 715.667 36.728 716.015 37.364C716.363 38 716.537 38.774 716.537 39.686V45.5H714.917V39.92C714.917 38.936 714.671 38.186 714.179 37.67C713.699 37.142 713.045 36.878 712.217 36.878C711.365 36.878 710.687 37.154 710.183 37.706C709.679 38.246 709.427 39.032 709.427 40.064V45.5H707.807V39.92C707.807 38.936 707.561 38.186 707.069 37.67C706.589 37.142 705.935 36.878 705.107 36.878C704.255 36.878 703.577 37.154 703.073 37.706C702.569 38.246 702.317 39.032 702.317 40.064V45.5H700.679V35.636H702.317V37.058C702.641 36.542 703.073 36.146 703.613 35.87C704.165 35.594 704.771 35.456 705.431 35.456C706.259 35.456 706.991 35.642 707.627 36.014C708.263 36.386 708.737 36.932 709.049 37.652C709.325 36.956 709.781 36.416 710.417 36.032C711.053 35.648 711.761 35.456 712.541 35.456ZM728.224 40.19C728.224 40.502 728.206 40.832 728.17 41.18H720.286C720.346 42.152 720.676 42.914 721.276 43.466C721.888 44.006 722.626 44.276 723.49 44.276C724.198 44.276 724.786 44.114 725.254 43.79C725.734 43.454 726.07 43.01 726.262 42.458H728.026C727.762 43.406 727.234 44.18 726.442 44.78C725.65 45.368 724.666 45.662 723.49 45.662C722.554 45.662 721.714 45.452 720.97 45.032C720.238 44.612 719.662 44.018 719.242 43.25C718.822 42.47 718.612 41.57 718.612 40.55C718.612 39.53 718.816 38.636 719.224 37.868C719.632 37.1 720.202 36.512 720.934 36.104C721.678 35.684 722.53 35.474 723.49 35.474C724.426 35.474 725.254 35.678 725.974 36.086C726.694 36.494 727.246 37.058 727.63 37.778C728.026 38.486 728.224 39.29 728.224 40.19ZM726.532 39.848C726.532 39.224 726.394 38.69 726.118 38.246C725.842 37.79 725.464 37.448 724.984 37.22C724.516 36.98 723.994 36.86 723.418 36.86C722.59 36.86 721.882 37.124 721.294 37.652C720.718 38.18 720.388 38.912 720.304 39.848H726.532Z" fill="black"/>
<path d="M770.278 39.218C770.278 37.994 770.554 36.896 771.106 35.924C771.658 34.94 772.408 34.172 773.356 33.62C774.316 33.068 775.378 32.792 776.542 32.792C777.91 32.792 779.104 33.122 780.124 33.782C781.144 34.442 781.888 35.378 782.356 36.59H780.394C780.046 35.834 779.542 35.252 778.882 34.844C778.234 34.436 777.454 34.232 776.542 34.232C775.666 34.232 774.88 34.436 774.184 34.844C773.488 35.252 772.942 35.834 772.546 36.59C772.15 37.334 771.952 38.21 771.952 39.218C771.952 40.214 772.15 41.09 772.546 41.846C772.942 42.59 773.488 43.166 774.184 43.574C774.88 43.982 775.666 44.186 776.542 44.186C777.454 44.186 778.234 43.988 778.882 43.592C779.542 43.184 780.046 42.602 780.394 41.846H782.356C781.888 43.046 781.144 43.976 780.124 44.636C779.104 45.284 777.91 45.608 776.542 45.608C775.378 45.608 774.316 45.338 773.356 44.798C772.408 44.246 771.658 43.484 771.106 42.512C770.554 41.54 770.278 40.442 770.278 39.218ZM789.69 35.456C790.434 35.456 791.106 35.618 791.706 35.942C792.306 36.254 792.774 36.728 793.11 37.364C793.458 38 793.632 38.774 793.632 39.686V45.5H792.012V39.92C792.012 38.936 791.766 38.186 791.274 37.67C790.782 37.142 790.11 36.878 789.258 36.878C788.394 36.878 787.704 37.148 787.188 37.688C786.684 38.228 786.432 39.014 786.432 40.046V45.5H784.794V32.18H786.432V37.04C786.756 36.536 787.2 36.146 787.764 35.87C788.34 35.594 788.982 35.456 789.69 35.456ZM795.696 40.532C795.696 39.524 795.9 38.642 796.308 37.886C796.716 37.118 797.274 36.524 797.982 36.104C798.702 35.684 799.5 35.474 800.376 35.474C801.24 35.474 801.99 35.66 802.626 36.032C803.262 36.404 803.736 36.872 804.048 37.436V35.636H805.704V45.5H804.048V43.664C803.724 44.24 803.238 44.72 802.59 45.104C801.954 45.476 801.21 45.662 800.358 45.662C799.482 45.662 798.69 45.446 797.982 45.014C797.274 44.582 796.716 43.976 796.308 43.196C795.9 42.416 795.696 41.528 795.696 40.532ZM804.048 40.55C804.048 39.806 803.898 39.158 803.598 38.606C803.298 38.054 802.89 37.634 802.374 37.346C801.87 37.046 801.312 36.896 800.7 36.896C800.088 36.896 799.53 37.04 799.026 37.328C798.522 37.616 798.12 38.036 797.82 38.588C797.52 39.14 797.37 39.788 797.37 40.532C797.37 41.288 797.52 41.948 797.82 42.512C798.12 43.064 798.522 43.49 799.026 43.79C799.53 44.078 800.088 44.222 800.7 44.222C801.312 44.222 801.87 44.078 802.374 43.79C802.89 43.49 803.298 43.064 803.598 42.512C803.898 41.948 804.048 41.294 804.048 40.55ZM810.47 36.986V42.8C810.47 43.28 810.572 43.622 810.776 43.826C810.98 44.018 811.334 44.114 811.838 44.114H813.044V45.5H811.568C810.656 45.5 809.972 45.29 809.516 44.87C809.06 44.45 808.832 43.76 808.832 42.8V36.986H807.554V35.636H808.832V33.152H810.47V35.636H813.044V36.986H810.47ZM827.243 42.71H821.771L820.763 45.5H819.035L823.571 33.026H825.461L829.979 45.5H828.251L827.243 42.71ZM826.775 41.378L824.507 35.042L822.239 41.378H826.775ZM833.594 32.954V45.5H831.956V32.954H833.594Z" fill="black"/>
<path d="M880.728 32.954C882.096 32.954 883.278 33.212 884.274 33.728C885.282 34.232 886.05 34.958 886.578 35.906C887.118 36.854 887.388 37.97 887.388 39.254C887.388 40.538 887.118 41.654 886.578 42.602C886.05 43.538 885.282 44.258 884.274 44.762C883.278 45.254 882.096 45.5 880.728 45.5H876.822V32.954H880.728ZM880.728 44.15C882.348 44.15 883.584 43.724 884.436 42.872C885.288 42.008 885.714 40.802 885.714 39.254C885.714 37.694 885.282 36.476 884.418 35.6C883.566 34.724 882.336 34.286 880.728 34.286H878.46V44.15H880.728ZM893.85 45.662C892.926 45.662 892.086 45.452 891.33 45.032C890.586 44.612 889.998 44.018 889.566 43.25C889.146 42.47 888.936 41.57 888.936 40.55C888.936 39.542 889.152 38.654 889.584 37.886C890.028 37.106 890.628 36.512 891.384 36.104C892.14 35.684 892.986 35.474 893.922 35.474C894.858 35.474 895.704 35.684 896.46 36.104C897.216 36.512 897.81 37.1 898.242 37.868C898.686 38.636 898.908 39.53 898.908 40.55C898.908 41.57 898.68 42.47 898.224 43.25C897.78 44.018 897.174 44.612 896.406 45.032C895.638 45.452 894.786 45.662 893.85 45.662ZM893.85 44.222C894.438 44.222 894.99 44.084 895.506 43.808C896.022 43.532 896.436 43.118 896.748 42.566C897.072 42.014 897.234 41.342 897.234 40.55C897.234 39.758 897.078 39.086 896.766 38.534C896.454 37.982 896.046 37.574 895.542 37.31C895.038 37.034 894.492 36.896 893.904 36.896C893.304 36.896 892.752 37.034 892.248 37.31C891.756 37.574 891.36 37.982 891.06 38.534C890.76 39.086 890.61 39.758 890.61 40.55C890.61 41.354 890.754 42.032 891.042 42.584C891.342 43.136 891.738 43.55 892.23 43.826C892.722 44.09 893.262 44.222 893.85 44.222ZM900.45 40.55C900.45 39.53 900.654 38.642 901.062 37.886C901.47 37.118 902.034 36.524 902.754 36.104C903.486 35.684 904.32 35.474 905.256 35.474C906.468 35.474 907.464 35.768 908.244 36.356C909.036 36.944 909.558 37.76 909.81 38.804H908.046C907.878 38.204 907.548 37.73 907.056 37.382C906.576 37.034 905.976 36.86 905.256 36.86C904.32 36.86 903.564 37.184 902.988 37.832C902.412 38.468 902.124 39.374 902.124 40.55C902.124 41.738 902.412 42.656 902.988 43.304C903.564 43.952 904.32 44.276 905.256 44.276C905.976 44.276 906.576 44.108 907.056 43.772C907.536 43.436 907.866 42.956 908.046 42.332H909.81C909.546 43.34 909.018 44.15 908.226 44.762C907.434 45.362 906.444 45.662 905.256 45.662C904.32 45.662 903.486 45.452 902.754 45.032C902.034 44.612 901.47 44.018 901.062 43.25C900.654 42.482 900.45 41.582 900.45 40.55ZM918.835 38.21V39.596H911.653V38.21H918.835ZM929.631 32.954V34.286H926.211V45.5H924.573V34.286H921.135V32.954H929.631ZM933.286 37.238C933.574 36.674 933.982 36.236 934.51 35.924C935.05 35.612 935.704 35.456 936.472 35.456V37.148H936.04C934.204 37.148 933.286 38.144 933.286 40.136V45.5H931.648V35.636H933.286V37.238ZM939.209 34.034C938.897 34.034 938.633 33.926 938.417 33.71C938.201 33.494 938.093 33.23 938.093 32.918C938.093 32.606 938.201 32.342 938.417 32.126C938.633 31.91 938.897 31.802 939.209 31.802C939.509 31.802 939.761 31.91 939.965 32.126C940.181 32.342 940.289 32.606 940.289 32.918C940.289 33.23 940.181 33.494 939.965 33.71C939.761 33.926 939.509 34.034 939.209 34.034ZM940.001 35.636V45.5H938.363V35.636H940.001ZM942.18 40.532C942.18 39.524 942.384 38.642 942.792 37.886C943.2 37.118 943.758 36.524 944.466 36.104C945.186 35.684 945.984 35.474 946.86 35.474C947.724 35.474 948.474 35.66 949.11 36.032C949.746 36.404 950.22 36.872 950.532 37.436V35.636H952.188V45.5H950.532V43.664C950.208 44.24 949.722 44.72 949.074 45.104C948.438 45.476 947.694 45.662 946.842 45.662C945.966 45.662 945.174 45.446 944.466 45.014C943.758 44.582 943.2 43.976 942.792 43.196C942.384 42.416 942.18 41.528 942.18 40.532ZM950.532 40.55C950.532 39.806 950.382 39.158 950.082 38.606C949.782 38.054 949.374 37.634 948.858 37.346C948.354 37.046 947.796 36.896 947.184 36.896C946.572 36.896 946.014 37.04 945.51 37.328C945.006 37.616 944.604 38.036 944.304 38.588C944.004 39.14 943.854 39.788 943.854 40.532C943.854 41.288 944.004 41.948 944.304 42.512C944.604 43.064 945.006 43.49 945.51 43.79C946.014 44.078 946.572 44.222 947.184 44.222C947.796 44.222 948.354 44.078 948.858 43.79C949.374 43.49 949.782 43.064 950.082 42.512C950.382 41.948 950.532 41.294 950.532 40.55ZM956.594 32.18V45.5H954.956V32.18H956.594Z" fill="black"/>
<path d="M1004.17 45.626C1003.34 45.626 1002.6 45.482 1001.94 45.194C1001.29 44.894 1000.78 44.486 1000.41 43.97C1000.04 43.442 999.847 42.836 999.835 42.152H1001.58C1001.64 42.74 1001.88 43.238 1002.3 43.646C1002.73 44.042 1003.36 44.24 1004.17 44.24C1004.95 44.24 1005.56 44.048 1006.01 43.664C1006.46 43.268 1006.69 42.764 1006.69 42.152C1006.69 41.672 1006.56 41.282 1006.3 40.982C1006.03 40.682 1005.7 40.454 1005.31 40.298C1004.91 40.142 1004.38 39.974 1003.7 39.794C1002.88 39.578 1002.21 39.362 1001.71 39.146C1001.21 38.93 1000.79 38.594 1000.43 38.138C1000.08 37.67 999.907 37.046 999.907 36.266C999.907 35.582 1000.08 34.976 1000.43 34.448C1000.78 33.92 1001.26 33.512 1001.89 33.224C1002.52 32.936 1003.25 32.792 1004.06 32.792C1005.24 32.792 1006.2 33.086 1006.94 33.674C1007.7 34.262 1008.13 35.042 1008.22 36.014H1006.42C1006.36 35.534 1006.11 35.114 1005.67 34.754C1005.22 34.382 1004.63 34.196 1003.9 34.196C1003.22 34.196 1002.66 34.376 1002.23 34.736C1001.8 35.084 1001.58 35.576 1001.58 36.212C1001.58 36.668 1001.71 37.04 1001.96 37.328C1002.22 37.616 1002.54 37.838 1002.91 37.994C1003.3 38.138 1003.83 38.306 1004.51 38.498C1005.34 38.726 1006.01 38.954 1006.51 39.182C1007.02 39.398 1007.45 39.74 1007.81 40.208C1008.17 40.664 1008.35 41.288 1008.35 42.08C1008.35 42.692 1008.19 43.268 1007.86 43.808C1007.54 44.348 1007.06 44.786 1006.42 45.122C1005.79 45.458 1005.04 45.626 1004.17 45.626ZM1019.51 35.636V45.5H1017.87V44.042C1017.56 44.546 1017.12 44.942 1016.56 45.23C1016 45.506 1015.39 45.644 1014.72 45.644C1013.95 45.644 1013.26 45.488 1012.65 45.176C1012.04 44.852 1011.55 44.372 1011.19 43.736C1010.84 43.1 1010.67 42.326 1010.67 41.414V35.636H1012.29V41.198C1012.29 42.17 1012.54 42.92 1013.03 43.448C1013.52 43.964 1014.19 44.222 1015.04 44.222C1015.92 44.222 1016.61 43.952 1017.11 43.412C1017.62 42.872 1017.87 42.086 1017.87 41.054V35.636H1019.51ZM1023.91 37.454C1024.23 36.89 1024.71 36.422 1025.35 36.05C1026 35.666 1026.75 35.474 1027.6 35.474C1028.48 35.474 1029.27 35.684 1029.98 36.104C1030.7 36.524 1031.26 37.118 1031.67 37.886C1032.08 38.642 1032.28 39.524 1032.28 40.532C1032.28 41.528 1032.08 42.416 1031.67 43.196C1031.26 43.976 1030.7 44.582 1029.98 45.014C1029.27 45.446 1028.48 45.662 1027.6 45.662C1026.76 45.662 1026.02 45.476 1025.37 45.104C1024.73 44.72 1024.25 44.246 1023.91 43.682V50.18H1022.27V35.636H1023.91V37.454ZM1030.61 40.532C1030.61 39.788 1030.46 39.14 1030.16 38.588C1029.86 38.036 1029.45 37.616 1028.93 37.328C1028.43 37.04 1027.87 36.896 1027.26 36.896C1026.66 36.896 1026.1 37.046 1025.58 37.346C1025.08 37.634 1024.67 38.06 1024.36 38.624C1024.06 39.176 1023.91 39.818 1023.91 40.55C1023.91 41.294 1024.06 41.948 1024.36 42.512C1024.67 43.064 1025.08 43.49 1025.58 43.79C1026.1 44.078 1026.66 44.222 1027.26 44.222C1027.87 44.222 1028.43 44.078 1028.93 43.79C1029.45 43.49 1029.86 43.064 1030.16 42.512C1030.46 41.948 1030.61 41.288 1030.61 40.532ZM1036.07 37.454C1036.4 36.89 1036.88 36.422 1037.51 36.05C1038.16 35.666 1038.91 35.474 1039.76 35.474C1040.64 35.474 1041.43 35.684 1042.14 36.104C1042.86 36.524 1043.42 37.118 1043.83 37.886C1044.24 38.642 1044.44 39.524 1044.44 40.532C1044.44 41.528 1044.24 42.416 1043.83 43.196C1043.42 43.976 1042.86 44.582 1042.14 45.014C1041.43 45.446 1040.64 45.662 1039.76 45.662C1038.92 45.662 1038.18 45.476 1037.53 45.104C1036.9 44.72 1036.41 44.246 1036.07 43.682V50.18H1034.44V35.636H1036.07V37.454ZM1042.77 40.532C1042.77 39.788 1042.62 39.14 1042.32 38.588C1042.02 38.036 1041.61 37.616 1041.1 37.328C1040.59 37.04 1040.03 36.896 1039.42 36.896C1038.82 36.896 1038.26 37.046 1037.75 37.346C1037.24 37.634 1036.84 38.06 1036.52 38.624C1036.22 39.176 1036.07 39.818 1036.07 40.55C1036.07 41.294 1036.22 41.948 1036.52 42.512C1036.84 43.064 1037.24 43.49 1037.75 43.79C1038.26 44.078 1038.82 44.222 1039.42 44.222C1040.03 44.222 1040.59 44.078 1041.1 43.79C1041.61 43.49 1042.02 43.064 1042.32 42.512C1042.62 41.948 1042.77 41.288 1042.77 40.532ZM1050.9 45.662C1049.98 45.662 1049.14 45.452 1048.38 45.032C1047.64 44.612 1047.05 44.018 1046.62 43.25C1046.2 42.47 1045.99 41.57 1045.99 40.55C1045.99 39.542 1046.2 38.654 1046.64 37.886C1047.08 37.106 1047.68 36.512 1048.44 36.104C1049.19 35.684 1050.04 35.474 1050.97 35.474C1051.91 35.474 1052.76 35.684 1053.51 36.104C1054.27 36.512 1054.86 37.1 1055.29 37.868C1055.74 38.636 1055.96 39.53 1055.96 40.55C1055.96 41.57 1055.73 42.47 1055.28 43.25C1054.83 44.018 1054.23 44.612 1053.46 45.032C1052.69 45.452 1051.84 45.662 1050.9 45.662ZM1050.9 44.222C1051.49 44.222 1052.04 44.084 1052.56 43.808C1053.07 43.532 1053.49 43.118 1053.8 42.566C1054.12 42.014 1054.29 41.342 1054.29 40.55C1054.29 39.758 1054.13 39.086 1053.82 38.534C1053.51 37.982 1053.1 37.574 1052.59 37.31C1052.09 37.034 1051.54 36.896 1050.96 36.896C1050.36 36.896 1049.8 37.034 1049.3 37.31C1048.81 37.574 1048.41 37.982 1048.11 38.534C1047.81 39.086 1047.66 39.758 1047.66 40.55C1047.66 41.354 1047.81 42.032 1048.09 42.584C1048.39 43.136 1048.79 43.55 1049.28 43.826C1049.77 44.09 1050.31 44.222 1050.9 44.222ZM1059.75 37.238C1060.04 36.674 1060.45 36.236 1060.98 35.924C1061.52 35.612 1062.17 35.456 1062.94 35.456V37.148H1062.51C1060.67 37.148 1059.75 38.144 1059.75 40.136V45.5H1058.11V35.636H1059.75V37.238ZM1066.83 36.986V42.8C1066.83 43.28 1066.93 43.622 1067.13 43.826C1067.34 44.018 1067.69 44.114 1068.2 44.114H1069.4V45.5H1067.93C1067.01 45.5 1066.33 45.29 1065.87 44.87C1065.42 44.45 1065.19 43.76 1065.19 42.8V36.986H1063.91V35.636H1065.19V33.152H1066.83V35.636H1069.4V36.986H1066.83Z" fill="black"/>
<path d="M1113.93 34.286V38.48H1118.5V39.83H1113.93V44.15H1119.04V45.5H1112.29V32.936H1119.04V34.286H1113.93ZM1120.9 40.532C1120.9 39.524 1121.11 38.642 1121.52 37.886C1121.92 37.118 1122.48 36.524 1123.19 36.104C1123.91 35.684 1124.71 35.474 1125.6 35.474C1126.37 35.474 1127.08 35.654 1127.74 36.014C1128.4 36.362 1128.91 36.824 1129.26 37.4V32.18H1130.91V45.5H1129.26V43.646C1128.93 44.234 1128.45 44.72 1127.82 45.104C1127.18 45.476 1126.44 45.662 1125.58 45.662C1124.71 45.662 1123.91 45.446 1123.19 45.014C1122.48 44.582 1121.92 43.976 1121.52 43.196C1121.11 42.416 1120.9 41.528 1120.9 40.532ZM1129.26 40.55C1129.26 39.806 1129.11 39.158 1128.81 38.606C1128.51 38.054 1128.1 37.634 1127.58 37.346C1127.08 37.046 1126.52 36.896 1125.91 36.896C1125.3 36.896 1124.74 37.04 1124.23 37.328C1123.73 37.616 1123.33 38.036 1123.03 38.588C1122.73 39.14 1122.58 39.788 1122.58 40.532C1122.58 41.288 1122.73 41.948 1123.03 42.512C1123.33 43.064 1123.73 43.49 1124.23 43.79C1124.74 44.078 1125.3 44.222 1125.91 44.222C1126.52 44.222 1127.08 44.078 1127.58 43.79C1128.1 43.49 1128.51 43.064 1128.81 42.512C1129.11 41.948 1129.26 41.294 1129.26 40.55ZM1142.43 35.636V45.5H1140.79V44.042C1140.48 44.546 1140.04 44.942 1139.48 45.23C1138.92 45.506 1138.31 45.644 1137.64 45.644C1136.87 45.644 1136.18 45.488 1135.57 45.176C1134.96 44.852 1134.47 44.372 1134.11 43.736C1133.76 43.1 1133.59 42.326 1133.59 41.414V35.636H1135.21V41.198C1135.21 42.17 1135.46 42.92 1135.95 43.448C1136.44 43.964 1137.11 44.222 1137.96 44.222C1138.84 44.222 1139.53 43.952 1140.03 43.412C1140.54 42.872 1140.79 42.086 1140.79 41.054V35.636H1142.43ZM1150.09 35.456C1150.83 35.456 1151.51 35.618 1152.11 35.942C1152.71 36.254 1153.17 36.728 1153.51 37.364C1153.86 38 1154.03 38.774 1154.03 39.686V45.5H1152.41V39.92C1152.41 38.936 1152.17 38.186 1151.67 37.67C1151.18 37.142 1150.51 36.878 1149.66 36.878C1148.79 36.878 1148.1 37.148 1147.59 37.688C1147.08 38.228 1146.83 39.014 1146.83 40.046V45.5H1145.19V32.18H1146.83V37.04C1147.16 36.536 1147.6 36.146 1148.16 35.87C1148.74 35.594 1149.38 35.456 1150.09 35.456ZM1165.46 35.636V45.5H1163.82V44.042C1163.51 44.546 1163.07 44.942 1162.5 45.23C1161.95 45.506 1161.34 45.644 1160.67 45.644C1159.9 45.644 1159.21 45.488 1158.6 45.176C1157.99 44.852 1157.5 44.372 1157.14 43.736C1156.79 43.1 1156.62 42.326 1156.62 41.414V35.636H1158.24V41.198C1158.24 42.17 1158.48 42.92 1158.98 43.448C1159.47 43.964 1160.14 44.222 1160.99 44.222C1161.87 44.222 1162.56 43.952 1163.06 43.412C1163.57 42.872 1163.82 42.086 1163.82 41.054V35.636H1165.46ZM1169.86 37.472C1170.2 36.884 1170.69 36.404 1171.34 36.032C1171.98 35.66 1172.72 35.474 1173.55 35.474C1174.44 35.474 1175.24 35.684 1175.94 36.104C1176.65 36.524 1177.21 37.118 1177.62 37.886C1178.03 38.642 1178.23 39.524 1178.23 40.532C1178.23 41.528 1178.03 42.416 1177.62 43.196C1177.21 43.976 1176.65 44.582 1175.93 45.014C1175.22 45.446 1174.43 45.662 1173.55 45.662C1172.7 45.662 1171.95 45.476 1171.3 45.104C1170.66 44.732 1170.18 44.258 1169.86 43.682V45.5H1168.22V32.18H1169.86V37.472ZM1176.56 40.532C1176.56 39.788 1176.41 39.14 1176.11 38.588C1175.81 38.036 1175.4 37.616 1174.88 37.328C1174.38 37.04 1173.82 36.896 1173.21 36.896C1172.61 36.896 1172.05 37.046 1171.53 37.346C1171.03 37.634 1170.62 38.06 1170.31 38.624C1170.01 39.176 1169.86 39.818 1169.86 40.55C1169.86 41.294 1170.01 41.948 1170.31 42.512C1170.62 43.064 1171.03 43.49 1171.53 43.79C1172.05 44.078 1172.61 44.222 1173.21 44.222C1173.82 44.222 1174.38 44.078 1174.88 43.79C1175.4 43.49 1175.81 43.064 1176.11 42.512C1176.41 41.948 1176.56 41.288 1176.56 40.532Z" fill="black"/>
<rect x="1612" y="13.5" width="158" height="51" rx="8" fill="#363755"/>
<path d="M1663.63 43.844H1667.86V45.5H1661.58V32.99H1663.63V43.844ZM1673.88 45.662C1672.94 45.662 1672.1 45.452 1671.34 45.032C1670.59 44.6 1669.99 44 1669.56 43.232C1669.13 42.452 1668.91 41.552 1668.91 40.532C1668.91 39.524 1669.13 38.63 1669.58 37.85C1670.02 37.07 1670.63 36.47 1671.4 36.05C1672.16 35.63 1673.02 35.42 1673.97 35.42C1674.92 35.42 1675.78 35.63 1676.54 36.05C1677.31 36.47 1677.92 37.07 1678.36 37.85C1678.81 38.63 1679.03 39.524 1679.03 40.532C1679.03 41.54 1678.8 42.434 1678.34 43.214C1677.89 43.994 1677.26 44.6 1676.47 45.032C1675.69 45.452 1674.83 45.662 1673.88 45.662ZM1673.88 43.88C1674.41 43.88 1674.9 43.754 1675.36 43.502C1675.82 43.25 1676.2 42.872 1676.49 42.368C1676.78 41.864 1676.92 41.252 1676.92 40.532C1676.92 39.812 1676.78 39.206 1676.51 38.714C1676.23 38.21 1675.87 37.832 1675.41 37.58C1674.95 37.328 1674.46 37.202 1673.93 37.202C1673.41 37.202 1672.91 37.328 1672.46 37.58C1672.01 37.832 1671.66 38.21 1671.4 38.714C1671.13 39.206 1671 39.812 1671 40.532C1671 41.6 1671.27 42.428 1671.81 43.016C1672.36 43.592 1673.05 43.88 1673.88 43.88ZM1685.05 35.42C1685.82 35.42 1686.5 35.576 1687.09 35.888C1687.69 36.188 1688.15 36.566 1688.49 37.022V35.582H1690.56V45.662C1690.56 46.574 1690.37 47.384 1689.98 48.092C1689.6 48.812 1689.04 49.376 1688.31 49.784C1687.59 50.192 1686.73 50.396 1685.72 50.396C1684.37 50.396 1683.26 50.078 1682.37 49.442C1681.48 48.818 1680.98 47.966 1680.86 46.886H1682.89C1683.05 47.402 1683.38 47.816 1683.88 48.128C1684.4 48.452 1685.01 48.614 1685.72 48.614C1686.55 48.614 1687.21 48.362 1687.72 47.858C1688.23 47.354 1688.49 46.622 1688.49 45.662V44.006C1688.14 44.474 1687.67 44.87 1687.07 45.194C1686.48 45.506 1685.81 45.662 1685.05 45.662C1684.19 45.662 1683.4 45.446 1682.68 45.014C1681.97 44.57 1681.4 43.958 1680.98 43.178C1680.58 42.386 1680.37 41.492 1680.37 40.496C1680.37 39.5 1680.58 38.618 1680.98 37.85C1681.4 37.082 1681.97 36.488 1682.68 36.068C1683.4 35.636 1684.19 35.42 1685.05 35.42ZM1688.49 40.532C1688.49 39.848 1688.35 39.254 1688.06 38.75C1687.78 38.246 1687.42 37.862 1686.96 37.598C1686.5 37.334 1686.01 37.202 1685.48 37.202C1684.96 37.202 1684.46 37.334 1684.01 37.598C1683.55 37.85 1683.18 38.228 1682.89 38.732C1682.62 39.224 1682.48 39.812 1682.48 40.496C1682.48 41.18 1682.62 41.78 1682.89 42.296C1683.18 42.812 1683.55 43.208 1684.01 43.484C1684.48 43.748 1684.97 43.88 1685.48 43.88C1686.01 43.88 1686.5 43.748 1686.96 43.484C1687.42 43.22 1687.78 42.836 1688.06 42.332C1688.35 41.816 1688.49 41.216 1688.49 40.532ZM1697.56 45.662C1696.62 45.662 1695.78 45.452 1695.02 45.032C1694.26 44.6 1693.67 44 1693.24 43.232C1692.81 42.452 1692.59 41.552 1692.59 40.532C1692.59 39.524 1692.81 38.63 1693.26 37.85C1693.7 37.07 1694.31 36.47 1695.07 36.05C1695.84 35.63 1696.7 35.42 1697.65 35.42C1698.6 35.42 1699.45 35.63 1700.22 36.05C1700.99 36.47 1701.6 37.07 1702.04 37.85C1702.48 38.63 1702.71 39.524 1702.71 40.532C1702.71 41.54 1702.48 42.434 1702.02 43.214C1701.57 43.994 1700.94 44.6 1700.15 45.032C1699.37 45.452 1698.51 45.662 1697.56 45.662ZM1697.56 43.88C1698.09 43.88 1698.58 43.754 1699.03 43.502C1699.5 43.25 1699.88 42.872 1700.17 42.368C1700.46 41.864 1700.6 41.252 1700.6 40.532C1700.6 39.812 1700.46 39.206 1700.19 38.714C1699.91 38.21 1699.54 37.832 1699.09 37.58C1698.63 37.328 1698.14 37.202 1697.61 37.202C1697.08 37.202 1696.59 37.328 1696.14 37.58C1695.69 37.832 1695.34 38.21 1695.07 38.714C1694.81 39.206 1694.68 39.812 1694.68 40.532C1694.68 41.6 1694.95 42.428 1695.49 43.016C1696.04 43.592 1696.73 43.88 1697.56 43.88ZM1713.72 35.582V45.5H1711.66V44.33C1711.34 44.738 1710.91 45.062 1710.39 45.302C1709.87 45.53 1709.32 45.644 1708.73 45.644C1707.95 45.644 1707.25 45.482 1706.62 45.158C1706.01 44.834 1705.53 44.354 1705.17 43.718C1704.82 43.082 1704.64 42.314 1704.64 41.414V35.582H1706.68V41.108C1706.68 41.996 1706.9 42.68 1707.34 43.16C1707.79 43.628 1708.39 43.862 1709.16 43.862C1709.93 43.862 1710.54 43.628 1710.98 43.16C1711.44 42.68 1711.66 41.996 1711.66 41.108V35.582H1713.72ZM1718.82 37.256V42.746C1718.82 43.118 1718.9 43.388 1719.07 43.556C1719.25 43.712 1719.55 43.79 1719.97 43.79H1721.23V45.5H1719.61C1718.69 45.5 1717.98 45.284 1717.49 44.852C1716.99 44.42 1716.75 43.718 1716.75 42.746V37.256H1715.58V35.582H1716.75V33.116H1718.82V35.582H1721.23V37.256H1718.82Z" fill="white"/>
</svg>
